<?xml version="1.0" encoding="UTF-8" standalone="no"?>
<svg
   xmlns:dc="http://purl.org/dc/elements/1.1/"
   xmlns:cc="http://creativecommons.org/ns#"
   xmlns:rdf="http://www.w3.org/1999/02/22-rdf-syntax-ns#"
   xmlns:svg="http://www.w3.org/2000/svg"
   xmlns="http://www.w3.org/2000/svg"
   xmlns:sodipodi="http://sodipodi.sourceforge.net/DTD/sodipodi-0.dtd"
   xmlns:inkscape="http://www.inkscape.org/namespaces/inkscape"
   id="svg5857"
   version="1.1"
   viewBox="0 0 279.4 215.9"
   height="8.5in"
   width="11in"
   sodipodi:docname="hk_map_puzzle_red.svg"
   inkscape:version="0.92.4 (5da689c313, 2019-01-14)">
  <sodipodi:namedview
     pagecolor="#ffffff"
     bordercolor="#666666"
     borderopacity="1"
     objecttolerance="10"
     gridtolerance="10"
     guidetolerance="10"
     inkscape:pageopacity="0"
     inkscape:pageshadow="2"
     inkscape:window-width="1561"
     inkscape:window-height="748"
     id="namedview30"
     showgrid="false"
     inkscape:zoom="0.38033774"
     inkscape:cx="130.37929"
     inkscape:cy="373.6372"
     inkscape:window-x="715"
     inkscape:window-y="26"
     inkscape:window-maximized="0"
     inkscape:current-layer="svg5857" />
  <defs
     id="defs5851" />
  <metadata
     id="metadata5854">
    <rdf:RDF>
      <cc:Work
         rdf:about="">
        <dc:format>image/svg+xml</dc:format>
        <dc:type
           rdf:resource="http://purl.org/dc/dcmitype/StillImage" />
        <dc:title />
      </cc:Work>
    </rdf:RDF>
  </metadata>
  <path
     inkscape:connector-curvature="0"
     style="display:inline;fill:#ff0000;fill-opacity:1;stroke:none;stroke-width:2.14285707;stroke-miterlimit:4;stroke-dasharray:none;stroke-dashoffset:0;stroke-opacity:1"
     d="m 13.144336,194.73187 c -1.697614,-1.93348 -1.807621,-2.36722 -2.115383,-8.34056 -0.360085,-6.98889 -0.377094,-6.9445 2.660733,-6.9445 h 2.414815 l 0.111053,-2.72344 0.111053,-2.72345 1.700893,-0.41125 1.700893,-0.41125 0.119826,-2.06247 c 0.112178,-1.93084 0.04087,-2.12869 -1.117132,-3.09981 -0.74911,-0.62822 -1.094511,-1.16476 -0.875779,-1.36043 0.198649,-0.17769 1.764417,-1.46957 3.479484,-2.87084 1.715067,-1.40126 3.118303,-2.68298 3.118303,-2.84826 0,-0.16528 0.90804,-0.41396 2.017865,-0.55262 1.754265,-0.21918 2.245557,-0.4841 3.760831,-2.02793 0.958633,-0.97669 2.666717,-3.30661 3.795741,-5.17759 l 2.052776,-3.40179 6.17911,0.0495 6.179109,0.0494 1.834652,1.99527 1.83465,1.99526 2.892505,-1.20734 c 1.590876,-0.66404 5.223229,-2.56148 8.0719,-4.21653 l 5.179402,-3.00919 3.27843,0.77862 c 1.80313,0.42825 3.48532,0.69924 3.73818,0.6022 0.25287,-0.097 1.17273,-1.37653 2.04414,-2.84332 1.41643,-2.38421 1.73381,-2.6921 2.99424,-2.9046 2.45715,-0.41428 2.76214,-0.58559 3.39127,-1.90489 l 0.61545,-1.29062 h 7.300526 c 7.04854,0 7.30053,0.0261 7.30053,0.75595 0,0.86947 -0.19896,0.89232 -3.23787,0.37182 -1.23353,-0.21127 -2.79558,-0.47411 -3.47121,-0.58409 l -1.22842,-0.19996 v 4.55285 c 0,2.50406 0.0793,4.55284 0.17616,4.55284 0.0969,0 0.77511,-0.28562 1.50716,-0.63471 0.73205,-0.34909 1.43551,-0.5302 1.56324,-0.40246 0.12774,0.12773 -0.0548,1.09647 -0.40564,2.15274 -0.54312,1.63518 -0.59747,2.78998 -0.36581,7.773 l 0.27208,5.8525 h -2.87566 c -2.30886,0 -3.438286,-0.2235 -5.730156,-1.13393 -1.56997,-0.62366 -3.02856,-1.13393 -3.2413,-1.13393 -0.21274,0 0.85474,1.78802 2.37219,3.97337 1.51744,2.18535 2.97862,4.2908 3.24707,4.67878 0.441666,0.63833 0.16315,0.96452 -2.92931,3.43064 -1.87958,1.49888 -3.4174,2.84918 -3.4174,3.00068 0,0.15149 2.21116,1.78335 4.91369,3.62635 2.702526,1.84301 4.913686,3.46322 4.913686,3.60047 0,0.13726 -1.23315,1.23201 -2.74033,2.43279 -2.624116,2.09065 -9.603796,5.74905 -10.074356,5.28048 -0.12402,-0.12349 -0.27875,-3.27239 -0.34384,-6.99755 l -0.11836,-6.77303 -8.95307,0.0168 -8.953077,0.0168 -3.779761,3.18962 c -3.54843,2.9944 -3.887231,3.19001 -5.535744,3.196 -1.695331,0.006 -1.798638,0.0728 -2.9907,1.9305 -1.408766,2.19537 -1.367625,2.2649 1.753413,2.96336 1.85946,0.41612 2.047428,0.55173 2.03858,1.47072 -0.01561,1.61977 -2.892645,3.32026 -6.182299,3.65406 l -2.601275,0.26395 -2.757353,-2.73895 c -2.468745,-2.45227 -2.783721,-2.93067 -3.009283,-4.57072 -0.138565,-1.00748 -0.376095,-1.90851 -0.527844,-2.0023 -0.151749,-0.0938 -1.351825,0.16434 -2.666833,0.57362 -2.698229,0.83978 -5.655818,2.83061 -10.673587,7.18467 -2.158292,1.87281 -4.156536,3.25575 -5.364922,3.71295 -1.059083,0.40071 -2.198132,0.83682 -2.531219,0.96912 -0.407335,0.1618 -1.003433,-0.21254 -1.820706,-1.14336 z"
     id="path6931" />
  <path
     inkscape:connector-curvature="0"
     style="display:inline;fill:#ff0000;fill-opacity:1;stroke:none;stroke-width:2.14285707;stroke-miterlimit:4;stroke-dasharray:none;stroke-dashoffset:0;stroke-opacity:1"
     d="m 103.45011,98.42367 c 0,-1.9459 -0.10816,-4.32715 -0.24036,-5.29166 l -0.24037,-1.75365 H 91.726282 80.483186 l -5.43097,-2.67894 c -5.83507,-2.87827 -14.972732,-7.82023 -15.230378,-8.23711 -0.08653,-0.14001 1.0624,-2.53589 2.553185,-5.32418 l 2.710513,-5.0696 5.48066,-2.39685 5.48065,-2.39685 4.80558,-7.35895 c 4.57228,-7.00169 4.86375,-7.35895 6.00377,-7.35895 0.659,0 1.813626,0.18439 2.565836,0.40976 l 1.36765,0.40976 -0.34483,3.56152 c -0.18966,1.95884 -0.24237,3.66398 -0.11714,3.78921 0.12523,0.12524 0.76726,-0.15651 1.42673,-0.6261 0.65948,-0.46958 2.57495,-1.25381 4.25661,-1.74271 2.18845,-0.63625 3.41765,-1.23794 4.324358,-2.11675 l 1.26679,-1.22783 -0.24596,-3.2128 -0.24595,-3.21281 2.77631,-1.36527 c 1.52697,-0.7509 4.30711,-1.75222 6.17809,-2.22516 3.74825,-0.94747 4.70167,-1.6807 6.40017,-4.92207 0.83579,-1.59501 1.08065,-1.7682 3.67325,-2.5981 1.52778,-0.48905 3.42427,-1.21619 4.21444,-1.61587 1.4189,-0.71771 1.44912,-0.71761 2.44483,0.008 0.94587,0.68902 1.16406,1.49721 3.53122,13.08037 1.38768,6.79029 2.61504,12.43796 2.72746,12.55038 0.11242,0.11242 3.27781,-0.15493 7.03421,-0.59413 l 6.82981,-0.79853 1.49188,0.98728 1.49188,0.98728 -3.17578,3.94777 c -1.74668,2.17127 -3.10278,4.15278 -3.01355,4.40335 0.37967,1.0662 5.09274,18.62938 5.09274,18.978 0,0.21073 -1.9135,0.86869 -4.25223,1.46214 -7.92715,2.01149 -25.18345,7.36927 -32.96625,10.23545 -4.26074,1.5691 -7.83497,2.85291 -7.94273,2.85291 -0.10776,0 -0.19593,-1.59211 -0.19593,-3.53802 z"
     id="path6933" />
  <path
     inkscape:connector-curvature="0"
     style="display:inline;fill:#ff0000;fill-opacity:1;stroke:none;stroke-width:2.14285707;stroke-miterlimit:4;stroke-dasharray:none;stroke-dashoffset:0;stroke-opacity:1"
     d="m 128.27309,131.72732 c -0.11298,-0.46775 -0.31952,-2.12612 -0.459,-3.68527 -0.22791,-2.54773 -0.44093,-3.12413 -2.10343,-5.69155 -2.24193,-3.46225 -2.4317,-4.93703 -0.72617,-5.64348 0.99314,-0.41138 1.53656,-0.31953 4.6785,0.79077 l 3.55485,1.25621 1.30518,3.02521 1.30517,3.02522 -0.74897,3.03622 c -0.41193,1.66992 -0.79305,3.09176 -0.84693,3.15964 -0.0707,0.089 -5.25034,1.51654 -5.70028,1.571 -0.0294,0.004 -0.14595,-0.37623 -0.25892,-0.84397 z"
     id="path6935" />
  <path
     inkscape:connector-curvature="0"
     style="display:inline;fill:#ff0000;fill-opacity:1;stroke:none;stroke-width:2.14285707;stroke-miterlimit:4;stroke-dasharray:none;stroke-dashoffset:0;stroke-opacity:1"
     d="m 160.07447,120.00596 c -0.55935,-1.50493 -1.39291,-4.02575 -1.85236,-5.60183 l -0.83536,-2.8656 5.26876,-7.46526 5.26875,-7.46526 -0.4651,-4.41021 c -0.70795,-6.71303 -0.87815,-6.11111 1.72798,-6.11111 1.97131,0 5.68185,-0.94142 11.76273,-2.98439 0.74377,-0.24989 1.19378,-0.13564 2.001,0.50801 1.00359,0.80023 1.02655,0.89675 0.63212,2.6568 -0.38975,1.73913 -0.35969,1.87818 0.62908,2.91023 l 1.03838,1.08384 -1.42044,2.87066 c -0.78124,1.57886 -1.34221,2.94889 -1.24659,3.04451 0.0956,0.0956 1.22108,-0.11999 2.50102,-0.47912 l 2.32718,-0.65297 2.02195,-4.00632 c 1.58302,-3.1366 2.56117,-4.53631 4.50584,-6.44779 2.03704,-2.00227 2.62622,-2.86923 3.27513,-4.81919 0.683,-2.05244 0.91742,-2.37772 1.71348,-2.37772 0.50723,0 1.61684,0.45967 2.46581,1.0215 l 1.54359,1.0215 -0.13428,8.33687 -0.13428,8.33687 -4.76742,7.17809 c -2.62208,3.94795 -5.5136,8.41123 -6.42559,9.91839 -0.912,1.50717 -1.91331,2.81947 -2.22514,2.91622 -0.31183,0.0967 -5.92478,1.36539 -12.47322,2.8192 -6.54843,1.45381 -12.75669,2.90362 -13.79613,3.22181 -1.03943,0.31818 -1.88988,0.57851 -1.88988,0.57851 0,-1e-5 -0.45765,-1.23131 -1.01701,-2.73624 z"
     id="path6937" />
  <path
     inkscape:connector-curvature="0"
     style="display:inline;fill:#ff0000;fill-opacity:1;stroke:none;stroke-width:2.14285707;stroke-miterlimit:4;stroke-dasharray:none;stroke-dashoffset:0;stroke-opacity:1"
     d="m 195.4052,150.62483 c -1.27907,-1.29858 -3.93732,-4.38483 -5.90724,-6.85833 l -3.58167,-4.49727 -1.14845,-4.38517 c -1.8777,-7.16964 -1.85619,-6.42428 -0.1804,-6.25088 0.79776,0.0825 3.44309,0.25485 5.87853,0.3829 l 4.42805,0.23283 1.57826,2.89285 1.57827,2.89285 -1.23812,4.826 -1.23811,4.82599 1.59814,3.62973 c 1.35629,3.08044 1.51946,3.7084 1.07822,4.14964 -0.44124,0.44124 -0.87184,0.16262 -2.84548,-1.84114 z"
     id="path6939" />
  <path
     inkscape:connector-curvature="0"
     style="display:inline;fill:#ff0000;fill-opacity:1;stroke:none;stroke-width:2.14285707;stroke-miterlimit:4;stroke-dasharray:none;stroke-dashoffset:0;stroke-opacity:1"
     d="m 165.86019,148.61186 c -0.63377,-0.80572 -0.70987,-1.3355 -0.53118,-3.69813 0.16675,-2.20483 0.036,-3.3389 -0.65214,-5.65694 -0.81208,-2.73551 -0.92163,-2.89926 -1.93956,-2.89926 -0.89881,0 -1.07887,-0.15771 -1.07887,-0.94494 0,-0.91779 0.0759,-0.94494 2.64135,-0.94494 h 2.64135 l -0.007,2.36235 c -0.004,1.29929 0.16423,3.04271 0.37344,3.87425 0.20922,0.83155 0.38446,3.06704 0.38942,4.96775 0.0101,3.85676 -0.48826,4.65432 -1.83685,2.93986 z"
     id="path6941" />
  <path
     inkscape:connector-curvature="0"
     style="display:inline;fill:#ff0000;fill-opacity:1;stroke:none;stroke-width:2.14285707;stroke-miterlimit:4;stroke-dasharray:none;stroke-dashoffset:0;stroke-opacity:1"
     d="m 183.78143,197.66964 c -0.1256,-1.18736 -0.2999,-2.61175 -0.38731,-3.16531 -0.11911,-0.75421 0.0723,-1.15799 0.76361,-1.61096 l 0.92255,-0.60448 -1.00361,-2.04633 -1.00361,-2.04632 -2.57138,1.29493 c -3.59005,1.80792 -4.24451,1.66455 -2.40127,-0.52602 0.51972,-0.61765 0.94494,-1.18704 0.94494,-1.26532 0,-0.0783 -0.74823,-0.55106 -1.66274,-1.05063 l -1.66274,-0.90831 0.95514,-1.44331 0.95515,-1.44333 -0.73459,-1.79821 c -0.68933,-1.68742 -0.84625,-1.82007 -2.54703,-2.15286 l -1.81244,-0.35465 0.2537,-2.57467 c 0.13954,-1.41607 0.16612,-2.57467 0.0591,-2.57467 -0.76388,0 -7.82849,5.09125 -8.4829,6.11336 -0.4427,0.69145 -0.80777,1.02845 -0.81128,0.74889 -0.004,-0.27956 -0.36114,-1.67632 -0.79476,-3.10392 -0.77451,-2.54988 -0.82947,-2.61838 -3.11831,-3.88682 -2.10661,-1.16746 -2.69214,-1.30878 -6.10966,-1.47462 -5.33892,-0.25909 -6.24248,-0.76186 -7.5698,-4.21211 -0.569,-1.47908 -1.52235,-3.56039 -2.11854,-4.62513 -0.59619,-1.06474 -1.08398,-2.04276 -1.08398,-2.17336 0,-0.13061 0.51592,-0.23748 1.14649,-0.23748 1.59171,0 4.40644,1.50718 8.45243,4.52596 l 3.44125,2.56757 4.53572,-0.34045 c 10.88181,-0.81677 19.49536,-0.90837 26.64732,-0.2834 l 6.99256,0.61105 3.96875,1.80389 c 2.18281,0.99215 4.00657,1.83223 4.05279,1.86685 0.0462,0.0346 -0.45384,0.71551 -1.11126,1.51308 l -1.19531,1.45012 0.88322,2.49758 c 0.48577,1.37366 1.29821,3.32889 1.80543,4.34494 0.93382,1.87063 0.79751,2.47694 -0.56062,2.49357 -0.6154,0.008 -0.69154,-0.3356 1.03944,4.68443 0.83155,2.41157 1.5119,4.53267 1.5119,4.71355 0,0.18088 -0.86692,0.48036 -1.92651,0.66551 l -1.9265,0.33665 -2.42022,-2.42535 -2.42022,-2.42535 v -2.40753 c 0,-1.32414 -0.35964,-3.84146 -0.7992,-5.59404 -0.77257,-3.08035 -0.86669,-3.23859 -2.82453,-4.74905 l -2.02532,-1.56253 -2.10517,1.79851 c -1.15784,0.98918 -1.9704,1.92123 -1.80568,2.07123 0.16471,0.15 0.93732,0.47655 1.7169,0.72567 1.26164,0.40318 1.41741,0.59061 1.41741,1.70558 0,0.9814 -0.18415,1.3006 -0.85045,1.47415 -0.46775,0.12184 -1.67475,1.26041 -2.68223,2.53016 l -1.83179,2.30863 1.10204,1.76305 c 0.60612,0.96968 1.33912,2.13832 1.62891,2.59699 0.45785,0.72469 0.43859,1.07943 -0.14707,2.7081 -0.63095,1.75463 -0.63405,1.95132 -0.0484,3.08375 0.70493,1.3632 0.51254,1.68201 -1.20884,2.00316 l -1.20303,0.22445 z"
     id="path6943" />
</svg>
