<?xml version="1.0" encoding="UTF-8" standalone="no"?>
<svg
   xmlns:dc="http://purl.org/dc/elements/1.1/"
   xmlns:cc="http://creativecommons.org/ns#"
   xmlns:rdf="http://www.w3.org/1999/02/22-rdf-syntax-ns#"
   xmlns:svg="http://www.w3.org/2000/svg"
   xmlns="http://www.w3.org/2000/svg"
   xmlns:sodipodi="http://sodipodi.sourceforge.net/DTD/sodipodi-0.dtd"
   xmlns:inkscape="http://www.inkscape.org/namespaces/inkscape"
   id="svg5857"
   version="1.1"
   viewBox="0 0 279.4 215.9"
   height="8.5in"
   width="11in"
   sodipodi:docname="hk_map_puzzle_yellow.svg"
   inkscape:version="0.92.4 (5da689c313, 2019-01-14)">
  <sodipodi:namedview
     pagecolor="#ffffff"
     bordercolor="#666666"
     borderopacity="1"
     objecttolerance="10"
     gridtolerance="10"
     guidetolerance="10"
     inkscape:pageopacity="0"
     inkscape:pageshadow="2"
     inkscape:window-width="1525"
     inkscape:window-height="730"
     id="namedview30"
     showgrid="false"
     inkscape:zoom="0.53787879"
     inkscape:cx="502.8"
     inkscape:cy="359.93446"
     inkscape:window-x="834"
     inkscape:window-y="28"
     inkscape:window-maximized="0"
     inkscape:current-layer="svg5857" />
  <defs
     id="defs5851" />
  <metadata
     id="metadata5854">
    <rdf:RDF>
      <cc:Work
         rdf:about="">
        <dc:format>image/svg+xml</dc:format>
        <dc:type
           rdf:resource="http://purl.org/dc/dcmitype/StillImage" />
        <dc:title />
      </cc:Work>
    </rdf:RDF>
  </metadata>
  <path
     inkscape:connector-curvature="0"
     style="display:inline;fill:#ffff00;fill-opacity:1;stroke:none;stroke-width:1.51522887;stroke-miterlimit:4;stroke-dasharray:none;stroke-dashoffset:0;stroke-opacity:1"
     d="m 139.24811,205.68095 c 0.10101,-0.33074 0.34966,-1.00692 0.55255,-1.50262 0.28625,-0.69936 0.36889,-2.75008 0.36889,-9.15398 v -8.25272 h -2.15617 c -2.115,0 -2.15248,-0.0115 -1.96326,-0.60135 0.48211,-1.50289 0.63262,-2.63683 0.63855,-4.81086 0.005,-1.74555 0.0951,-2.3386 0.3562,-2.3386 0.78461,0 1.29449,0.80189 2.17246,3.41663 0.87301,2.59996 1.04054,2.8772 3.10062,5.13121 l 2.17775,2.38276 1.31143,-0.51691 1.31143,-0.51692 v 0.66792 c 0,0.53396 -0.49439,1.02901 -2.46504,2.46834 -1.95881,1.43069 -2.34623,1.81754 -1.88651,1.88378 0.31819,0.0459 3.36221,-0.0366 6.7645,-0.18318 5.82414,-0.25095 6.94875,-0.21929 6.93633,0.19524 -0.003,0.0945 -0.94545,0.81148 -2.09471,1.59325 -1.82355,1.24044 -3.76675,3.28272 -4.20154,4.41576 -0.0719,0.18725 0.4102,1.47619 1.07122,2.86431 0.76858,1.61397 1.08491,2.54467 0.87742,2.58159 -0.59475,0.10582 -11.31825,0.87771 -12.19369,0.87771 -0.77026,0 -0.84253,-0.0641 -0.67843,-0.60136 z"
     id="path6945" />
  <path
     inkscape:connector-curvature="0"
     style="display:inline;fill:#ffff00;fill-opacity:1;stroke:none;stroke-width:1.51522887;stroke-miterlimit:4;stroke-dasharray:none;stroke-dashoffset:0;stroke-opacity:1"
     d="m 94.399642,117.88071 c -0.66419,-0.4118 -0.73499,-0.60419 -0.73499,-1.99741 v -1.54171 h -4.01834 -4.018336 l -1.58504,-1.26953 c -1.086,-0.86983 -2.2268,-1.47989 -3.62344,-1.9377 l -2.0384,-0.66818 -1.37542,-3.14025 c -1.29115,-2.94786 -1.42867,-3.15024 -2.24459,-3.30331 -0.80595,-0.15119 -0.90823,-0.29423 -1.4063,-1.96668 -0.29543,-0.992 -0.53715,-1.9339 -0.53715,-2.09313 0,-0.82402 -0.67456,-0.35306 -2.67396,1.86686 l -2.20384,2.44691 1.9601,1.78231 c 2.28346,2.07633 2.46623,1.89328 -2.42769,2.43145 l -3.0736,0.338 -2.170798,1.82118 c -1.19394,1.00165 -2.245815,1.82118 -2.337501,1.82118 -0.09169,0 -1.510353,-0.72162 -3.152593,-1.60361 -2.256919,-1.21212 -3.252843,-1.60362 -4.079345,-1.60362 -0.882418,0 -1.531462,-0.29104 -3.36287,-1.50799 -1.248178,-0.82939 -2.310199,-1.5417 -2.360049,-1.58289 -0.04985,-0.0412 0.297103,-1.33772 0.771009,-2.88115 l 0.86165,-2.80624 -1.823895,-2.86105 C 45.138897,95.1059 44.57158,94.47442 42.009411,92.3538 c -2.777942,-2.29922 -2.888591,-2.42975 -2.42162,-2.85673 0.269129,-0.24608 1.331227,-1.17446 2.360216,-2.06306 l 1.870884,-1.61565 3.207234,-0.1779 c 6.887808,-0.38205 6.618092,-0.31929 9.01732,-2.09821 2.503591,-1.8563 1.708068,-1.9794 7.286123,1.12742 2.057978,1.14623 6.657388,3.54061 10.220918,5.32084 l 6.47915,3.23679 h 10.652606 10.652598 l 0.17257,2.60588 c 0.0949,1.43323 0.17318,3.63753 0.17395,4.89845 l 0.001,2.29257 -3.340868,2.60471 c -1.83748,1.43259 -3.34087,2.73711 -3.34087,2.89894 0,0.16184 0.8419,1.1625 1.87089,2.2237 1.02899,1.0612 1.87089,2.07098 1.87089,2.24394 0,0.25716 -3.40573,5.37163 -3.56126,5.34803 -0.0258,-0.004 -0.37763,-0.21217 -0.78187,-0.46281 z"
     id="path6947" />
  <path
     inkscape:connector-curvature="0"
     style="display:inline;fill:#ffff00;fill-opacity:1;stroke:none;stroke-width:1.51522887;stroke-miterlimit:4;stroke-dasharray:none;stroke-dashoffset:0;stroke-opacity:1"
     d="m 149.28643,57.48292 -1.70754,-1.24141 -5.3751,0.60632 c -2.95631,0.33348 -5.92302,0.67024 -6.59269,0.74838 l -1.21759,0.14205 -2.50583,-12.27829 -2.50583,-12.27828 -1.49547,-0.93172 c -1.13659,-0.70814 -1.59755,-1.1916 -1.92084,-2.01462 l -0.42537,-1.08288 1.65882,-0.97037 1.65883,-0.97038 h 3.77015 3.77015 l 1.13743,1.32048 c 0.72334,0.83975 1.56635,1.48429 2.31559,1.77042 l 1.17816,0.44995 2.78014,-2.77268 2.78015,-2.77269 2.00984,-0.28542 c 1.51167,-0.21468 2.65375,-0.20051 4.60762,0.0572 1.42877,0.18845 2.67081,0.34696 2.76009,0.35225 0.0893,0.005 0.7246,-1.6476 1.41183,-3.67308 1.17688,-3.468637 1.35475,-3.805417 3.06016,-5.793926 1.75117,-2.041887 1.88415,-2.135934 4.04857,-2.863212 1.86868,-0.627905 2.30715,-0.694537 2.65745,-0.403841 0.23074,0.191476 1.20129,1.015344 2.15678,1.830819 l 1.73725,1.482684 6.94901,0.23832 c 3.82195,0.13108 8.90341,0.23573 11.29214,0.23254 2.38872,-0.003 4.34313,0.0294 4.34313,0.0725 0,0.257929 -5.23738,6.562136 -6.31617,7.602736 -1.1484,1.10776 -1.45777,1.26451 -2.63736,1.33635 l -1.33635,0.0814 -0.18912,3.5972 c -0.10401,1.97846 -0.15412,3.6322 -0.11134,3.67498 0.0428,0.0428 1.36066,-0.2994 2.92863,-0.76039 2.67916,-0.78769 2.8511,-0.88024 2.85495,-1.53682 0.002,-0.38426 0.0925,-0.83152 0.20045,-0.9939 0.10799,-0.16239 1.2788,-0.57374 2.60178,-0.91413 2.15562,-0.55459 2.52455,-0.74413 3.55241,-1.8251 0.63085,-0.66343 1.93283,-2.68757 2.89331,-4.49809 1.13873,-2.14652 1.89761,-3.29185 2.18116,-3.29185 0.23916,0 0.81765,0.37103 1.28553,0.82452 l 0.85068,0.82452 1.09443,-0.69089 c 2.07567,-1.310307 2.21435,-0.86962 0.71752,2.28021 -0.65189,1.37182 -1.14054,2.53893 -1.08588,2.59359 0.0547,0.0547 0.96929,-0.0985 2.03251,-0.34028 l 1.93311,-0.43968 1.15629,1.13482 1.1563,1.13482 -0.15304,1.75139 -0.15304,1.7514 1.61803,1.02648 1.61802,1.02649 1.64006,-0.99628 c 1.31881,-0.80114 1.68604,-0.92367 1.87482,-0.62558 0.54686,0.86352 0.12629,4.28215 -0.99091,8.05469 -0.12109,0.40889 0.0633,0.46772 1.46571,0.46772 2.18843,0 2.71827,0.26356 3.60418,1.79283 0.69475,1.19927 0.98459,1.41803 3.26459,2.46389 l 2.50215,1.14776 4.58262,-1.3783 c 2.52044,-0.75807 4.70356,-1.338 4.85137,-1.28872 0.56644,0.18881 -2.75819,2.3635 -6.36544,4.16374 l -3.76574,1.87934 -3.45053,-0.77027 -3.45053,-0.77028 -5.87993,0.63723 c -3.23397,0.35047 -7.91554,0.71241 -10.4035,0.80431 l -4.52357,0.16707 -2.15817,-2.14524 -2.15817,-2.14524 -3.40034,-0.25652 -3.40035,-0.25652 -7.29043,3.85259 c -4.00975,2.11892 -7.44557,3.85475 -7.63518,3.85739 -0.1896,0.003 -0.79218,-0.22347 -1.33907,-0.50247 -0.9897,-0.50491 -1.00868,-0.5041 -4.06521,0.173 -1.68898,0.37415 -3.14333,0.79126 -3.23188,0.92693 -0.0885,0.13567 -0.30611,1.05866 -0.48347,2.05111 l -0.32247,1.80443 -5.03116,1.91858 c -2.76714,1.05522 -5.19555,1.91291 -5.39646,1.90598 -0.20091,-0.007 -1.13369,-0.57124 -2.07283,-1.25401 z"
     id="path6949" />
  <path
     inkscape:connector-curvature="0"
     style="display:inline;fill:#ffff00;fill-opacity:1;stroke:none;stroke-width:1.51522887;stroke-miterlimit:4;stroke-dasharray:none;stroke-dashoffset:0;stroke-opacity:1"
     d="m 148.25445,124.86663 c -4.30313,-2.25034 -4.87767,-2.48525 -4.87767,-1.99434 0,0.30606 -0.0902,0.55495 -0.20045,0.5531 -0.34102,-0.006 -3.54132,-5.69717 -3.54132,-6.29792 0,-0.52095 0.29745,-0.6155 3.67496,-1.16821 2.62271,-0.42919 4.30779,-0.8714 5.88514,-1.54439 1.2156,-0.51865 2.2723,-1.0435 2.34822,-1.16634 0.0759,-0.12284 -0.28836,-1.62987 -0.80951,-3.34897 -0.52114,-1.7191 -0.91635,-3.15155 -0.87823,-3.18322 0.42519,-0.3533 1.87846,-0.91448 2.06679,-0.79808 0.13449,0.0831 1.00836,1.4422 1.94193,3.02018 1.23612,2.08939 1.90268,3.59242 2.4528,5.53096 0.78023,2.74933 0.88904,3.07462 2.24717,6.71797 l 0.80838,2.16857 -2.18483,0.59678 c -1.20165,0.32823 -2.32017,0.70771 -2.4856,0.8433 -0.16542,0.13558 -0.45166,0.78544 -0.63609,1.44414 -0.18442,0.6587 -0.47002,1.19305 -0.63467,1.18745 -0.16464,-0.006 -2.4943,-1.15804 -5.17702,-2.56098 z"
     id="path6951" />
  <path
     inkscape:connector-curvature="0"
     style="display:inline;fill:#ffff00;fill-opacity:1;stroke:none;stroke-width:1.51522887;stroke-miterlimit:4;stroke-dasharray:none;stroke-dashoffset:0;stroke-opacity:1"
     d="m 169.57134,145.07759 c -0.009,-1.71984 -0.21053,-3.68588 -0.52024,-5.07812 -0.47988,-2.15721 -0.48584,-2.5538 -0.11808,-7.86278 l 0.38729,-5.59099 -1.19129,-1.79154 -1.19129,-1.79153 2.06008,-0.44511 c 1.13305,-0.24481 2.31956,-0.51296 2.6367,-0.59589 0.51461,-0.13457 0.78022,0.25566 2.47006,3.6289 l 1.89345,3.77968 0.86145,-0.14463 c 2.17586,-0.3653 4.31032,-0.65979 4.36754,-0.60257 0.0346,0.0346 0.50158,1.80562 1.03774,3.93561 0.53615,2.12999 1.33058,5.18181 1.76539,6.78183 0.43481,1.60002 0.75013,2.94955 0.70073,2.99896 -0.0494,0.0494 -1.69188,-1.65562 -3.64993,-3.78895 -1.95805,-2.13333 -3.64776,-3.84368 -3.75492,-3.80077 -0.26715,0.10698 -4.82408,5.34618 -4.99248,5.73996 -0.0745,0.17411 0.35555,1.03947 0.95556,1.92304 0.60002,0.88357 1.09095,1.67567 1.09095,1.76022 0,0.0845 -0.45102,-0.0738 -1.00226,-0.35195 -2.13523,-1.0773 -2.10011,-1.09297 -2.63507,1.17621 -0.79722,3.38161 -1.15392,3.41828 -1.17138,0.12042 z"
     id="path6953" />
  <path
     inkscape:connector-curvature="0"
     style="display:inline;fill:#ffff00;fill-opacity:1;stroke:none;stroke-width:1.51522887;stroke-miterlimit:4;stroke-dasharray:none;stroke-dashoffset:0;stroke-opacity:1"
     d="m 153.17439,163.38378 c -1.59373,-1.23644 -3.90781,-2.79423 -5.1424,-3.46176 l -2.2447,-1.21369 h -3.07614 -3.07614 v -0.87922 c 0,-0.85478 0.0985,-0.93178 3.54132,-2.76941 1.94773,-1.0396 4.5264,-2.21497 5.73039,-2.61193 l 2.18907,-0.72175 2.22088,0.70097 c 1.22148,0.38554 3.03226,1.16845 4.02396,1.7398 0.9917,0.57136 2.52515,1.24143 3.40768,1.48906 1.11252,0.31215 1.60525,0.58286 1.60669,0.88273 0.001,0.23788 -0.25445,2.3118 -0.56797,4.60873 l -0.57005,4.17622 -1.36973,0.16458 c -3.3432,0.4017 -3.51076,0.34886 -6.67286,-2.10433 z"
     id="path6955" />
  <path
     inkscape:connector-curvature="0"
     style="display:inline;fill:#ffff00;fill-opacity:1;stroke:none;stroke-width:1.51522887;stroke-miterlimit:4;stroke-dasharray:none;stroke-dashoffset:0;stroke-opacity:1"
     d="m 223.2833,163.66758 c -0.89495,-0.79854 -2.61252,-2.02192 -3.81683,-2.71861 -1.20431,-0.69669 -2.21833,-1.28399 -2.25338,-1.30512 -0.035,-0.0211 0.0759,-0.996 0.24645,-2.16638 l 0.31015,-2.12797 -1.58223,-4.35659 -1.58223,-4.35659 -1.9358,-1.4827 c -1.8713,-1.4333 -1.93141,-1.51492 -1.80416,-2.4498 0.33124,-2.4336 0.63573,-6.01038 0.52668,-6.18683 -0.19072,-0.30858 -6.29643,-4.06964 -6.41469,-3.95138 -0.0585,0.0585 -0.58958,2.3263 -1.18025,5.03961 -1.06464,4.89054 -1.07088,4.95218 -0.72081,7.11003 l 0.35313,2.17672 -1.6375,1.80661 -1.63749,1.80661 -1.33925,-3.02959 -1.33924,-3.02958 1.29103,-4.7682 1.29104,-4.76819 -1.98878,-3.6691 c -1.7948,-3.31124 -6.58384,-13.68521 -6.58384,-14.26184 0,-0.60564 11.1524,-17.81443 12.41201,-19.15245 0.18198,-0.19331 3.38673,-0.85855 7.27387,-1.50992 l 6.94856,-1.16436 3.58757,-2.22239 c 1.97317,-1.22232 5.73904,-3.3233 8.3686,-4.66884 l 4.78102,-2.44644 3.50434,2.01545 c 1.92738,1.10849 5.3378,2.89108 7.57871,3.96131 l 4.07437,1.94588 3.60963,-2.38919 c 4.19823,-2.77879 3.78067,-1.63982 3.32832,-9.07849 -0.2801,-4.60606 -0.27457,-4.70772 0.36372,-6.68174 0.62791,-1.9419 0.65847,-1.98264 0.97817,-1.30416 0.32558,0.69097 0.37891,0.70276 3.97784,0.87907 4.01179,0.19654 9.78384,1.31588 9.58289,1.85835 -0.77785,2.09977 -0.79278,2.97268 -0.10327,6.04411 0.37827,1.68507 0.65079,3.10075 0.60558,3.14596 -0.0452,0.0452 -0.93488,-0.32644 -1.97708,-0.82589 -1.65425,-0.79279 -6.00358,-1.81232 -6.31168,-1.47954 -0.0515,0.0556 -1.61684,3.14993 -3.47859,6.87629 l -3.385,6.77521 1.9929,-1.10011 1.99291,-1.10011 0.91602,1.27391 c 3.19142,4.43833 3.15055,4.35316 3.97,8.27229 0.4246,2.03082 0.77351,3.70801 0.77531,3.72709 0.003,0.0191 -1.33946,-0.029 -2.9806,-0.10675 -2.48594,-0.11783 -2.96079,-0.079 -2.84552,0.23259 0.0761,0.20571 0.46855,1.37228 0.87213,2.59239 l 0.73379,2.21837 -0.76141,1.8637 c -1.08674,2.66004 -2.40845,3.87506 -5.37044,4.93694 l -2.33997,0.8389 -0.55673,2.24721 c -0.79207,3.19719 -0.73132,3.09564 -1.32632,2.21689 -0.438,-0.64687 -0.54396,-1.38558 -0.65601,-4.57339 l -0.13363,-3.8019 -2.48475,1.59693 c -1.36662,0.87831 -2.52292,1.59693 -2.56957,1.59693 -0.0466,0 -0.30205,-0.57129 -0.56754,-1.26953 -0.2655,-0.69824 -1.11819,-2.05772 -1.89485,-3.02105 l -1.41212,-1.75153 0.39766,-3.9723 c 0.21871,-2.18477 0.30336,-4.05475 0.1881,-4.15551 -0.11526,-0.10077 -1.59268,-0.75494 -3.28316,-1.45371 -1.69048,-0.69878 -3.10208,-1.29638 -3.1369,-1.328 -0.0348,-0.0316 -0.25009,-1.07136 -0.47839,-2.31053 -0.2283,-1.23917 -0.46768,-2.40606 -0.53196,-2.59309 -0.0758,-0.22063 -0.96701,0.27503 -2.53748,1.4113 -2.0277,1.46708 -2.75537,1.8314 -4.48287,2.24439 l -2.06224,0.49302 -1.73725,-1.22276 c -0.95549,-0.67251 -2.45288,-1.73994 -3.32753,-2.37205 -1.56611,-1.13183 -1.62363,-1.14929 -3.78532,-1.14929 h -2.19505 l -2.22824,3.26115 c -1.22553,1.79364 -2.31667,3.40345 -2.42474,3.57735 -0.10808,0.1739 0.32866,2.11838 0.97051,4.32105 0.99173,3.40333 1.37737,4.31659 2.56749,6.08027 l 1.40047,2.07541 -0.43915,0.9209 -0.43914,0.92089 -1.55893,-1.35052 c -1.51671,-1.31395 -1.5636,-1.39521 -1.73139,-3.00054 -0.0949,-0.9075 -0.1743,-2.14352 -0.17655,-2.7467 -0.007,-1.86627 -0.17097,-1.88604 -2.9337,-0.35366 l -2.51527,1.39513 -0.80149,1.94576 -0.80148,1.94577 2.52576,2.53112 2.52575,2.53112 1.61621,6.61351 1.61621,6.61351 4.2952,1.02969 4.29519,1.0297 0.16898,1.61668 c 0.0929,0.88917 0.16897,2.26053 0.16897,3.04745 0,0.78693 0.0565,1.43078 0.12555,1.43078 0.069,0 1.42034,-0.19236 3.00287,-0.42747 l 2.87732,-0.42746 0.74815,0.89519 c 0.41148,0.49235 1.06003,1.34477 1.44123,1.89427 l 0.69307,0.99908 -0.67507,0.8718 c -1.11057,1.43422 -1.72705,2.00598 -3.35427,3.11101 l -1.54946,1.05221 -2.32287,-0.47465 -2.32286,-0.47464 v 1.6605 c 0,0.91329 0.0775,2.9274 0.17225,4.47582 l 0.17226,2.8153 2.03272,-0.63736 c 3.46569,-1.08666 3.0994,-1.15852 3.73833,0.73343 0.3114,0.9221 0.56617,2.23857 0.56617,2.92549 0,1.15938 -0.0761,1.29927 -1.06083,1.95096 l -1.06084,0.70203 z"
     id="path6957" />
</svg>
