<?xml version="1.0" encoding="UTF-8" standalone="no"?>
<svg
   xmlns:dc="http://purl.org/dc/elements/1.1/"
   xmlns:cc="http://creativecommons.org/ns#"
   xmlns:rdf="http://www.w3.org/1999/02/22-rdf-syntax-ns#"
   xmlns:svg="http://www.w3.org/2000/svg"
   xmlns="http://www.w3.org/2000/svg"
   id="svg5857"
   version="1.1"
   viewBox="0 0 279.4 215.9"
   height="8.5in"
   width="11in">
  <defs
     id="defs5851" />
  <metadata
     id="metadata5854">
    <rdf:RDF>
      <cc:Work
         rdf:about="">
        <dc:format>image/svg+xml</dc:format>
        <dc:type
           rdf:resource="http://purl.org/dc/dcmitype/StillImage" />
        <dc:title></dc:title>
      </cc:Work>
    </rdf:RDF>
  </metadata>
  <g
     transform="translate(0,-81.1)"
     id="layer1">
    <path
       id="rect6820"
       d="M 1.1339979,82.687574 V 298.13385 H 280.08028 V 82.687574 Z m 165.8482621,9.675895 4.60386,3.942395 h 7.88479 l 9.73635,0.52917 6.56188,-0.52917 -5.87406,7.461036 -3.41271,3.54552 h -2.30219 l -0.29094,5.47719 4.02146,-1.19062 0.34417,-1.93167 5.50354,-1.56115 1.82521,-2.03708 3.6251,-6.720517 1.82573,-0.39688 1.45521,1.587497 2.56625,-1.587497 1.45521,1.587497 -2.06396,4.25969 2.805,-0.68781 2.98948,2.80448 -0.21136,3.43958 2.27532,1.48157 3.73052,-2.16938 0.84646,1.93167 v 3.20135 l -1.00511,4.10104 3.51865,0.23823 1.90531,3.04271 4.33927,2.11667 13.14959,-3.9424 2.88406,-1.61385 1.11104,2.80448 -8.78396,7.11739 -5.10667,4.7625 -11.72073,5.1325 -5.47718,3.96875 -2.16938,3.54552 -4.84208,3.20136 h -3.65094 l -6.90604,-9.15448 -6.58771,1.24385 -2.51354,-1.64073 -1.13792,2.43448 0.7674,4.3124 2.16937,1.16427 0.71469,3.57187 -3.36052,-0.79375 -0.29094,-2.32854 -3.33364,-2.01073 -5.42396,0.7674 -1.85208,2.43396 -8.96948,1.87895 4.20698,2.43396 13.46739,9.31313 3.04271,2.16989 -0.84698,3.96875 2.30219,1.95802 -2.59313,5.18573 2.93677,-0.84697 3.65146,-7.43469 5.05344,-4.9475 1.87844,-5.37125 2.61948,-0.0791 3.59823,2.43396 h 7.35562 l 1.03198,2.64584 -1.03198,4.84208 2.51354,3.20135 1.82573,-5.15937 5.87354,-3.14865 -5.87354,-9.10177 5.87354,-4.73614 5.90042,-1.64021 -0.39688,-4.31292 10.76834,-7.59333 0.60875,2.43396 2.64583,0.55604 -2.64583,5.00021 4.97385,1.29656 1.11156,7.77885 -2.48718,3.22771 2.19573,4.26021 2.51354,-3.09594 2.24896,7.48792 2.19625,-0.37052 -0.34417,-8.78396 3.88969,-10.23969 3.73052,3.14865 -0.23823,4.41833 1.34927,3.175 7.27603,0.39688 6.56188,1.56114 -1.11104,3.91604 1.82521,7.9375 -5.60896,-2.61947 -3.54552,-0.58188 -5.3976,10.68875 2.24896,-1.29604 4.65708,6.69365 2.24896,10.84791 -1.87897,-2.14302 -4.39197,-0.23823 1.45521,4.33927 -1.82573,4.36563 -2.51354,2.35489 -4.39198,1.53428 -1.50792,6.77374 -2.48718,-3.57187 v -6.32365 l -4.84209,3.12178 -1.37562,-3.4923 -2.93677,-3.59823 0.74052,-7.88479 -6.50865,-2.75177 -0.84646,-4.36562 -3.9951,2.83135 -4.70979,1.11104 -6.58823,-4.7625 h -3.73052 l -4.33927,6.35 2.16989,7.51427 3.01584,4.36563 -1.56063,3.54552 -4.33927,-3.9424 -0.39687,-5.13302 -3.73053,1.95802 -1.32291,3.12229 4.78885,4.84157 3.175,12.99094 8.75761,2.11666 0.37052,5.76813 5.52989,-0.79375 3.62459,4.7625 -2.77813,3.30729 -3.73052,2.61948 -4.07469,-0.79375 0.26459,6.72052 4.89479,-1.5875 1.45521,3.96875 v 3.57187 l -3.01636,1.9575 -3.59823,-3.20135 -5.00073,-2.96313 0.68782,-4.52427 -3.01584,-8.28166 -3.99562,-3.14865 0.71469,-7.11739 -5.05344,-3.20136 -1.90531,8.7049 0.71468,4.7625 -4.47156,4.84208 -2.11667,2.27531 -5.08031,-5.15937 -7.64604,-9.47229 1.45521,4.7625 h -1.11156 l -7.96386,-8.65167 -4.18062,4.81521 2.27583,3.43958 v 1.56115 l -3.6251,-1.56115 -0.9524,3.8101 -2.4076,1.69344 -2.1699,1.19063 -2.16937,-2.75177 0.47645,-5.74126 -1.5875,-4.92166 h -2.51354 v -3.57187 l -3.41323,-3.175 -3.04271,-1.74615 -10.00145,-5.18573 -0.37052,2.56625 -4.7625,-7.85792 -0.42323,-2.53989 -0.68782,-4.18063 -2.88406,-1.98437 -3.43958,3.46594 -8.59896,-1.48157 -0.39688,1.56115 h -3.70416 l -1.48156,1.95802 -4.33928,-1.19063 -8.46666,3.20136 -9.048538,2.35489 -2.59313,-1.56114 v -2.80448 h -7.672906 l -3.14865,-2.59313 -4.3124,-1.34927 -2.77812,-6.29729 -1.79938,-0.39687 -1.05833,-3.59823 -2.93677,3.25458 4.78885,4.36562 -9.20718,1.11105 -4.736149,3.94239 -6.614583,-3.54552 h -2.222603 l -5.397606,-3.57187 1.825731,-5.95313 -3.624586,-5.47667 -6.35,-5.10666 5.820834,-5.00073 9.94823,-0.60823 4.841563,-3.54552 6.138649,-11.50938 10.95385,-4.73614 9.86865,-15.0549 h 2.936766 l 3.65146,1.2175 -0.71417,6.72 1.79885,-1.19062 5.5299,-1.53427 2.169368,-2.01073 -0.39687,-6.74688 5.45083,-2.77812 7.3551,-1.95802 1.79938,-1.98438 1.85208,-3.59823 5.87354,-1.95802 3.28094,-1.64073 -1.37562,-3.25406 4.25968,-2.5399 h 7.9375 l 2.61948,2.83084 1.45521,0.6351 5.50302,-5.34489 4.36563,-0.63459 4.92114,0.63459 2.43448,-6.984587 3.78323,-4.418852 z m 64.4524,95.250001 h 2.56677 l 1.48156,8.67854 4.36563,4.36562 v 3.96875 h -9.86917 l -1.08469,-1.64072 -0.34364,-6.69365 -0.74104,-3.14865 z m -105.62146,8.67854 8.06979,2.80448 2.91042,6.69416 -1.82573,7.14375 -7.40833,1.95751 -1.03198,-8.70438 -3.59823,-5.15938 v -3.12229 z m -19.42052,6.69365 2.59313,1.79937 2.56625,2.99 -1.42886,3.94188 -0.74052,4.36562 -1.90531,-1.64021 -6.87917,-0.71417 -0.44958,4.25969 -0.396868,3.62459 -7.9375,-1.19063 v 6.72052 l 4.4452,-1.93166 -2.14354,6.50916 0.60875,12.38219 h -6.905516 l -4.10104,-1.61386 5.556246,7.9375 -6.932396,5.5299 10.556976,7.14375 -6.931866,5.52989 -8.54625,3.99511 -0.60823,-3.57188 v -11.1125 H 60.434772 l -8.096147,6.72052 h -3.228229 l -1.48156,2.40761 4.709789,1.19062 v 3.09542 l -4.33927,2.91042 -6.006353,0.50281 -5.714897,-5.7149 -0.740521,-3.57187 -3.995624,1.19062 -4.788854,3.51865 -6.82594,5.90042 -5.953125,2.19625 -3.386873,-3.96875 -0.8733321,-12.01219 0.8733321,-2.80448 h 4.682918 v -5.02708 l 3.54552,-0.95292 v -3.175 l -2.884062,-2.27531 7.646562,-6.19135 0.31781,-0.87282 4.286045,-0.79375 3.359999,-3.59823 3.995624,-6.74687 h 8.810312 l 4.7625,0.42323 3.228229,3.54552 4.815211,-1.95802 10.90062,-6.29729 6.9324,1.56114 3.28094,-5.52989 4.07416,-0.79375 1.48209,-2.67219 1.82521,-3.25458 8.361236,-6.72001 1.48157,3.54501 z m 71.62302,27.30531 8.81031,3.175 2.88407,3.14864 2.96312,-0.76739 3.62511,1.56114 3.65093,6.69365 3.67782,2.80448 v 5.15937 l -2.91042,3.54552 1.77302,4.73615 2.19573,4.31291 -2.19573,0.82011 3.30729,9.49864 -5.84771,1.19063 -1.48156,-2.01125 -3.59823,-3.175 -0.0527,-5.31802 -1.48208,-5.87354 -3.20135,-2.64584 -2.75177,2.27532 2.75177,0.92604 v 3.91604 l -1.87844,0.39687 -3.22771,3.96875 3.22771,5.13251 -1.42886,3.57187 1.82573,3.57188 -5.52989,1.19062 -0.7674,-7.9375 1.53479,-1.16375 -1.29656,-2.46083 -4.92114,2.46083 -2.16938,-1.2175 2.16938,-2.7249 -3.28094,-1.98437 2.16989,-3.175 -1.05833,-2.77813 -4.07469,-0.76739 0.52917,-4.31292 -5.95313,3.91604 -1.82572,2.75177 h -1.11105 l -1.82573,-6.35 -4.10104,-2.32854 -7.59385,-0.37052 -3.22771,-1.5875 -2.59312,-6.32312 -2.22209,-3.96875 -2.93729,-1.16427 0.39688,-3.20136 7.35562,-3.94239 4.68292,-1.5875 5.05395,1.5875 3.36001,1.98437 4.04833,1.16427 h 6.16448 l 4.33927,-3.94239 z m -42.17469,28.38999 3.06907,1.24334 1.95802,5.82083 3.88916,4.25969 3.3073,-1.37563 v 3.14813 l -3.3073,2.38125 11.19209,-0.42323 2.32802,1.24385 -5.39709,3.78324 -1.87895,2.53989 2.93729,6.29729 -3.73104,-0.0527 -12.43542,0.87282 1.53479,-4.39198 V 268.6292 l -4.60385,0.10594 0.97927,-3.25458 z"
       style="display:inline;fill:#0000ff;fill-opacity:1;stroke:none;stroke-width:1;stroke-miterlimit:4;stroke-dasharray:none;stroke-dashoffset:0;stroke-opacity:1" />
    <path
       id="path6931"
       d="m 13.144336,275.83187 c -1.697614,-1.93348 -1.807621,-2.36722 -2.115383,-8.34056 -0.360085,-6.98889 -0.377094,-6.9445 2.660733,-6.9445 h 2.414815 l 0.111053,-2.72344 0.111053,-2.72345 1.700893,-0.41125 1.700893,-0.41125 0.119826,-2.06247 c 0.112178,-1.93084 0.04087,-2.12869 -1.117132,-3.09981 -0.74911,-0.62822 -1.094511,-1.16476 -0.875779,-1.36043 0.198649,-0.17769 1.764417,-1.46957 3.479484,-2.87084 1.715067,-1.40126 3.118303,-2.68298 3.118303,-2.84826 0,-0.16528 0.90804,-0.41396 2.017865,-0.55262 1.754265,-0.21918 2.245557,-0.4841 3.760831,-2.02793 0.958633,-0.97669 2.666717,-3.30661 3.795741,-5.17759 l 2.052776,-3.40179 6.17911,0.0495 6.179109,0.0494 1.834652,1.99527 1.83465,1.99526 2.892505,-1.20734 c 1.590876,-0.66404 5.223229,-2.56148 8.0719,-4.21653 l 5.179402,-3.00919 3.27843,0.77862 c 1.80313,0.42825 3.48532,0.69924 3.73818,0.6022 0.25287,-0.097 1.17273,-1.37653 2.04414,-2.84332 1.41643,-2.38421 1.73381,-2.6921 2.99424,-2.9046 2.45715,-0.41428 2.76214,-0.58559 3.39127,-1.90489 l 0.61545,-1.29062 h 7.300526 c 7.04854,0 7.30053,0.0261 7.30053,0.75595 0,0.86947 -0.19896,0.89232 -3.23787,0.37182 -1.23353,-0.21127 -2.79558,-0.47411 -3.47121,-0.58409 l -1.22842,-0.19996 v 4.55285 c 0,2.50406 0.0793,4.55284 0.17616,4.55284 0.0969,0 0.77511,-0.28562 1.50716,-0.63471 0.73205,-0.34909 1.43551,-0.5302 1.56324,-0.40246 0.12774,0.12773 -0.0548,1.09647 -0.40564,2.15274 -0.54312,1.63518 -0.59747,2.78998 -0.36581,7.773 l 0.27208,5.8525 h -2.87566 c -2.30886,0 -3.438286,-0.2235 -5.730156,-1.13393 -1.56997,-0.62366 -3.02856,-1.13393 -3.2413,-1.13393 -0.21274,0 0.85474,1.78802 2.37219,3.97337 1.51744,2.18535 2.97862,4.2908 3.24707,4.67878 0.441666,0.63833 0.16315,0.96452 -2.92931,3.43064 -1.87958,1.49888 -3.4174,2.84918 -3.4174,3.00068 0,0.15149 2.21116,1.78335 4.91369,3.62635 2.702526,1.84301 4.913686,3.46322 4.913686,3.60047 0,0.13726 -1.23315,1.23201 -2.74033,2.43279 -2.624116,2.09065 -9.603796,5.74905 -10.074356,5.28048 -0.12402,-0.12349 -0.27875,-3.27239 -0.34384,-6.99755 l -0.11836,-6.77303 -8.95307,0.0168 -8.953077,0.0168 -3.779761,3.18962 c -3.54843,2.9944 -3.887231,3.19001 -5.535744,3.196 -1.695331,0.006 -1.798638,0.0728 -2.9907,1.9305 -1.408766,2.19537 -1.367625,2.2649 1.753413,2.96336 1.85946,0.41612 2.047428,0.55173 2.03858,1.47072 -0.01561,1.61977 -2.892645,3.32026 -6.182299,3.65406 l -2.601275,0.26395 -2.757353,-2.73895 c -2.468745,-2.45227 -2.783721,-2.93067 -3.009283,-4.57072 -0.138565,-1.00748 -0.376095,-1.90851 -0.527844,-2.0023 -0.151749,-0.0938 -1.351825,0.16434 -2.666833,0.57362 -2.698229,0.83978 -5.655818,2.83061 -10.673587,7.18467 -2.158292,1.87281 -4.156536,3.25575 -5.364922,3.71295 -1.059083,0.40071 -2.198132,0.83682 -2.531219,0.96912 -0.407335,0.1618 -1.003433,-0.21254 -1.820706,-1.14336 z"
       style="display:inline;fill:#ff0000;fill-opacity:1;stroke:none;stroke-width:2.14285707;stroke-miterlimit:4;stroke-dasharray:none;stroke-dashoffset:0;stroke-opacity:1" />
    <path
       id="path6933"
       d="m 103.45011,179.52367 c 0,-1.9459 -0.10816,-4.32715 -0.24036,-5.29166 l -0.24037,-1.75365 H 91.726282 80.483186 l -5.43097,-2.67894 c -5.83507,-2.87827 -14.972732,-7.82023 -15.230378,-8.23711 -0.08653,-0.14001 1.0624,-2.53589 2.553185,-5.32418 l 2.710513,-5.0696 5.48066,-2.39685 5.48065,-2.39685 4.80558,-7.35895 c 4.57228,-7.00169 4.86375,-7.35895 6.00377,-7.35895 0.659,0 1.813626,0.18439 2.565836,0.40976 l 1.36765,0.40976 -0.34483,3.56152 c -0.18966,1.95884 -0.24237,3.66398 -0.11714,3.78921 0.12523,0.12524 0.76726,-0.15651 1.42673,-0.6261 0.65948,-0.46958 2.57495,-1.25381 4.25661,-1.74271 2.18845,-0.63625 3.41765,-1.23794 4.324358,-2.11675 l 1.26679,-1.22783 -0.24596,-3.2128 -0.24595,-3.21281 2.77631,-1.36527 c 1.52697,-0.7509 4.30711,-1.75222 6.17809,-2.22516 3.74825,-0.94747 4.70167,-1.6807 6.40017,-4.92207 0.83579,-1.59501 1.08065,-1.7682 3.67325,-2.5981 1.52778,-0.48905 3.42427,-1.21619 4.21444,-1.61587 1.4189,-0.71771 1.44912,-0.71761 2.44483,0.008 0.94587,0.68902 1.16406,1.49721 3.53122,13.08037 1.38768,6.79029 2.61504,12.43796 2.72746,12.55038 0.11242,0.11242 3.27781,-0.15493 7.03421,-0.59413 l 6.82981,-0.79853 1.49188,0.98728 1.49188,0.98728 -3.17578,3.94777 c -1.74668,2.17127 -3.10278,4.15278 -3.01355,4.40335 0.37967,1.0662 5.09274,18.62938 5.09274,18.978 0,0.21073 -1.9135,0.86869 -4.25223,1.46214 -7.92715,2.01149 -25.18345,7.36927 -32.96625,10.23545 -4.26074,1.5691 -7.83497,2.85291 -7.94273,2.85291 -0.10776,0 -0.19593,-1.59211 -0.19593,-3.53802 z"
       style="display:inline;fill:#ff0000;fill-opacity:1;stroke:none;stroke-width:2.14285707;stroke-miterlimit:4;stroke-dasharray:none;stroke-dashoffset:0;stroke-opacity:1" />
    <path
       id="path6935"
       d="m 128.27309,212.82732 c -0.11298,-0.46775 -0.31952,-2.12612 -0.459,-3.68527 -0.22791,-2.54773 -0.44093,-3.12413 -2.10343,-5.69155 -2.24193,-3.46225 -2.4317,-4.93703 -0.72617,-5.64348 0.99314,-0.41138 1.53656,-0.31953 4.6785,0.79077 l 3.55485,1.25621 1.30518,3.02521 1.30517,3.02522 -0.74897,3.03622 c -0.41193,1.66992 -0.79305,3.09176 -0.84693,3.15964 -0.0707,0.089 -5.25034,1.51654 -5.70028,1.571 -0.0294,0.004 -0.14595,-0.37623 -0.25892,-0.84397 z"
       style="display:inline;fill:#ff0000;fill-opacity:1;stroke:none;stroke-width:2.14285707;stroke-miterlimit:4;stroke-dasharray:none;stroke-dashoffset:0;stroke-opacity:1" />
    <path
       id="path6937"
       d="m 160.07447,201.10596 c -0.55935,-1.50493 -1.39291,-4.02575 -1.85236,-5.60183 l -0.83536,-2.8656 5.26876,-7.46526 5.26875,-7.46526 -0.4651,-4.41021 c -0.70795,-6.71303 -0.87815,-6.11111 1.72798,-6.11111 1.97131,0 5.68185,-0.94142 11.76273,-2.98439 0.74377,-0.24989 1.19378,-0.13564 2.001,0.50801 1.00359,0.80023 1.02655,0.89675 0.63212,2.6568 -0.38975,1.73913 -0.35969,1.87818 0.62908,2.91023 l 1.03838,1.08384 -1.42044,2.87066 c -0.78124,1.57886 -1.34221,2.94889 -1.24659,3.04451 0.0956,0.0956 1.22108,-0.11999 2.50102,-0.47912 l 2.32718,-0.65297 2.02195,-4.00632 c 1.58302,-3.1366 2.56117,-4.53631 4.50584,-6.44779 2.03704,-2.00227 2.62622,-2.86923 3.27513,-4.81919 0.683,-2.05244 0.91742,-2.37772 1.71348,-2.37772 0.50723,0 1.61684,0.45967 2.46581,1.0215 l 1.54359,1.0215 -0.13428,8.33687 -0.13428,8.33687 -4.76742,7.17809 c -2.62208,3.94795 -5.5136,8.41123 -6.42559,9.91839 -0.912,1.50717 -1.91331,2.81947 -2.22514,2.91622 -0.31183,0.0967 -5.92478,1.36539 -12.47322,2.8192 -6.54843,1.45381 -12.75669,2.90362 -13.79613,3.22181 -1.03943,0.31818 -1.88988,0.57851 -1.88988,0.57851 0,-1e-5 -0.45765,-1.23131 -1.01701,-2.73624 z"
       style="display:inline;fill:#ff0000;fill-opacity:1;stroke:none;stroke-width:2.14285707;stroke-miterlimit:4;stroke-dasharray:none;stroke-dashoffset:0;stroke-opacity:1" />
    <path
       id="path6939"
       d="m 195.4052,231.72483 c -1.27907,-1.29858 -3.93732,-4.38483 -5.90724,-6.85833 l -3.58167,-4.49727 -1.14845,-4.38517 c -1.8777,-7.16964 -1.85619,-6.42428 -0.1804,-6.25088 0.79776,0.0825 3.44309,0.25485 5.87853,0.3829 l 4.42805,0.23283 1.57826,2.89285 1.57827,2.89285 -1.23812,4.826 -1.23811,4.82599 1.59814,3.62973 c 1.35629,3.08044 1.51946,3.7084 1.07822,4.14964 -0.44124,0.44124 -0.87184,0.16262 -2.84548,-1.84114 z"
       style="display:inline;fill:#ff0000;fill-opacity:1;stroke:none;stroke-width:2.14285707;stroke-miterlimit:4;stroke-dasharray:none;stroke-dashoffset:0;stroke-opacity:1" />
    <path
       id="path6941"
       d="m 165.86019,229.71186 c -0.63377,-0.80572 -0.70987,-1.3355 -0.53118,-3.69813 0.16675,-2.20483 0.036,-3.3389 -0.65214,-5.65694 -0.81208,-2.73551 -0.92163,-2.89926 -1.93956,-2.89926 -0.89881,0 -1.07887,-0.15771 -1.07887,-0.94494 0,-0.91779 0.0759,-0.94494 2.64135,-0.94494 h 2.64135 l -0.007,2.36235 c -0.004,1.29929 0.16423,3.04271 0.37344,3.87425 0.20922,0.83155 0.38446,3.06704 0.38942,4.96775 0.0101,3.85676 -0.48826,4.65432 -1.83685,2.93986 z"
       style="display:inline;fill:#ff0000;fill-opacity:1;stroke:none;stroke-width:2.14285707;stroke-miterlimit:4;stroke-dasharray:none;stroke-dashoffset:0;stroke-opacity:1" />
    <path
       id="path6943"
       d="m 183.78143,278.76964 c -0.1256,-1.18736 -0.2999,-2.61175 -0.38731,-3.16531 -0.11911,-0.75421 0.0723,-1.15799 0.76361,-1.61096 l 0.92255,-0.60448 -1.00361,-2.04633 -1.00361,-2.04632 -2.57138,1.29493 c -3.59005,1.80792 -4.24451,1.66455 -2.40127,-0.52602 0.51972,-0.61765 0.94494,-1.18704 0.94494,-1.26532 0,-0.0783 -0.74823,-0.55106 -1.66274,-1.05063 l -1.66274,-0.90831 0.95514,-1.44331 0.95515,-1.44333 -0.73459,-1.79821 c -0.68933,-1.68742 -0.84625,-1.82007 -2.54703,-2.15286 l -1.81244,-0.35465 0.2537,-2.57467 c 0.13954,-1.41607 0.16612,-2.57467 0.0591,-2.57467 -0.76388,0 -7.82849,5.09125 -8.4829,6.11336 -0.4427,0.69145 -0.80777,1.02845 -0.81128,0.74889 -0.004,-0.27956 -0.36114,-1.67632 -0.79476,-3.10392 -0.77451,-2.54988 -0.82947,-2.61838 -3.11831,-3.88682 -2.10661,-1.16746 -2.69214,-1.30878 -6.10966,-1.47462 -5.33892,-0.25909 -6.24248,-0.76186 -7.5698,-4.21211 -0.569,-1.47908 -1.52235,-3.56039 -2.11854,-4.62513 -0.59619,-1.06474 -1.08398,-2.04276 -1.08398,-2.17336 0,-0.13061 0.51592,-0.23748 1.14649,-0.23748 1.59171,0 4.40644,1.50718 8.45243,4.52596 l 3.44125,2.56757 4.53572,-0.34045 c 10.88181,-0.81677 19.49536,-0.90837 26.64732,-0.2834 l 6.99256,0.61105 3.96875,1.80389 c 2.18281,0.99215 4.00657,1.83223 4.05279,1.86685 0.0462,0.0346 -0.45384,0.71551 -1.11126,1.51308 l -1.19531,1.45012 0.88322,2.49758 c 0.48577,1.37366 1.29821,3.32889 1.80543,4.34494 0.93382,1.87063 0.79751,2.47694 -0.56062,2.49357 -0.6154,0.008 -0.69154,-0.3356 1.03944,4.68443 0.83155,2.41157 1.5119,4.53267 1.5119,4.71355 0,0.18088 -0.86692,0.48036 -1.92651,0.66551 l -1.9265,0.33665 -2.42022,-2.42535 -2.42022,-2.42535 v -2.40753 c 0,-1.32414 -0.35964,-3.84146 -0.7992,-5.59404 -0.77257,-3.08035 -0.86669,-3.23859 -2.82453,-4.74905 l -2.02532,-1.56253 -2.10517,1.79851 c -1.15784,0.98918 -1.9704,1.92123 -1.80568,2.07123 0.16471,0.15 0.93732,0.47655 1.7169,0.72567 1.26164,0.40318 1.41741,0.59061 1.41741,1.70558 0,0.9814 -0.18415,1.3006 -0.85045,1.47415 -0.46775,0.12184 -1.67475,1.26041 -2.68223,2.53016 l -1.83179,2.30863 1.10204,1.76305 c 0.60612,0.96968 1.33912,2.13832 1.62891,2.59699 0.45785,0.72469 0.43859,1.07943 -0.14707,2.7081 -0.63095,1.75463 -0.63405,1.95132 -0.0484,3.08375 0.70493,1.3632 0.51254,1.68201 -1.20884,2.00316 l -1.20303,0.22445 z"
       style="display:inline;fill:#ff0000;fill-opacity:1;stroke:none;stroke-width:2.14285707;stroke-miterlimit:4;stroke-dasharray:none;stroke-dashoffset:0;stroke-opacity:1" />
    <path
       id="path6945"
       d="m 139.24811,286.78095 c 0.10101,-0.33074 0.34966,-1.00692 0.55255,-1.50262 0.28625,-0.69936 0.36889,-2.75008 0.36889,-9.15398 v -8.25272 h -2.15617 c -2.115,0 -2.15248,-0.0115 -1.96326,-0.60135 0.48211,-1.50289 0.63262,-2.63683 0.63855,-4.81086 0.005,-1.74555 0.0951,-2.3386 0.3562,-2.3386 0.78461,0 1.29449,0.80189 2.17246,3.41663 0.87301,2.59996 1.04054,2.8772 3.10062,5.13121 l 2.17775,2.38276 1.31143,-0.51691 1.31143,-0.51692 v 0.66792 c 0,0.53396 -0.49439,1.02901 -2.46504,2.46834 -1.95881,1.43069 -2.34623,1.81754 -1.88651,1.88378 0.31819,0.0459 3.36221,-0.0366 6.7645,-0.18318 5.82414,-0.25095 6.94875,-0.21929 6.93633,0.19524 -0.003,0.0945 -0.94545,0.81148 -2.09471,1.59325 -1.82355,1.24044 -3.76675,3.28272 -4.20154,4.41576 -0.0719,0.18725 0.4102,1.47619 1.07122,2.86431 0.76858,1.61397 1.08491,2.54467 0.87742,2.58159 -0.59475,0.10582 -11.31825,0.87771 -12.19369,0.87771 -0.77026,0 -0.84253,-0.0641 -0.67843,-0.60136 z"
       style="display:inline;fill:#ffff00;fill-opacity:1;stroke:none;stroke-width:1.51522887;stroke-miterlimit:4;stroke-dasharray:none;stroke-dashoffset:0;stroke-opacity:1" />
    <path
       id="path6947"
       d="m 94.399642,198.98071 c -0.66419,-0.4118 -0.73499,-0.60419 -0.73499,-1.99741 v -1.54171 h -4.01834 -4.018336 l -1.58504,-1.26953 c -1.086,-0.86983 -2.2268,-1.47989 -3.62344,-1.9377 l -2.0384,-0.66818 -1.37542,-3.14025 c -1.29115,-2.94786 -1.42867,-3.15024 -2.24459,-3.30331 -0.80595,-0.15119 -0.90823,-0.29423 -1.4063,-1.96668 -0.29543,-0.992 -0.53715,-1.9339 -0.53715,-2.09313 0,-0.82402 -0.67456,-0.35306 -2.67396,1.86686 l -2.20384,2.44691 1.9601,1.78231 c 2.28346,2.07633 2.46623,1.89328 -2.42769,2.43145 l -3.0736,0.338 -2.170798,1.82118 c -1.19394,1.00165 -2.245815,1.82118 -2.337501,1.82118 -0.09169,0 -1.510353,-0.72162 -3.152593,-1.60361 -2.256919,-1.21212 -3.252843,-1.60362 -4.079345,-1.60362 -0.882418,0 -1.531462,-0.29104 -3.36287,-1.50799 -1.248178,-0.82939 -2.310199,-1.5417 -2.360049,-1.58289 -0.04985,-0.0412 0.297103,-1.33772 0.771009,-2.88115 l 0.86165,-2.80624 -1.823895,-2.86105 c -1.605357,-2.51825 -2.172674,-3.14973 -4.734843,-5.27035 -2.777942,-2.29922 -2.888591,-2.42975 -2.42162,-2.85673 0.269129,-0.24608 1.331227,-1.17446 2.360216,-2.06306 l 1.870884,-1.61565 3.207234,-0.1779 c 6.887808,-0.38205 6.618092,-0.31929 9.01732,-2.09821 2.503591,-1.8563 1.708068,-1.9794 7.286123,1.12742 2.057978,1.14623 6.657388,3.54061 10.220918,5.32084 l 6.47915,3.23679 h 10.652606 10.652598 l 0.17257,2.60588 c 0.0949,1.43323 0.17318,3.63753 0.17395,4.89845 l 0.001,2.29257 -3.340868,2.60471 c -1.83748,1.43259 -3.34087,2.73711 -3.34087,2.89894 0,0.16184 0.8419,1.1625 1.87089,2.2237 1.02899,1.0612 1.87089,2.07098 1.87089,2.24394 0,0.25716 -3.40573,5.37163 -3.56126,5.34803 -0.0258,-0.004 -0.37763,-0.21217 -0.78187,-0.46281 z"
       style="display:inline;fill:#ffff00;fill-opacity:1;stroke:none;stroke-width:1.51522887;stroke-miterlimit:4;stroke-dasharray:none;stroke-dashoffset:0;stroke-opacity:1" />
    <path
       id="path6949"
       d="m 149.28643,138.58292 -1.70754,-1.24141 -5.3751,0.60632 c -2.95631,0.33348 -5.92302,0.67024 -6.59269,0.74838 l -1.21759,0.14205 -2.50583,-12.27829 -2.50583,-12.27828 -1.49547,-0.93172 c -1.13659,-0.70814 -1.59755,-1.1916 -1.92084,-2.01462 l -0.42537,-1.08288 1.65882,-0.97037 1.65883,-0.97038 h 3.77015 3.77015 l 1.13743,1.32048 c 0.72334,0.83975 1.56635,1.48429 2.31559,1.77042 l 1.17816,0.44995 2.78014,-2.77268 2.78015,-2.77269 2.00984,-0.28542 c 1.51167,-0.21468 2.65375,-0.20051 4.60762,0.0572 1.42877,0.18845 2.67081,0.34696 2.76009,0.35225 0.0893,0.005 0.7246,-1.6476 1.41183,-3.67308 1.17688,-3.468637 1.35475,-3.805417 3.06016,-5.793926 1.75117,-2.041887 1.88415,-2.135934 4.04857,-2.863212 1.86868,-0.627905 2.30715,-0.694537 2.65745,-0.403841 0.23074,0.191476 1.20129,1.015344 2.15678,1.830819 l 1.73725,1.482684 6.94901,0.23832 c 3.82195,0.13108 8.90341,0.23573 11.29214,0.23254 2.38872,-0.003 4.34313,0.0294 4.34313,0.0725 0,0.257929 -5.23738,6.562136 -6.31617,7.602736 -1.1484,1.10776 -1.45777,1.26451 -2.63736,1.33635 l -1.33635,0.0814 -0.18912,3.5972 c -0.10401,1.97846 -0.15412,3.6322 -0.11134,3.67498 0.0428,0.0428 1.36066,-0.2994 2.92863,-0.76039 2.67916,-0.78769 2.8511,-0.88024 2.85495,-1.53682 0.002,-0.38426 0.0925,-0.83152 0.20045,-0.9939 0.10799,-0.16239 1.2788,-0.57374 2.60178,-0.91413 2.15562,-0.55459 2.52455,-0.74413 3.55241,-1.8251 0.63085,-0.66343 1.93283,-2.68757 2.89331,-4.49809 1.13873,-2.14652 1.89761,-3.29185 2.18116,-3.29185 0.23916,0 0.81765,0.37103 1.28553,0.82452 l 0.85068,0.82452 1.09443,-0.69089 c 2.07567,-1.310307 2.21435,-0.86962 0.71752,2.28021 -0.65189,1.37182 -1.14054,2.53893 -1.08588,2.59359 0.0547,0.0547 0.96929,-0.0985 2.03251,-0.34028 l 1.93311,-0.43968 1.15629,1.13482 1.1563,1.13482 -0.15304,1.75139 -0.15304,1.7514 1.61803,1.02648 1.61802,1.02649 1.64006,-0.99628 c 1.31881,-0.80114 1.68604,-0.92367 1.87482,-0.62558 0.54686,0.86352 0.12629,4.28215 -0.99091,8.05469 -0.12109,0.40889 0.0633,0.46772 1.46571,0.46772 2.18843,0 2.71827,0.26356 3.60418,1.79283 0.69475,1.19927 0.98459,1.41803 3.26459,2.46389 l 2.50215,1.14776 4.58262,-1.3783 c 2.52044,-0.75807 4.70356,-1.338 4.85137,-1.28872 0.56644,0.18881 -2.75819,2.3635 -6.36544,4.16374 l -3.76574,1.87934 -3.45053,-0.77027 -3.45053,-0.77028 -5.87993,0.63723 c -3.23397,0.35047 -7.91554,0.71241 -10.4035,0.80431 l -4.52357,0.16707 -2.15817,-2.14524 -2.15817,-2.14524 -3.40034,-0.25652 -3.40035,-0.25652 -7.29043,3.85259 c -4.00975,2.11892 -7.44557,3.85475 -7.63518,3.85739 -0.1896,0.003 -0.79218,-0.22347 -1.33907,-0.50247 -0.9897,-0.50491 -1.00868,-0.5041 -4.06521,0.173 -1.68898,0.37415 -3.14333,0.79126 -3.23188,0.92693 -0.0885,0.13567 -0.30611,1.05866 -0.48347,2.05111 l -0.32247,1.80443 -5.03116,1.91858 c -2.76714,1.05522 -5.19555,1.91291 -5.39646,1.90598 -0.20091,-0.007 -1.13369,-0.57124 -2.07283,-1.25401 z"
       style="display:inline;fill:#ffff00;fill-opacity:1;stroke:none;stroke-width:1.51522887;stroke-miterlimit:4;stroke-dasharray:none;stroke-dashoffset:0;stroke-opacity:1" />
    <path
       id="path6951"
       d="m 148.25445,205.96663 c -4.30313,-2.25034 -4.87767,-2.48525 -4.87767,-1.99434 0,0.30606 -0.0902,0.55495 -0.20045,0.5531 -0.34102,-0.006 -3.54132,-5.69717 -3.54132,-6.29792 0,-0.52095 0.29745,-0.6155 3.67496,-1.16821 2.62271,-0.42919 4.30779,-0.8714 5.88514,-1.54439 1.2156,-0.51865 2.2723,-1.0435 2.34822,-1.16634 0.0759,-0.12284 -0.28836,-1.62987 -0.80951,-3.34897 -0.52114,-1.7191 -0.91635,-3.15155 -0.87823,-3.18322 0.42519,-0.3533 1.87846,-0.91448 2.06679,-0.79808 0.13449,0.0831 1.00836,1.4422 1.94193,3.02018 1.23612,2.08939 1.90268,3.59242 2.4528,5.53096 0.78023,2.74933 0.88904,3.07462 2.24717,6.71797 l 0.80838,2.16857 -2.18483,0.59678 c -1.20165,0.32823 -2.32017,0.70771 -2.4856,0.8433 -0.16542,0.13558 -0.45166,0.78544 -0.63609,1.44414 -0.18442,0.6587 -0.47002,1.19305 -0.63467,1.18745 -0.16464,-0.006 -2.4943,-1.15804 -5.17702,-2.56098 z"
       style="display:inline;fill:#ffff00;fill-opacity:1;stroke:none;stroke-width:1.51522887;stroke-miterlimit:4;stroke-dasharray:none;stroke-dashoffset:0;stroke-opacity:1" />
    <path
       id="path6953"
       d="m 169.57134,226.17759 c -0.009,-1.71984 -0.21053,-3.68588 -0.52024,-5.07812 -0.47988,-2.15721 -0.48584,-2.5538 -0.11808,-7.86278 l 0.38729,-5.59099 -1.19129,-1.79154 -1.19129,-1.79153 2.06008,-0.44511 c 1.13305,-0.24481 2.31956,-0.51296 2.6367,-0.59589 0.51461,-0.13457 0.78022,0.25566 2.47006,3.6289 l 1.89345,3.77968 0.86145,-0.14463 c 2.17586,-0.3653 4.31032,-0.65979 4.36754,-0.60257 0.0346,0.0346 0.50158,1.80562 1.03774,3.93561 0.53615,2.12999 1.33058,5.18181 1.76539,6.78183 0.43481,1.60002 0.75013,2.94955 0.70073,2.99896 -0.0494,0.0494 -1.69188,-1.65562 -3.64993,-3.78895 -1.95805,-2.13333 -3.64776,-3.84368 -3.75492,-3.80077 -0.26715,0.10698 -4.82408,5.34618 -4.99248,5.73996 -0.0745,0.17411 0.35555,1.03947 0.95556,1.92304 0.60002,0.88357 1.09095,1.67567 1.09095,1.76022 0,0.0845 -0.45102,-0.0738 -1.00226,-0.35195 -2.13523,-1.0773 -2.10011,-1.09297 -2.63507,1.17621 -0.79722,3.38161 -1.15392,3.41828 -1.17138,0.12042 z"
       style="display:inline;fill:#ffff00;fill-opacity:1;stroke:none;stroke-width:1.51522887;stroke-miterlimit:4;stroke-dasharray:none;stroke-dashoffset:0;stroke-opacity:1" />
    <path
       id="path6955"
       d="m 153.17439,244.48378 c -1.59373,-1.23644 -3.90781,-2.79423 -5.1424,-3.46176 l -2.2447,-1.21369 h -3.07614 -3.07614 v -0.87922 c 0,-0.85478 0.0985,-0.93178 3.54132,-2.76941 1.94773,-1.0396 4.5264,-2.21497 5.73039,-2.61193 l 2.18907,-0.72175 2.22088,0.70097 c 1.22148,0.38554 3.03226,1.16845 4.02396,1.7398 0.9917,0.57136 2.52515,1.24143 3.40768,1.48906 1.11252,0.31215 1.60525,0.58286 1.60669,0.88273 0.001,0.23788 -0.25445,2.3118 -0.56797,4.60873 l -0.57005,4.17622 -1.36973,0.16458 c -3.3432,0.4017 -3.51076,0.34886 -6.67286,-2.10433 z"
       style="display:inline;fill:#ffff00;fill-opacity:1;stroke:none;stroke-width:1.51522887;stroke-miterlimit:4;stroke-dasharray:none;stroke-dashoffset:0;stroke-opacity:1" />
    <path
       id="path6957"
       d="m 223.2833,244.76758 c -0.89495,-0.79854 -2.61252,-2.02192 -3.81683,-2.71861 -1.20431,-0.69669 -2.21833,-1.28399 -2.25338,-1.30512 -0.035,-0.0211 0.0759,-0.996 0.24645,-2.16638 l 0.31015,-2.12797 -1.58223,-4.35659 -1.58223,-4.35659 -1.9358,-1.4827 c -1.8713,-1.4333 -1.93141,-1.51492 -1.80416,-2.4498 0.33124,-2.4336 0.63573,-6.01038 0.52668,-6.18683 -0.19072,-0.30858 -6.29643,-4.06964 -6.41469,-3.95138 -0.0585,0.0585 -0.58958,2.3263 -1.18025,5.03961 -1.06464,4.89054 -1.07088,4.95218 -0.72081,7.11003 l 0.35313,2.17672 -1.6375,1.80661 -1.63749,1.80661 -1.33925,-3.02959 -1.33924,-3.02958 1.29103,-4.7682 1.29104,-4.76819 -1.98878,-3.6691 c -1.7948,-3.31124 -6.58384,-13.68521 -6.58384,-14.26184 0,-0.60564 11.1524,-17.81443 12.41201,-19.15245 0.18198,-0.19331 3.38673,-0.85855 7.27387,-1.50992 l 6.94856,-1.16436 3.58757,-2.22239 c 1.97317,-1.22232 5.73904,-3.3233 8.3686,-4.66884 l 4.78102,-2.44644 3.50434,2.01545 c 1.92738,1.10849 5.3378,2.89108 7.57871,3.96131 l 4.07437,1.94588 3.60963,-2.38919 c 4.19823,-2.77879 3.78067,-1.63982 3.32832,-9.07849 -0.2801,-4.60606 -0.27457,-4.70772 0.36372,-6.68174 0.62791,-1.9419 0.65847,-1.98264 0.97817,-1.30416 0.32558,0.69097 0.37891,0.70276 3.97784,0.87907 4.01179,0.19654 9.78384,1.31588 9.58289,1.85835 -0.77785,2.09977 -0.79278,2.97268 -0.10327,6.04411 0.37827,1.68507 0.65079,3.10075 0.60558,3.14596 -0.0452,0.0452 -0.93488,-0.32644 -1.97708,-0.82589 -1.65425,-0.79279 -6.00358,-1.81232 -6.31168,-1.47954 -0.0515,0.0556 -1.61684,3.14993 -3.47859,6.87629 l -3.385,6.77521 1.9929,-1.10011 1.99291,-1.10011 0.91602,1.27391 c 3.19142,4.43833 3.15055,4.35316 3.97,8.27229 0.4246,2.03082 0.77351,3.70801 0.77531,3.72709 0.003,0.0191 -1.33946,-0.029 -2.9806,-0.10675 -2.48594,-0.11783 -2.96079,-0.079 -2.84552,0.23259 0.0761,0.20571 0.46855,1.37228 0.87213,2.59239 l 0.73379,2.21837 -0.76141,1.8637 c -1.08674,2.66004 -2.40845,3.87506 -5.37044,4.93694 l -2.33997,0.8389 -0.55673,2.24721 c -0.79207,3.19719 -0.73132,3.09564 -1.32632,2.21689 -0.438,-0.64687 -0.54396,-1.38558 -0.65601,-4.57339 l -0.13363,-3.8019 -2.48475,1.59693 c -1.36662,0.87831 -2.52292,1.59693 -2.56957,1.59693 -0.0466,0 -0.30205,-0.57129 -0.56754,-1.26953 -0.2655,-0.69824 -1.11819,-2.05772 -1.89485,-3.02105 l -1.41212,-1.75153 0.39766,-3.9723 c 0.21871,-2.18477 0.30336,-4.05475 0.1881,-4.15551 -0.11526,-0.10077 -1.59268,-0.75494 -3.28316,-1.45371 -1.69048,-0.69878 -3.10208,-1.29638 -3.1369,-1.328 -0.0348,-0.0316 -0.25009,-1.07136 -0.47839,-2.31053 -0.2283,-1.23917 -0.46768,-2.40606 -0.53196,-2.59309 -0.0758,-0.22063 -0.96701,0.27503 -2.53748,1.4113 -2.0277,1.46708 -2.75537,1.8314 -4.48287,2.24439 l -2.06224,0.49302 -1.73725,-1.22276 c -0.95549,-0.67251 -2.45288,-1.73994 -3.32753,-2.37205 -1.56611,-1.13183 -1.62363,-1.14929 -3.78532,-1.14929 h -2.19505 l -2.22824,3.26115 c -1.22553,1.79364 -2.31667,3.40345 -2.42474,3.57735 -0.10808,0.1739 0.32866,2.11838 0.97051,4.32105 0.99173,3.40333 1.37737,4.31659 2.56749,6.08027 l 1.40047,2.07541 -0.43915,0.9209 -0.43914,0.92089 -1.55893,-1.35052 c -1.51671,-1.31395 -1.5636,-1.39521 -1.73139,-3.00054 -0.0949,-0.9075 -0.1743,-2.14352 -0.17655,-2.7467 -0.007,-1.86627 -0.17097,-1.88604 -2.9337,-0.35366 l -2.51527,1.39513 -0.80149,1.94576 -0.80148,1.94577 2.52576,2.53112 2.52575,2.53112 1.61621,6.61351 1.61621,6.61351 4.2952,1.02969 4.29519,1.0297 0.16898,1.61668 c 0.0929,0.88917 0.16897,2.26053 0.16897,3.04745 0,0.78693 0.0565,1.43078 0.12555,1.43078 0.069,0 1.42034,-0.19236 3.00287,-0.42747 l 2.87732,-0.42746 0.74815,0.89519 c 0.41148,0.49235 1.06003,1.34477 1.44123,1.89427 l 0.69307,0.99908 -0.67507,0.8718 c -1.11057,1.43422 -1.72705,2.00598 -3.35427,3.11101 l -1.54946,1.05221 -2.32287,-0.47465 -2.32286,-0.47464 v 1.6605 c 0,0.91329 0.0775,2.9274 0.17225,4.47582 l 0.17226,2.8153 2.03272,-0.63736 c 3.46569,-1.08666 3.0994,-1.15852 3.73833,0.73343 0.3114,0.9221 0.56617,2.23857 0.56617,2.92549 0,1.15938 -0.0761,1.29927 -1.06083,1.95096 l -1.06084,0.70203 z"
       style="display:inline;fill:#ffff00;fill-opacity:1;stroke:none;stroke-width:1.51522887;stroke-miterlimit:4;stroke-dasharray:none;stroke-dashoffset:0;stroke-opacity:1" />
    <path
       id="path6959"
       d="m 85.394716,217.13368 c 0.0578,-0.66387 1.67253,-2.27307 4.731686,-4.71555 3.39184,-2.7081 3.5547,-2.80362 3.78376,-2.21922 0.13166,0.33587 0.46426,1.13234 0.73912,1.76993 l 0.49975,1.15926 5.580668,-4.47145 5.58067,-4.47146 0.92174,0.49639 c 0.50695,0.27301 1.45848,1.12466 2.11451,1.89255 l 1.19278,1.39616 -0.67534,1.8722 c -0.37144,1.02971 -0.75656,2.48451 -0.85584,3.23288 -0.16665,1.25628 -0.21516,1.32932 -0.63215,0.95195 -0.30759,-0.27837 -1.71281,-0.54121 -4.40574,-0.82407 -2.17476,-0.22844 -4.003008,-0.36642 -4.062788,-0.30664 -0.0598,0.0598 -0.1823,0.89694 -0.27227,1.86036 -0.09,0.96341 -0.23738,1.86515 -0.32758,2.00385 -0.18404,0.28299 -13.937256,0.65156 -13.912976,0.37286 z"
       style="display:inline;fill:#00ff00;fill-opacity:1;stroke:none;stroke-width:1.51522887;stroke-miterlimit:4;stroke-dasharray:none;stroke-dashoffset:0;stroke-opacity:1" />
    <path
       id="path6961"
       d="m 148.20367,158.93304 c -2.20854,-8.11308 -2.47401,-9.31628 -2.16477,-9.81146 0.19386,-0.31041 1.56661,-2.09956 3.05057,-3.97587 l 2.6981,-3.41148 5.79016,-2.20793 5.79016,-2.20794 0.32949,-1.92622 0.32949,-1.92622 2.26868,-0.52108 2.26868,-0.52109 1.40839,0.62285 1.40838,0.62286 7.57991,-4.00153 7.5799,-4.00152 2.80633,0.17153 2.80633,0.17154 2.27179,2.20699 2.27179,2.20698 5.3381,-0.21298 c 2.93595,-0.11714 7.74681,-0.47074 10.69078,-0.78579 l 5.35269,-0.57281 3.58392,0.80185 3.58393,0.80185 4.2299,-2.11806 c 3.51208,-1.75863 4.86956,-2.62455 7.99918,-5.10261 2.94981,-2.33569 3.82128,-2.9023 4.0085,-2.60621 0.13158,0.20808 0.21112,0.45799 0.17676,0.55535 -0.0344,0.0974 -1.80641,1.59218 -3.93788,3.32182 -2.13148,1.72965 -5.10993,4.27951 -6.61879,5.66637 l -2.74338,2.52156 -5.80925,2.54489 c -4.76462,2.08726 -6.32007,2.91086 -8.65,4.58013 -2.40673,1.72429 -3.00049,2.30067 -3.88627,3.77249 -0.86119,1.43097 -1.44155,2.0082 -3.29176,3.27406 -2.07636,1.42056 -2.35946,1.53679 -3.74311,1.53679 h -1.49686 l -3.43446,-4.54358 c -1.92617,-2.54819 -3.62276,-4.54466 -3.86321,-4.54603 -0.23581,-0.001 -1.78648,0.25312 -3.44593,0.56548 l -3.01717,0.56793 -1.48472,-0.9858 c -0.8166,-0.54219 -1.51929,-0.94699 -1.56155,-0.89957 -0.0423,0.0474 -0.44953,0.82981 -0.90505,1.73863 l -0.82823,1.65239 0.42717,2.30285 c 0.23495,1.26657 0.36595,2.36408 0.29112,2.43891 -0.0748,0.0748 -0.74615,-0.23934 -1.49183,-0.69816 l -1.35577,-0.83421 -3.01646,0.41406 c -3.16675,0.43469 -3.31414,0.50917 -4.57799,2.31357 -0.34084,0.48662 -1.25363,0.76015 -5.4376,1.62947 -2.7654,0.57458 -5.1986,1.10376 -5.40711,1.17597 -0.21656,0.075 1.04396,0.96438 2.93996,2.07434 3.18895,1.86686 14.20869,9.35366 14.34153,9.74362 0.0354,0.10398 -2.00919,0.81491 -4.54358,1.57984 l -4.60799,1.39079 -6.41447,0.17754 -6.41447,0.17755 -3.24096,1.17118 c -1.78253,0.64415 -3.34736,1.17118 -3.4774,1.17118 -0.13004,0 -1.36919,-4.16118 -2.75367,-9.24706 z"
       style="display:inline;fill:#00ff00;fill-opacity:1;stroke:none;stroke-width:1.51522887;stroke-miterlimit:4;stroke-dasharray:none;stroke-dashoffset:0;stroke-opacity:1" />
    <path
       id="path6965"
       d="m 198.30067,248.70196 -3.74177,-1.74591 -6.81538,-0.62071 c -3.74845,-0.3414 -7.98801,-0.62665 -9.42125,-0.6339 -1.43323,-0.007 -2.60587,-0.0514 -2.60587,-0.0981 0,-0.0467 0.60135,-1.57202 1.33634,-3.38956 0.735,-1.81755 1.33635,-3.32793 1.33635,-3.35641 0,-0.0285 -1.11251,-0.2669 -2.47224,-0.52982 -1.5574,-0.30115 -2.90154,-0.74417 -3.63235,-1.19723 l -1.1601,-0.71918 1.7474,-1.54368 c 0.96108,-0.84901 2.5259,-2.0099 3.47739,-2.57974 l 1.72998,-1.03607 4.09719,1.462 4.09718,1.462 1.54343,1.70923 1.54343,1.70923 1.67233,-0.40013 c 1.66876,-0.39928 1.67568,-0.39848 3.24165,0.37213 1.54283,0.75922 1.59844,0.8264 3.29455,3.97949 1.55782,2.89603 1.89099,3.33104 3.43346,4.48307 l 1.70823,1.27584 v 1.59731 c 0,1.11334 -0.10123,1.58955 -0.33409,1.57169 -0.18375,-0.0141 -2.01788,-0.81128 -4.07586,-1.77153 z"
       style="display:inline;fill:#00ff00;fill-opacity:1;stroke:none;stroke-width:1.51522887;stroke-miterlimit:4;stroke-dasharray:none;stroke-dashoffset:0;stroke-opacity:1" />
    <path
       id="path6967"
       d="m 97.829382,198.87791 c 0.12245,-0.19949 0.91927,-1.35953 1.77072,-2.57785 0.851458,-1.21832 1.548098,-2.28341 1.548098,-2.36688 0,-0.0835 -0.84153,-1.05285 -1.870068,-2.1542 l -1.87008,-2.00246 2.633868,-2.0822 c 1.44863,-1.14522 2.86145,-2.20152 3.1396,-2.34734 0.27816,-0.14583 4.29428,-1.65506 8.92473,-3.35386 8.66656,-3.17955 23.89147,-7.91424 33.22844,-10.33347 2.91432,-0.75511 6.91562,-1.96425 8.89177,-2.68698 3.4286,-1.25392 3.75786,-1.32232 7.19608,-1.49487 1.98169,-0.0995 3.60509,-0.13246 3.60756,-0.0734 0.002,0.0591 0.23496,2.26609 0.51666,4.9044 l 0.51217,4.79691 -4.72615,6.74871 c -2.59939,3.71179 -4.7896,6.75491 -4.86715,6.76249 -0.0775,0.008 -0.91944,-1.30654 -1.87089,-2.92027 -0.95144,-1.61372 -1.85905,-2.93671 -2.01691,-2.93996 -0.25027,-0.005 -4.6439,1.80417 -4.87962,2.00946 -0.0487,0.0424 0.35572,1.53715 0.89868,3.32166 0.54296,1.78451 0.94361,3.28258 0.89033,3.32905 -0.0533,0.0465 -0.69823,0.35062 -1.43322,0.6759 -1.2502,0.55328 -8.34399,1.95317 -8.72678,1.72213 -0.0958,-0.0578 -0.25535,-0.80472 -0.35459,-1.6598 -0.0993,-0.85508 -0.26142,-1.67615 -0.36039,-1.82461 -0.22856,-0.34285 -3.42137,-2.50159 -3.69989,-2.50159 -0.11463,0 -0.99825,0.78379 -1.96361,1.74175 l -1.7552,1.74175 -4.46724,-0.77018 -4.46725,-0.77019 -0.2147,0.8325 c -0.20952,0.81235 -0.25639,0.83432 -1.93599,0.90726 -1.56371,0.0679 -1.78567,0.15216 -2.42471,0.92027 l -0.70344,0.84551 -2.00313,-0.55187 -2.00312,-0.55187 -4.10881,1.5646 c -2.25985,0.86052 -5.49193,1.93312 -7.18241,2.38354 -1.690478,0.45042 -3.299138,0.88638 -3.574788,0.96879 -0.37259,0.11139 -0.44407,0.0568 -0.27857,-0.21288 z"
       style="display:inline;fill:#ff00ff;fill-opacity:1;stroke:none;stroke-width:1.51522887;stroke-miterlimit:4;stroke-dasharray:none;stroke-dashoffset:0;stroke-opacity:1" />
    <path
       id="path6969"
       d="m 204.42543,176.05881 c 0.093,-0.37065 0.1674,-3.97879 0.16527,-8.01808 l -0.004,-7.34418 h 2.92657 2.92658 l 0.31968,1.067 c 0.26272,0.87689 0.24082,1.42586 -0.12291,3.0812 -0.24342,1.10781 -0.44259,2.23944 -0.44259,2.51474 0,0.47096 3.14907,4.79903 3.50696,4.81995 0.0913,0.005 0.6428,-1.34335 1.22545,-2.99708 l 1.05936,-3.00678 3.04906,-1.66503 c 1.67699,-0.91577 3.08818,-1.78239 3.13599,-1.92582 0.0478,-0.14344 -1.20197,-2.25686 -2.77729,-4.69649 -1.64533,-2.54805 -2.76208,-4.53165 -2.62419,-4.66116 0.13202,-0.12401 1.27953,-1.0697 2.55002,-2.10155 2.23097,-1.81191 2.42045,-1.90623 5.53985,-2.75783 l 3.22988,-0.88175 -0.11761,-0.94506 c -0.0647,-0.51979 -0.17574,-1.54642 -0.24679,-2.28141 l -0.12918,-1.33635 4.65924,-3.258 4.65924,-3.25801 0.21927,0.84618 c 0.1791,0.69117 0.40233,0.88947 1.21863,1.08252 0.54966,0.12999 0.96262,0.31328 0.9177,0.40731 -0.0449,0.094 -0.59933,1.17564 -1.23204,2.40359 -0.6327,1.22794 -1.1127,2.26862 -1.06667,2.31262 0.046,0.044 1.21224,0.38834 2.59155,0.7652 1.37931,0.37686 2.56103,0.7384 2.62604,0.80341 0.065,0.065 0.33473,1.6025 0.59938,3.41664 l 0.48117,3.29843 -1.31341,1.65442 -1.31341,1.65442 1.50844,3.00774 1.50844,3.00775 1.14905,-1.3213 c 0.63198,-0.72671 1.19899,-1.26115 1.26001,-1.18765 0.061,0.0735 0.51629,1.49963 1.01171,3.16919 l 0.90075,3.03556 1.61034,-0.18219 c 0.8857,-0.10021 1.72296,-0.25179 1.86058,-0.33684 0.15073,-0.0932 0.18137,-1.9798 0.0771,-4.74455 l -0.17316,-4.5899 1.6924,-4.46218 1.6924,-4.46217 1.26352,1.00797 1.26353,1.00796 -0.17189,2.00452 c -0.0971,1.13289 -0.62794,3.46265 -1.22068,5.35781 l -1.04878,3.35329 0.36604,5.06571 c 0.20133,2.78613 0.32367,5.14182 0.27187,5.23488 -0.0518,0.0931 -1.34774,0.96831 -2.87986,1.94502 l -2.78568,1.77585 -3.56552,-1.69698 c -1.96104,-0.93333 -5.30331,-2.6971 -7.42726,-3.91948 l -3.86174,-2.22251 -4.69089,2.33836 c -2.57999,1.2861 -6.52884,3.46667 -8.77523,4.84572 l -4.08434,2.50735 -6.38624,1.07097 c -3.51243,0.58903 -6.4683,1.07096 -6.5686,1.07096 -0.10029,0 -0.10624,-0.30326 -0.0132,-0.67391 z"
       style="display:inline;fill:#ff00ff;fill-opacity:1;stroke:none;stroke-width:1.51522887;stroke-miterlimit:4;stroke-dasharray:none;stroke-dashoffset:0;stroke-opacity:1" />
    <path
       id="path6971"
       d="m 159.2309,212.48879 c -0.85536,-0.80703 -2.11716,-1.79157 -2.80399,-2.18787 l -1.2488,-0.72053 0.39256,-1.15208 0.39255,-1.15208 4.57541,-1.37406 c 2.51648,-0.75574 4.59704,-1.34385 4.62346,-1.30693 0.0264,0.0369 0.56377,0.83584 1.1941,1.77535 l 1.14606,1.7082 -0.18567,2.69591 c -0.10213,1.48275 -0.23406,2.74429 -0.29318,2.80341 -0.0591,0.0591 -1.48671,0.16837 -3.17241,0.24276 l -3.06491,0.13525 z"
       style="display:inline;fill:#ff00ff;fill-opacity:1;stroke:none;stroke-width:1.51522887;stroke-miterlimit:4;stroke-dasharray:none;stroke-dashoffset:0;stroke-opacity:1" />
    <path
       id="path6973"
       d="m 163.01854,245.85125 c 0.11207,-0.51611 1.20527,-8.07708 1.20527,-8.33613 0,-0.0617 1.10095,-0.11221 2.44655,-0.11221 2.33555,0 2.52656,0.0455 4.2095,1.00226 0.96961,0.55124 2.50404,1.18267 3.40985,1.40316 l 1.64691,0.40091 -1.12655,2.80633 -1.12654,2.80633 -2.79216,0.17402 c -7.70729,0.48035 -8.00736,0.47484 -7.87283,-0.14467 z"
       style="display:inline;fill:#ff00ff;fill-opacity:1;stroke:none;stroke-width:1.51522887;stroke-miterlimit:4;stroke-dasharray:none;stroke-dashoffset:0;stroke-opacity:1" />
    <path
       id="path6975"
       d="m 230.08278,203.25922 c -0.11758,-0.25724 -0.3611,-2.15152 -0.54114,-4.20949 -0.18005,-2.05797 -0.4107,-4.2341 -0.51256,-4.83584 -0.17265,-1.01989 -0.0802,-1.25183 1.36315,-3.42073 1.33403,-2.00459 1.64139,-2.31561 2.22038,-2.2468 0.64931,0.0772 0.69589,0.21819 1.3786,4.17415 l 0.70658,4.09428 2.18074,2.19213 c 2.11303,2.12406 2.18074,2.23138 2.18074,3.45608 v 1.26395 h -4.38135 c -3.91309,0 -4.4042,-0.05 -4.59514,-0.46773 z"
       style="display:inline;fill:#00ff00;fill-opacity:1;stroke:none;stroke-width:1.51522887;stroke-miterlimit:4;stroke-dasharray:none;stroke-dashoffset:0;stroke-opacity:1" />
    <path
       id="path6963"
       d="m 175.99802,205.66768 c -0.80929,-1.61366 -1.43399,-2.96835 -1.38825,-3.01043 0.0458,-0.0421 3.45078,-0.81815 7.56674,-1.72461 4.11595,-0.90647 7.61865,-1.69164 7.78378,-1.74483 0.27807,-0.0896 4.57784,9.1272 4.34602,9.31591 -0.0565,0.046 -2.86892,-0.0752 -6.24988,-0.26921 -4.07388,-0.2338 -6.64299,-0.26869 -7.61718,-0.10345 -3.27555,0.5556 -2.7929,0.82331 -4.44123,-2.46338 z"
       style="display:inline;fill:#00ff00;fill-opacity:1;stroke:none;stroke-width:1.51522887;stroke-miterlimit:4;stroke-dasharray:none;stroke-dashoffset:0;stroke-opacity:1" />
  </g>
</svg>
