<?xml version="1.0" encoding="UTF-8" standalone="no"?>
<svg
   xmlns:dc="http://purl.org/dc/elements/1.1/"
   xmlns:cc="http://creativecommons.org/ns#"
   xmlns:rdf="http://www.w3.org/1999/02/22-rdf-syntax-ns#"
   xmlns:svg="http://www.w3.org/2000/svg"
   xmlns="http://www.w3.org/2000/svg"
   xmlns:sodipodi="http://sodipodi.sourceforge.net/DTD/sodipodi-0.dtd"
   xmlns:inkscape="http://www.inkscape.org/namespaces/inkscape"
   id="svg5857"
   version="1.1"
   viewBox="0 0 279.4 215.9"
   height="8.5in"
   width="11in"
   sodipodi:docname="hk_map_puzzle_sea.svg"
   inkscape:version="0.92.4 (5da689c313, 2019-01-14)">
  <sodipodi:namedview
     pagecolor="#ffffff"
     bordercolor="#666666"
     borderopacity="1"
     objecttolerance="10"
     gridtolerance="10"
     guidetolerance="10"
     inkscape:pageopacity="0"
     inkscape:pageshadow="2"
     inkscape:window-width="1920"
     inkscape:window-height="1017"
     id="namedview30"
     showgrid="false"
     inkscape:zoom="0.26893939"
     inkscape:cx="528"
     inkscape:cy="408"
     inkscape:window-x="-8"
     inkscape:window-y="-8"
     inkscape:window-maximized="1"
     inkscape:current-layer="svg5857" />
  <defs
     id="defs5851" />
  <metadata
     id="metadata5854">
    <rdf:RDF>
      <cc:Work
         rdf:about="">
        <dc:format>image/svg+xml</dc:format>
        <dc:type
           rdf:resource="http://purl.org/dc/dcmitype/StillImage" />
        <dc:title />
      </cc:Work>
    </rdf:RDF>
  </metadata>
  <path
     inkscape:connector-curvature="0"
     style="display:inline;fill:#0000ff;fill-opacity:1;stroke:none;stroke-width:1;stroke-miterlimit:4;stroke-dasharray:none;stroke-dashoffset:0;stroke-opacity:1"
     d="M 1.1339979,1.587574 V 217.03385 H 280.08028 V 1.587574 Z m 165.8482621,9.675895 4.60386,3.942395 h 7.88479 l 9.73635,0.52917 6.56188,-0.52917 -5.87406,7.461036 -3.41271,3.54552 h -2.30219 l -0.29094,5.47719 4.02146,-1.19062 0.34417,-1.93167 5.50354,-1.56115 1.82521,-2.03708 3.6251,-6.720517 1.82573,-0.39688 1.45521,1.587497 2.56625,-1.587497 1.45521,1.587497 -2.06396,4.25969 2.805,-0.68781 2.98948,2.80448 -0.21136,3.43958 2.27532,1.48157 3.73052,-2.16938 0.84646,1.93167 v 3.20135 l -1.00511,4.10104 3.51865,0.23823 1.90531,3.04271 4.33927,2.11667 13.14959,-3.9424 2.88406,-1.61385 1.11104,2.80448 -8.78396,7.11739 -5.10667,4.7625 -11.72073,5.1325 -5.47718,3.96875 -2.16938,3.54552 -4.84208,3.20136 h -3.65094 l -6.90604,-9.15448 -6.58771,1.24385 -2.51354,-1.64073 -1.13792,2.43448 0.7674,4.3124 2.16937,1.16427 0.71469,3.57187 -3.36052,-0.79375 -0.29094,-2.32854 -3.33364,-2.01073 -5.42396,0.7674 -1.85208,2.43396 -8.96948,1.87895 4.20698,2.43396 13.46739,9.31313 3.04271,2.16989 -0.84698,3.96875 2.30219,1.95802 -2.59313,5.18573 2.93677,-0.84697 3.65146,-7.43469 5.05344,-4.9475 1.87844,-5.37125 2.61948,-0.0791 3.59823,2.43396 h 7.35562 l 1.03198,2.64584 -1.03198,4.84208 2.51354,3.20135 1.82573,-5.15937 5.87354,-3.14865 -5.87354,-9.10177 5.87354,-4.73614 5.90042,-1.64021 -0.39688,-4.31292 10.76834,-7.59333 0.60875,2.43396 2.64583,0.55604 -2.64583,5.00021 4.97385,1.29656 1.11156,7.77885 -2.48718,3.22771 2.19573,4.26021 2.51354,-3.09594 2.24896,7.48792 2.19625,-0.37052 -0.34417,-8.78396 3.88969,-10.23969 3.73052,3.14865 -0.23823,4.41833 1.34927,3.175 7.27603,0.39688 6.56188,1.56114 -1.11104,3.91604 1.82521,7.9375 -5.60896,-2.61947 -3.54552,-0.58188 -5.3976,10.68875 2.24896,-1.29604 4.65708,6.69365 2.24896,10.84791 -1.87897,-2.14302 -4.39197,-0.23823 1.45521,4.33927 -1.82573,4.36563 -2.51354,2.35489 -4.39198,1.53428 -1.50792,6.77374 -2.48718,-3.57187 v -6.32365 l -4.84209,3.12178 -1.37562,-3.4923 -2.93677,-3.59823 0.74052,-7.88479 -6.50865,-2.75177 -0.84646,-4.36562 -3.9951,2.83135 -4.70979,1.11104 -6.58823,-4.7625 h -3.73052 l -4.33927,6.35 2.16989,7.51427 3.01584,4.36563 -1.56063,3.54552 -4.33927,-3.9424 -0.39687,-5.13302 -3.73053,1.95802 -1.32291,3.12229 4.78885,4.84157 3.175,12.99094 8.75761,2.11666 0.37052,5.76813 5.52989,-0.79375 3.62459,4.7625 -2.77813,3.30729 -3.73052,2.61948 -4.07469,-0.79375 0.26459,6.72052 4.89479,-1.5875 1.45521,3.96875 v 3.57187 l -3.01636,1.9575 -3.59823,-3.20135 -5.00073,-2.96313 0.68782,-4.52427 -3.01584,-8.28166 -3.99562,-3.14865 0.71469,-7.11739 -5.05344,-3.20136 -1.90531,8.7049 0.71468,4.7625 -4.47156,4.84208 -2.11667,2.27531 -5.08031,-5.15937 -7.64604,-9.47229 1.45521,4.7625 h -1.11156 l -7.96386,-8.65167 -4.18062,4.81521 2.27583,3.43958 v 1.56115 l -3.6251,-1.56115 -0.9524,3.8101 -2.4076,1.69344 -2.1699,1.19063 -2.16937,-2.75177 0.47645,-5.74126 -1.5875,-4.92166 h -2.51354 v -3.57187 l -3.41323,-3.175 -3.04271,-1.74615 -10.00145,-5.18573 -0.37052,2.56625 -4.7625,-7.85792 -0.42323,-2.53989 -0.68782,-4.18063 -2.88406,-1.98437 -3.43958,3.46594 -8.59896,-1.48157 -0.39688,1.56115 h -3.70416 l -1.48156,1.95802 -4.33928,-1.19063 -8.46666,3.20136 -9.048538,2.35489 -2.59313,-1.56114 v -2.80448 h -7.672906 l -3.14865,-2.59313 -4.3124,-1.34927 -2.77812,-6.29729 -1.79938,-0.39687 -1.05833,-3.59823 -2.93677,3.25458 4.78885,4.36562 -9.20718,1.11105 -4.736149,3.94239 -6.614583,-3.54552 h -2.222603 l -5.397606,-3.57187 1.825731,-5.95313 -3.624586,-5.47667 -6.35,-5.10666 5.820834,-5.00073 9.94823,-0.60823 4.841563,-3.54552 6.138649,-11.50938 10.95385,-4.73614 9.86865,-15.0549 h 2.936766 l 3.65146,1.2175 -0.71417,6.72 1.79885,-1.19062 5.5299,-1.53427 2.169368,-2.01073 -0.39687,-6.74688 5.45083,-2.77812 7.3551,-1.95802 1.79938,-1.98438 1.85208,-3.59823 5.87354,-1.95802 3.28094,-1.64073 -1.37562,-3.25406 4.25968,-2.5399 h 7.9375 l 2.61948,2.83084 1.45521,0.6351 5.50302,-5.34489 4.36563,-0.63459 4.92114,0.63459 2.43448,-6.984587 3.78323,-4.418852 z m 64.4524,95.250001 h 2.56677 l 1.48156,8.67854 4.36563,4.36562 v 3.96875 h -9.86917 l -1.08469,-1.64072 -0.34364,-6.69365 -0.74104,-3.14865 z m -105.62146,8.67854 8.06979,2.80448 2.91042,6.69416 -1.82573,7.14375 -7.40833,1.95751 -1.03198,-8.70438 -3.59823,-5.15938 v -3.12229 z m -19.42052,6.69365 2.59313,1.79937 2.56625,2.99 -1.42886,3.94188 -0.74052,4.36562 -1.90531,-1.64021 -6.87917,-0.71417 -0.44958,4.25969 -0.396868,3.62459 -7.9375,-1.19063 v 6.72052 l 4.4452,-1.93166 -2.14354,6.50916 0.60875,12.38219 h -6.905516 l -4.10104,-1.61386 5.556246,7.9375 -6.932396,5.5299 10.556976,7.14375 -6.931866,5.52989 -8.54625,3.99511 -0.60823,-3.57188 v -11.1125 H 60.434772 l -8.096147,6.72052 h -3.228229 l -1.48156,2.40761 4.709789,1.19062 v 3.09542 l -4.33927,2.91042 -6.006353,0.50281 -5.714897,-5.7149 -0.740521,-3.57187 -3.995624,1.19062 -4.788854,3.51865 -6.82594,5.90042 -5.953125,2.19625 -3.386873,-3.96875 -0.8733321,-12.01219 0.8733321,-2.80448 h 4.682918 v -5.02708 l 3.54552,-0.95292 v -3.175 l -2.884062,-2.27531 7.646562,-6.19135 0.31781,-0.87282 4.286045,-0.79375 3.359999,-3.59823 3.995624,-6.74687 h 8.810312 l 4.7625,0.42323 3.228229,3.54552 4.815211,-1.95802 10.90062,-6.29729 6.9324,1.56114 3.28094,-5.52989 4.07416,-0.79375 1.48209,-2.67219 1.82521,-3.25458 8.361236,-6.72001 1.48157,3.54501 z m 71.62302,27.30531 8.81031,3.175 2.88407,3.14864 2.96312,-0.76739 3.62511,1.56114 3.65093,6.69365 3.67782,2.80448 v 5.15937 l -2.91042,3.54552 1.77302,4.73615 2.19573,4.31291 -2.19573,0.82011 3.30729,9.49864 -5.84771,1.19063 -1.48156,-2.01125 -3.59823,-3.175 -0.0527,-5.31802 -1.48208,-5.87354 -3.20135,-2.64584 -2.75177,2.27532 2.75177,0.92604 v 3.91604 l -1.87844,0.39687 -3.22771,3.96875 3.22771,5.13251 -1.42886,3.57187 1.82573,3.57188 -5.52989,1.19062 -0.7674,-7.9375 1.53479,-1.16375 -1.29656,-2.46083 -4.92114,2.46083 -2.16938,-1.2175 2.16938,-2.7249 -3.28094,-1.98437 2.16989,-3.175 -1.05833,-2.77813 -4.07469,-0.76739 0.52917,-4.31292 -5.95313,3.91604 -1.82572,2.75177 h -1.11105 l -1.82573,-6.35 -4.10104,-2.32854 -7.59385,-0.37052 -3.22771,-1.5875 -2.59312,-6.32312 -2.22209,-3.96875 -2.93729,-1.16427 0.39688,-3.20136 7.35562,-3.94239 4.68292,-1.5875 5.05395,1.5875 3.36001,1.98437 4.04833,1.16427 h 6.16448 l 4.33927,-3.94239 z m -42.17469,28.38999 3.06907,1.24334 1.95802,5.82083 3.88916,4.25969 3.3073,-1.37563 v 3.14813 l -3.3073,2.38125 11.19209,-0.42323 2.32802,1.24385 -5.39709,3.78324 -1.87895,2.53989 2.93729,6.29729 -3.73104,-0.0527 -12.43542,0.87282 1.53479,-4.39198 V 187.5292 l -4.60385,0.10594 0.97927,-3.25458 z"
     id="rect6820" />
</svg>
