<?xml version="1.0" encoding="UTF-8" standalone="no"?>
<svg
   xmlns:dc="http://purl.org/dc/elements/1.1/"
   xmlns:cc="http://creativecommons.org/ns#"
   xmlns:rdf="http://www.w3.org/1999/02/22-rdf-syntax-ns#"
   xmlns:svg="http://www.w3.org/2000/svg"
   xmlns="http://www.w3.org/2000/svg"
   xmlns:sodipodi="http://sodipodi.sourceforge.net/DTD/sodipodi-0.dtd"
   xmlns:inkscape="http://www.inkscape.org/namespaces/inkscape"
   id="svg5857"
   version="1.1"
   viewBox="0 0 279.4 215.9"
   height="8.5in"
   width="11in"
   sodipodi:docname="hk_map_puzzle_green.svg"
   inkscape:version="0.92.4 (5da689c313, 2019-01-14)">
  <sodipodi:namedview
     pagecolor="#ffffff"
     bordercolor="#666666"
     borderopacity="1"
     objecttolerance="10"
     gridtolerance="10"
     guidetolerance="10"
     inkscape:pageopacity="0"
     inkscape:pageshadow="2"
     inkscape:window-width="2560"
     inkscape:window-height="1017"
     id="namedview30"
     showgrid="false"
     inkscape:zoom="0.76067548"
     inkscape:cx="407.97028"
     inkscape:cy="300.45308"
     inkscape:window-x="-8"
     inkscape:window-y="-8"
     inkscape:window-maximized="1"
     inkscape:current-layer="svg5857" />
  <defs
     id="defs5851" />
  <metadata
     id="metadata5854">
    <rdf:RDF>
      <cc:Work
         rdf:about="">
        <dc:format>image/svg+xml</dc:format>
        <dc:type
           rdf:resource="http://purl.org/dc/dcmitype/StillImage" />
        <dc:title />
      </cc:Work>
    </rdf:RDF>
  </metadata>
  <path
     inkscape:connector-curvature="0"
     style="display:inline;fill:#00ff00;fill-opacity:1;stroke:none;stroke-width:1.51522887;stroke-miterlimit:4;stroke-dasharray:none;stroke-dashoffset:0;stroke-opacity:1"
     d="m 85.394716,136.03368 c 0.0578,-0.66387 1.67253,-2.27307 4.731686,-4.71555 3.39184,-2.7081 3.5547,-2.80362 3.78376,-2.21922 0.13166,0.33587 0.46426,1.13234 0.73912,1.76993 l 0.49975,1.15926 5.580668,-4.47145 5.58067,-4.47146 0.92174,0.49639 c 0.50695,0.27301 1.45848,1.12466 2.11451,1.89255 l 1.19278,1.39616 -0.67534,1.8722 c -0.37144,1.02971 -0.75656,2.48451 -0.85584,3.23288 -0.16665,1.25628 -0.21516,1.32932 -0.63215,0.95195 -0.30759,-0.27837 -1.71281,-0.54121 -4.40574,-0.82407 -2.17476,-0.22844 -4.003008,-0.36642 -4.062788,-0.30664 -0.0598,0.0598 -0.1823,0.89694 -0.27227,1.86036 -0.09,0.96341 -0.23738,1.86515 -0.32758,2.00385 -0.18404,0.28299 -13.937256,0.65156 -13.912976,0.37286 z"
     id="path6959" />
  <path
     inkscape:connector-curvature="0"
     style="display:inline;fill:#00ff00;fill-opacity:1;stroke:none;stroke-width:1.51522887;stroke-miterlimit:4;stroke-dasharray:none;stroke-dashoffset:0;stroke-opacity:1"
     d="m 148.20367,77.83304 c -2.20854,-8.11308 -2.47401,-9.31628 -2.16477,-9.81146 0.19386,-0.31041 1.56661,-2.09956 3.05057,-3.97587 l 2.6981,-3.41148 5.79016,-2.20793 5.79016,-2.20794 0.32949,-1.92622 0.32949,-1.92622 2.26868,-0.52108 2.26868,-0.52109 1.40839,0.62285 1.40838,0.62286 7.57991,-4.00153 7.5799,-4.00152 2.80633,0.17153 2.80633,0.17154 2.27179,2.20699 2.27179,2.20698 5.3381,-0.21298 c 2.93595,-0.11714 7.74681,-0.47074 10.69078,-0.78579 l 5.35269,-0.57281 3.58392,0.80185 3.58393,0.80185 4.2299,-2.11806 c 3.51208,-1.75863 4.86956,-2.62455 7.99918,-5.10261 2.94981,-2.33569 3.82128,-2.9023 4.0085,-2.60621 0.13158,0.20808 0.21112,0.45799 0.17676,0.55535 -0.0344,0.0974 -1.80641,1.59218 -3.93788,3.32182 -2.13148,1.72965 -5.10993,4.27951 -6.61879,5.66637 l -2.74338,2.52156 -5.80925,2.54489 c -4.76462,2.08726 -6.32007,2.91086 -8.65,4.58013 -2.40673,1.72429 -3.00049,2.30067 -3.88627,3.77249 -0.86119,1.43097 -1.44155,2.0082 -3.29176,3.27406 -2.07636,1.42056 -2.35946,1.53679 -3.74311,1.53679 h -1.49686 l -3.43446,-4.54358 c -1.92617,-2.54819 -3.62276,-4.54466 -3.86321,-4.54603 -0.23581,-10e-4 -1.78648,0.25312 -3.44593,0.56548 l -3.01717,0.56793 -1.48472,-0.9858 c -0.8166,-0.54219 -1.51929,-0.94699 -1.56155,-0.89957 -0.0423,0.0474 -0.44953,0.82981 -0.90505,1.73863 l -0.82823,1.65239 0.42717,2.30285 c 0.23495,1.26657 0.36595,2.36408 0.29112,2.43891 -0.0748,0.0748 -0.74615,-0.23934 -1.49183,-0.69816 l -1.35577,-0.83421 -3.01646,0.41406 c -3.16675,0.43469 -3.31414,0.50917 -4.57799,2.31357 -0.34084,0.48662 -1.25363,0.76015 -5.4376,1.62947 -2.7654,0.57458 -5.1986,1.10376 -5.40711,1.17597 -0.21656,0.075 1.04396,0.96438 2.93996,2.07434 3.18895,1.86686 14.20869,9.35366 14.34153,9.74362 0.0354,0.10398 -2.00919,0.81491 -4.54358,1.57984 l -4.60799,1.39079 -6.41447,0.17754 -6.41447,0.17755 -3.24096,1.17118 c -1.78253,0.64415 -3.34736,1.17118 -3.4774,1.17118 -0.13004,0 -1.36919,-4.16118 -2.75367,-9.24706 z"
     id="path6961" />
  <path
     inkscape:connector-curvature="0"
     style="display:inline;fill:#00ff00;fill-opacity:1;stroke:none;stroke-width:1.51522887;stroke-miterlimit:4;stroke-dasharray:none;stroke-dashoffset:0;stroke-opacity:1"
     d="m 198.30067,167.60196 -3.74177,-1.74591 -6.81538,-0.62071 c -3.74845,-0.3414 -7.98801,-0.62665 -9.42125,-0.6339 -1.43323,-0.007 -2.60587,-0.0514 -2.60587,-0.0981 0,-0.0467 0.60135,-1.57202 1.33634,-3.38956 0.735,-1.81755 1.33635,-3.32793 1.33635,-3.35641 0,-0.0285 -1.11251,-0.2669 -2.47224,-0.52982 -1.5574,-0.30115 -2.90154,-0.74417 -3.63235,-1.19723 l -1.1601,-0.71918 1.7474,-1.54368 c 0.96108,-0.84901 2.5259,-2.0099 3.47739,-2.57974 l 1.72998,-1.03607 4.09719,1.462 4.09718,1.462 1.54343,1.70923 1.54343,1.70923 1.67233,-0.40013 c 1.66876,-0.39928 1.67568,-0.39848 3.24165,0.37213 1.54283,0.75922 1.59844,0.8264 3.29455,3.97949 1.55782,2.89603 1.89099,3.33104 3.43346,4.48307 l 1.70823,1.27584 v 1.59731 c 0,1.11334 -0.10123,1.58955 -0.33409,1.57169 -0.18375,-0.0141 -2.01788,-0.81128 -4.07586,-1.77153 z"
     id="path6965" />
  <path
     inkscape:connector-curvature="0"
     style="display:inline;fill:#00ff00;fill-opacity:1;stroke:none;stroke-width:1.51522887;stroke-miterlimit:4;stroke-dasharray:none;stroke-dashoffset:0;stroke-opacity:1"
     d="m 230.08278,122.15922 c -0.11758,-0.25724 -0.3611,-2.15152 -0.54114,-4.20949 -0.18005,-2.05797 -0.4107,-4.2341 -0.51256,-4.83584 -0.17265,-1.01989 -0.0802,-1.25183 1.36315,-3.42073 1.33403,-2.00459 1.64139,-2.31561 2.22038,-2.2468 0.64931,0.0772 0.69589,0.21819 1.3786,4.17415 l 0.70658,4.09428 2.18074,2.19213 c 2.11303,2.12406 2.18074,2.23138 2.18074,3.45608 v 1.26395 h -4.38135 c -3.91309,0 -4.4042,-0.05 -4.59514,-0.46773 z"
     id="path6975" />
  <path
     inkscape:connector-curvature="0"
     style="display:inline;fill:#00ff00;fill-opacity:1;stroke:none;stroke-width:1.51522887;stroke-miterlimit:4;stroke-dasharray:none;stroke-dashoffset:0;stroke-opacity:1"
     d="m 175.99802,124.56768 c -0.80929,-1.61366 -1.43399,-2.96835 -1.38825,-3.01043 0.0458,-0.0421 3.45078,-0.81815 7.56674,-1.72461 4.11595,-0.90647 7.61865,-1.69164 7.78378,-1.74483 0.27807,-0.0896 4.57784,9.1272 4.34602,9.31591 -0.0565,0.046 -2.86892,-0.0752 -6.24988,-0.26921 -4.07388,-0.2338 -6.64299,-0.26869 -7.61718,-0.10345 -3.27555,0.5556 -2.7929,0.82331 -4.44123,-2.46338 z"
     id="path6963" />
</svg>
