<?xml version="1.0" encoding="UTF-8" standalone="no"?>
<svg
   xmlns:dc="http://purl.org/dc/elements/1.1/"
   xmlns:cc="http://creativecommons.org/ns#"
   xmlns:rdf="http://www.w3.org/1999/02/22-rdf-syntax-ns#"
   xmlns:svg="http://www.w3.org/2000/svg"
   xmlns="http://www.w3.org/2000/svg"
   xmlns:sodipodi="http://sodipodi.sourceforge.net/DTD/sodipodi-0.dtd"
   xmlns:inkscape="http://www.inkscape.org/namespaces/inkscape"
   id="svg5857"
   version="1.1"
   viewBox="0 0 279.4 215.9"
   height="8.5in"
   width="11in"
   sodipodi:docname="hk_map_puzzle_pink.svg"
   inkscape:version="0.92.4 (5da689c313, 2019-01-14)">
  <sodipodi:namedview
     pagecolor="#ffffff"
     bordercolor="#666666"
     borderopacity="1"
     objecttolerance="10"
     gridtolerance="10"
     guidetolerance="10"
     inkscape:pageopacity="0"
     inkscape:pageshadow="2"
     inkscape:window-width="2560"
     inkscape:window-height="1017"
     id="namedview30"
     showgrid="false"
     inkscape:zoom="0.53787879"
     inkscape:cx="305.14925"
     inkscape:cy="274.65653"
     inkscape:window-x="-8"
     inkscape:window-y="-8"
     inkscape:window-maximized="1"
     inkscape:current-layer="svg5857" />
  <defs
     id="defs5851" />
  <metadata
     id="metadata5854">
    <rdf:RDF>
      <cc:Work
         rdf:about="">
        <dc:format>image/svg+xml</dc:format>
        <dc:type
           rdf:resource="http://purl.org/dc/dcmitype/StillImage" />
        <dc:title />
      </cc:Work>
    </rdf:RDF>
  </metadata>
  <path
     inkscape:connector-curvature="0"
     style="display:inline;fill:#ff00ff;fill-opacity:1;stroke:none;stroke-width:1.51522887;stroke-miterlimit:4;stroke-dasharray:none;stroke-dashoffset:0;stroke-opacity:1"
     d="m 97.829382,117.77791 c 0.12245,-0.19949 0.91927,-1.35953 1.77072,-2.57785 0.851458,-1.21832 1.548098,-2.28341 1.548098,-2.36688 0,-0.0835 -0.84153,-1.05285 -1.870068,-2.1542 l -1.87008,-2.00246 2.633868,-2.0822 c 1.44863,-1.14522 2.86145,-2.20152 3.1396,-2.34734 0.27816,-0.14583 4.29428,-1.65506 8.92473,-3.35386 8.66656,-3.17955 23.89147,-7.91424 33.22844,-10.33347 2.91432,-0.75511 6.91562,-1.96425 8.89177,-2.68698 3.4286,-1.25392 3.75786,-1.32232 7.19608,-1.49487 1.98169,-0.0995 3.60509,-0.13246 3.60756,-0.0734 0.002,0.0591 0.23496,2.26609 0.51666,4.9044 l 0.51217,4.79691 -4.72615,6.74871 c -2.59939,3.71179 -4.7896,6.75491 -4.86715,6.76249 -0.0775,0.008 -0.91944,-1.30654 -1.87089,-2.92027 -0.95144,-1.61372 -1.85905,-2.93671 -2.01691,-2.93996 -0.25027,-0.005 -4.6439,1.80417 -4.87962,2.00946 -0.0487,0.0424 0.35572,1.53715 0.89868,3.32166 0.54296,1.78451 0.94361,3.28258 0.89033,3.32905 -0.0533,0.0465 -0.69823,0.35062 -1.43322,0.6759 -1.2502,0.55328 -8.34399,1.95317 -8.72678,1.72213 -0.0958,-0.0578 -0.25535,-0.80472 -0.35459,-1.6598 -0.0993,-0.85508 -0.26142,-1.67615 -0.36039,-1.82461 -0.22856,-0.34285 -3.42137,-2.50159 -3.69989,-2.50159 -0.11463,0 -0.99825,0.78379 -1.96361,1.74175 l -1.7552,1.74175 -4.46724,-0.77018 -4.46725,-0.77019 -0.2147,0.8325 c -0.20952,0.81235 -0.25639,0.83432 -1.93599,0.90726 -1.56371,0.0679 -1.78567,0.15216 -2.42471,0.92027 l -0.70344,0.84551 -2.00313,-0.55187 -2.00312,-0.55187 -4.10881,1.5646 c -2.25985,0.86052 -5.49193,1.93312 -7.18241,2.38354 -1.690478,0.45042 -3.299138,0.88638 -3.574788,0.96879 -0.37259,0.11139 -0.44407,0.0568 -0.27857,-0.21288 z"
     id="path6967" />
  <path
     inkscape:connector-curvature="0"
     style="display:inline;fill:#ff00ff;fill-opacity:1;stroke:none;stroke-width:1.51522887;stroke-miterlimit:4;stroke-dasharray:none;stroke-dashoffset:0;stroke-opacity:1"
     d="m 204.42543,94.95881 c 0.093,-0.37065 0.1674,-3.97879 0.16527,-8.01808 l -0.004,-7.34418 h 2.92657 2.92658 l 0.31968,1.067 c 0.26272,0.87689 0.24082,1.42586 -0.12291,3.0812 -0.24342,1.10781 -0.44259,2.23944 -0.44259,2.51474 0,0.47096 3.14907,4.79903 3.50696,4.81995 0.0913,0.005 0.6428,-1.34335 1.22545,-2.99708 l 1.05936,-3.00678 3.04906,-1.66503 c 1.67699,-0.91577 3.08818,-1.78239 3.13599,-1.92582 0.0478,-0.14344 -1.20197,-2.25686 -2.77729,-4.69649 -1.64533,-2.54805 -2.76208,-4.53165 -2.62419,-4.66116 0.13202,-0.12401 1.27953,-1.0697 2.55002,-2.10155 2.23097,-1.81191 2.42045,-1.90623 5.53985,-2.75783 l 3.22988,-0.88175 -0.11761,-0.94506 c -0.0647,-0.51979 -0.17574,-1.54642 -0.24679,-2.28141 l -0.12918,-1.33635 4.65924,-3.258 4.65924,-3.25801 0.21927,0.84618 c 0.1791,0.69117 0.40233,0.88947 1.21863,1.08252 0.54966,0.12999 0.96262,0.31328 0.9177,0.40731 -0.0449,0.094 -0.59933,1.17564 -1.23204,2.40359 -0.6327,1.22794 -1.1127,2.26862 -1.06667,2.31262 0.046,0.044 1.21224,0.38834 2.59155,0.7652 1.37931,0.37686 2.56103,0.7384 2.62604,0.80341 0.065,0.065 0.33473,1.6025 0.59938,3.41664 l 0.48117,3.29843 -1.31341,1.65442 -1.31341,1.65442 1.50844,3.00774 1.50844,3.00775 1.14905,-1.3213 c 0.63198,-0.72671 1.19899,-1.26115 1.26001,-1.18765 0.061,0.0735 0.51629,1.49963 1.01171,3.16919 l 0.90075,3.03556 1.61034,-0.18219 c 0.8857,-0.10021 1.72296,-0.25179 1.86058,-0.33684 0.15073,-0.0932 0.18137,-1.9798 0.0771,-4.74455 l -0.17316,-4.5899 1.6924,-4.46218 1.6924,-4.46217 1.26352,1.00797 1.26353,1.00796 -0.17189,2.00452 c -0.0971,1.13289 -0.62794,3.46265 -1.22068,5.35781 l -1.04878,3.35329 0.36604,5.06571 c 0.20133,2.78613 0.32367,5.14182 0.27187,5.23488 -0.0518,0.0931 -1.34774,0.96831 -2.87986,1.94502 l -2.78568,1.77585 -3.56552,-1.69698 c -1.96104,-0.93333 -5.30331,-2.6971 -7.42726,-3.91948 l -3.86174,-2.22251 -4.69089,2.33836 c -2.57999,1.2861 -6.52884,3.46667 -8.77523,4.84572 l -4.08434,2.50735 -6.38624,1.07097 c -3.51243,0.58903 -6.4683,1.07096 -6.5686,1.07096 -0.10029,0 -0.10624,-0.30326 -0.0132,-0.67391 z"
     id="path6969" />
  <path
     inkscape:connector-curvature="0"
     style="display:inline;fill:#ff00ff;fill-opacity:1;stroke:none;stroke-width:1.51522887;stroke-miterlimit:4;stroke-dasharray:none;stroke-dashoffset:0;stroke-opacity:1"
     d="m 159.2309,131.38879 c -0.85536,-0.80703 -2.11716,-1.79157 -2.80399,-2.18787 l -1.2488,-0.72053 0.39256,-1.15208 0.39255,-1.15208 4.57541,-1.37406 c 2.51648,-0.75574 4.59704,-1.34385 4.62346,-1.30693 0.0264,0.0369 0.56377,0.83584 1.1941,1.77535 l 1.14606,1.7082 -0.18567,2.69591 c -0.10213,1.48275 -0.23406,2.74429 -0.29318,2.80341 -0.0591,0.0591 -1.48671,0.16837 -3.17241,0.24276 l -3.06491,0.13525 z"
     id="path6971" />
  <path
     inkscape:connector-curvature="0"
     style="display:inline;fill:#ff00ff;fill-opacity:1;stroke:none;stroke-width:1.51522887;stroke-miterlimit:4;stroke-dasharray:none;stroke-dashoffset:0;stroke-opacity:1"
     d="m 163.01854,164.75125 c 0.11207,-0.51611 1.20527,-8.07708 1.20527,-8.33613 0,-0.0617 1.10095,-0.11221 2.44655,-0.11221 2.33555,0 2.52656,0.0455 4.2095,1.00226 0.96961,0.55124 2.50404,1.18267 3.40985,1.40316 l 1.64691,0.40091 -1.12655,2.80633 -1.12654,2.80633 -2.79216,0.17402 c -7.70729,0.48035 -8.00736,0.47484 -7.87283,-0.14467 z"
     id="path6973" />
</svg>
