<?xml version="1.0" encoding="UTF-8" standalone="no"?>
<!-- Created with Inkscape (http://www.inkscape.org/) -->

<svg
   xmlns:dc="http://purl.org/dc/elements/1.1/"
   xmlns:cc="http://creativecommons.org/ns#"
   xmlns:rdf="http://www.w3.org/1999/02/22-rdf-syntax-ns#"
   xmlns:svg="http://www.w3.org/2000/svg"
   xmlns="http://www.w3.org/2000/svg"
   xmlns:sodipodi="http://sodipodi.sourceforge.net/DTD/sodipodi-0.dtd"
   xmlns:inkscape="http://www.inkscape.org/namespaces/inkscape"
   width="279.39999mm"
   height="215.89999mm"
   viewBox="0 0 279.4 215.9"
   version="1.1"
   id="svg8"
   inkscape:version="0.92.4 (5da689c313, 2019-01-14)"
   sodipodi:docname="hk_map_puzzle_pieces_land.svg">
  <defs
     id="defs2">
    <circle
       sodipodi:ry="3"
       sodipodi:rx="3"
       sodipodi:cy="0"
       sodipodi:cx="0"
       style="fill:#ffffff;stroke:#000000;stroke-width:1"
       r="3"
       cy="0"
       cx="0"
       id="station" />
    <rect
       style="fill:#ffffff;stroke:#000000;stroke-width:1"
       rx="3.5"
       height="10"
       width="6"
       y="-5"
       x="-3"
       id="interchange" />
    <path
       transform="matrix(0.212132,0.212132,-0.212132,0.212132,-1.35,-1.8)"
       d="M 8,0 L 0,4 L 0,22 L 11,27 L 11,48 L 19,48 L 19,27 L 30,22 L 30,4 L 22,0 L 22,16 L 15,20 L 8,16 L 8,0"
       style="fill:#ffffff;stroke:#000000;stroke-width:2"
       id="depot" />
  </defs>
  <sodipodi:namedview
     id="base"
     pagecolor="#ffffff"
     bordercolor="#666666"
     borderopacity="1.0"
     inkscape:pageopacity="0.0"
     inkscape:pageshadow="2"
     inkscape:zoom="1.4"
     inkscape:cx="222.99467"
     inkscape:cy="233.16805"
     inkscape:document-units="mm"
     inkscape:current-layer="g5082"
     showgrid="true"
     units="mm"
     showguides="true"
     inkscape:window-width="1920"
     inkscape:window-height="1017"
     inkscape:window-x="-8"
     inkscape:window-y="-8"
     inkscape:window-maximized="1"
     inkscape:snap-to-guides="false"
     inkscape:snap-grids="false"
     inkscape:guide-bbox="true">
    <inkscape:grid
       type="xygrid"
       id="grid815" />
    <sodipodi:guide
       position="0,150"
       orientation="0,1"
       id="guide4520"
       inkscape:locked="false"
       inkscape:label="printbed x"
       inkscape:color="rgb(0,0,255)" />
    <sodipodi:guide
       position="150,0"
       orientation="1,0"
       id="guide4522"
       inkscape:locked="false"
       inkscape:label="printbed y"
       inkscape:color="rgb(0,0,255)" />
  </sodipodi:namedview>
  <metadata
     id="metadata5">
    <rdf:RDF>
      <cc:Work
         rdf:about="">
        <dc:format>image/svg+xml</dc:format>
        <dc:type
           rdf:resource="http://purl.org/dc/dcmitype/StillImage" />
        <dc:title />
      </cc:Work>
    </rdf:RDF>
  </metadata>
  <g
     inkscape:label="land"
     inkscape:groupmode="layer"
     id="g5082"
     transform="translate(0,-81.1)"
     style="display:inline">
    <path
       style="opacity:1;fill:#ff0000;fill-opacity:1;stroke:none;stroke-width:0.25253814;stroke-miterlimit:4;stroke-dasharray:none;stroke-dashoffset:0;stroke-opacity:1"
       d="m 34.488144,278.51437 c -0.05703,-0.057 -0.117168,-0.30141 -0.14387,-0.58465 l -0.04588,-0.48666 -0.612598,-0.58451 c -0.336928,-0.32147 -0.667115,-0.60223 -0.733751,-0.6239 -0.06663,-0.0217 -0.31764,0.03 -0.557789,0.11475 -0.431361,0.15228 -0.439444,0.15972 -0.669015,0.61558 l -0.232378,0.46145 -0.30494,-0.0418 c -0.167717,-0.023 -0.383432,-0.0426 -0.479362,-0.0435 -0.133315,-0.001 -0.22706,-0.0793 -0.397769,-0.33103 -0.214201,-0.31582 -0.257974,-0.34271 -1.069078,-0.65666 l -0.845733,-0.32735 -0.175048,-0.49422 c -0.09628,-0.27182 -0.165529,-0.52428 -0.153895,-0.56103 0.01164,-0.0367 0.1602,-0.51209 0.33015,-1.0563 0.178451,-0.57145 0.349956,-1.0052 0.405947,-1.02669 0.06021,-0.0231 0.199827,0.0797 0.368412,0.2712 0.149304,0.16962 0.294838,0.30839 0.32341,0.30839 0.02857,0 0.271219,-0.38336 0.539216,-0.85192 0.267999,-0.46855 0.492678,-0.85948 0.49929,-0.86873 0.0066,-0.009 0.272566,-0.0651 0.591002,-0.12421 l 0.578977,-0.10739 2.65e-4,-1.64646 c 2.01e-4,-1.3893 0.01923,-1.71363 0.121835,-2.07657 0.12224,-0.4325 0.166759,-0.48747 0.485968,-0.60013 0.164576,-0.0581 0.175938,-0.0925 0.215244,-0.65143 0.02283,-0.32456 0.0617,-1.13647 0.08638,-1.80424 0.03931,-1.06344 0.05898,-1.21781 0.158454,-1.24382 0.08217,-0.0215 0.16265,-0.22558 0.291113,-0.73825 0.09765,-0.3897 0.177543,-0.7368 0.177543,-0.77133 0,-0.0345 -0.333922,-0.1933 -0.74205,-0.35283 -0.568656,-0.22226 -0.780775,-0.34011 -0.907764,-0.50431 -0.09114,-0.11784 -0.148471,-0.24216 -0.127402,-0.27625 0.02106,-0.0341 0.234122,-0.0989 0.47345,-0.14409 0.426625,-0.0805 0.435142,-0.0862 0.435142,-0.29345 0,-0.11624 -0.03191,-0.46583 -0.07091,-0.77687 l -0.07091,-0.56553 0.237953,-0.19089 c 0.233053,-0.18697 0.237948,-0.20081 0.237948,-0.67244 0,-0.46522 -0.0081,-0.48935 -0.239673,-0.71181 -0.131818,-0.12664 -0.297638,-0.3107 -0.368488,-0.40901 -0.127399,-0.17679 -0.127336,-0.18251 0.0058,-0.52031 0.07405,-0.18786 0.134628,-0.38622 0.134628,-0.4408 0,-0.0546 -0.120272,-0.22973 -0.267269,-0.3892 l -0.267269,-0.28995 v -0.74423 c -2e-6,-0.63362 -0.01569,-0.74422 -0.105537,-0.74422 -0.106145,0 -0.104648,-0.0498 0.01746,-0.58041 0.03762,-0.16347 0.02935,-0.16666 -1.111091,-0.42856 -0.611659,-0.14047 -0.64138,-0.15607 -0.958853,-0.50344 l -0.327631,-0.35848 h -1.086189 -1.086188 l -0.213911,1.08579 c -0.117652,0.59718 -0.229232,1.1384 -0.247959,1.20271 -0.03163,0.10864 -0.209071,0.11693 -2.501784,0.11693 h -2.467741 v -0.34001 c 0,-0.32763 0.01703,-0.35866 0.467492,-0.85193 0.450666,-0.49348 0.467501,-0.52418 0.467722,-0.85286 l 2.29e-4,-0.34095 0.773616,-0.83923 0.773615,-0.83923 1.080567,-0.4794 c 0.594312,-0.26368 1.102135,-0.49984 1.128492,-0.52482 0.02635,-0.025 -0.04268,-0.33805 -0.153434,-0.69573 l -0.201361,-0.65031 h -0.457478 c -0.464066,0 -0.538591,-0.0419 -0.538591,-0.30256 0,-0.0501 0.222933,-0.25064 0.495403,-0.44555 l 0.495406,-0.35438 -0.03759,-0.73499 c -0.02151,-0.42046 -0.0691,-0.75542 -0.111204,-0.78273 -0.04049,-0.0263 -0.530696,-0.23663 -1.089356,-0.46749 -0.779632,-0.32218 -1.032608,-0.45676 -1.088284,-0.57896 -0.0399,-0.0876 -0.06088,-0.17086 -0.04663,-0.18511 0.01426,-0.0143 0.398677,-0.18437 0.854284,-0.37805 l 0.828376,-0.35215 0.240842,-0.39841 0.240842,-0.39842 0.561108,-0.0692 c 0.510053,-0.0629 0.625498,-0.10693 1.26888,-0.48442 l 0.707777,-0.41527 h 0.604541 0.604541 l 0.190518,-0.5362 c 0.164828,-0.4639 0.197702,-0.51466 0.243785,-0.37641 0.05013,0.15038 0.102055,0.16478 0.88006,0.24411 l 0.826793,0.0843 0.144328,0.39584 c 0.105984,0.29067 0.189106,0.41285 0.31288,0.45991 l 0.168553,0.0641 -0.04772,0.71751 c -0.02625,0.39464 -0.05316,0.72402 -0.05981,0.73197 -0.0066,0.008 -0.266173,0.0806 -0.57672,0.16143 -0.310544,0.0808 -0.59228,0.17114 -0.626075,0.20067 -0.0338,0.0295 -0.111535,0.37222 -0.172757,0.76152 l -0.111311,0.70783 0.280022,1.19997 c 0.154014,0.65999 0.295008,1.21496 0.313325,1.23328 0.01831,0.0183 0.385236,0.16083 0.815377,0.31671 0.647933,0.2348 0.866815,0.35204 1.276096,0.68351 l 0.494017,0.40011 0.0032,0.34244 c 0.0019,0.18834 0.02045,0.42888 0.04156,0.53453 0.03279,0.16426 -0.01564,0.25175 -0.334087,0.60352 -0.204838,0.22628 -0.372433,0.42839 -0.372433,0.44915 0,0.0354 0.343334,0.14276 0.974879,0.30483 0.255648,0.0656 0.314608,0.13213 0.913021,1.03032 l 0.639726,0.96019 1.124907,0.21343 c 0.618699,0.11739 1.187948,0.22876 1.264997,0.24749 0.12773,0.0311 0.147714,-0.0105 0.226542,-0.47134 0.04755,-0.27798 0.119814,-0.53145 0.160589,-0.56327 0.04077,-0.0318 0.265226,-0.1213 0.498779,-0.19884 l 0.424643,-0.14098 0.532791,0.48242 0.532792,0.48242 -0.0387,0.394 c -0.02127,0.2167 -0.03869,0.46802 -0.03869,0.55849 0,0.14252 -0.02252,0.15883 -0.168714,0.12214 -0.121063,-0.0304 -0.281255,0.0195 -0.567156,0.1765 -0.219141,0.12037 -0.398565,0.24892 -0.398721,0.28567 -1.33e-4,0.0367 0.05867,0.2607 0.130728,0.49768 0.07206,0.23697 0.123232,0.43863 0.113723,0.44814 -0.0095,0.01 -0.421989,0.0801 -0.916625,0.15678 -0.494636,0.0767 -0.932225,0.17573 -0.972423,0.22003 -0.0402,0.0443 -0.704065,0.75726 -1.475262,1.58438 l -1.402177,1.50384 -0.185182,1.00909 c -0.101849,0.55501 -0.174641,1.05676 -0.161764,1.11501 0.01289,0.0583 0.468829,0.63296 1.013219,1.27713 l 0.989799,1.17121 0.379957,-0.20831 c 0.208976,-0.11457 0.507743,-0.28039 0.66393,-0.36849 l 0.283974,-0.16018 2.65e-4,-0.74888 2.64e-4,-0.74887 0.503503,-0.2002 c 0.322587,-0.12827 0.641495,-0.32033 0.88755,-0.53454 0.211227,-0.18389 0.556868,-0.48172 0.76809,-0.66184 l 0.384043,-0.3275 1.417529,-0.083 c 1.627746,-0.0953 1.602563,-0.10002 2.642822,0.48997 0.704919,0.39981 1.019077,0.50821 1.313022,0.45307 0.278463,-0.0522 0.612796,-0.41687 0.672105,-0.733 0.03924,-0.20916 0.07235,-0.23718 0.362619,-0.30681 l 0.31944,-0.0766 0.04714,-0.47839 c 0.02593,-0.26312 0.05839,-0.49659 0.07213,-0.51884 0.01376,-0.0222 0.271251,-0.001 0.572236,0.0466 0.300984,0.0479 0.572881,0.0712 0.604213,0.0519 0.03133,-0.0194 0.05697,-0.19405 0.05697,-0.38818 0,-0.35188 7.94e-4,-0.35322 0.258318,-0.43037 0.552818,-0.16563 0.559943,-0.16018 0.916474,0.70079 l 0.322247,0.7782 1.038847,-0.0435 c 0.571365,-0.024 1.385152,-0.0625 1.808416,-0.0858 l 0.76957,-0.0422 0.255627,0.385 0.255627,0.38501 -0.0932,0.34243 c -0.08731,0.3208 -0.116766,0.35377 -0.466212,0.52191 -0.344739,0.16586 -0.396253,0.2221 -0.679572,0.74185 l -0.306556,0.56239 -0.452882,0.0428 c -0.249082,0.0235 -0.51625,0.043 -0.593704,0.0432 -0.102918,2.7e-4 -0.28063,-0.1948 -0.660218,-0.72501 l -0.51939,-0.72549 -0.542496,-0.11463 c -0.298374,-0.0631 -0.605518,-0.12955 -0.682543,-0.14779 -0.113197,-0.0268 -0.199758,0.0542 -0.451469,0.42251 -0.172958,0.25307 -0.44291,0.5448 -0.607156,0.65613 -0.261392,0.17717 -0.300865,0.23731 -0.339907,0.51783 l -0.04417,0.31738 h -0.364982 -0.364985 l -0.133003,0.30068 c -0.07315,0.16537 -0.154149,0.30035 -0.179991,0.29996 -0.02585,-5.3e-4 -0.194588,-0.0455 -0.374988,-0.10023 -0.437563,-0.13274 -0.440471,-0.13196 -0.439915,0.11765 2.64e-4,0.11944 -0.03432,0.60052 -0.07686,1.06908 -0.05583,0.61501 -0.1015,0.85192 -0.164235,0.85192 -0.0478,0 -0.234908,0.0317 -0.415806,0.0705 -0.292248,0.0627 -0.342151,0.0999 -0.447749,0.33409 -0.0666,0.1477 -0.165785,0.26342 -0.225626,0.26326 -0.05873,-1.3e-4 -0.525373,-0.0752 -1.036982,-0.16672 -0.511606,-0.0915 -0.942636,-0.154 -0.957842,-0.13879 -0.03998,0.04 -0.2965,2.85416 -0.263199,2.88746 0.01537,0.0154 0.414094,-0.0197 0.886066,-0.0778 l 0.858128,-0.10578 0.112847,0.14961 c 0.07909,0.10485 0.137835,0.40957 0.196377,1.0187 l 0.08353,0.8691 1.199652,2.07529 c 0.65981,1.14141 1.226254,2.12492 1.258764,2.18557 0.05073,0.0947 -0.0046,0.12105 -0.390697,0.18624 -0.247396,0.0418 -0.540012,0.0917 -0.650262,0.11089 -0.189523,0.033 -0.229594,-0.004 -0.734991,-0.68617 -0.688501,-0.92881 -0.694976,-0.93472 -1.080905,-0.9878 -0.317637,-0.0437 -0.334663,-0.0577 -0.591923,-0.4874 -0.259136,-0.43284 -0.275111,-0.44581 -0.737259,-0.59861 -0.336015,-0.1111 -0.543539,-0.22906 -0.71887,-0.40862 -0.234627,-0.24028 -0.252958,-0.29245 -0.380918,-1.08422 -0.07394,-0.4575 -0.142137,-0.85679 -0.151559,-0.88732 -0.0094,-0.0305 -0.504917,0.33941 -1.101106,0.82209 l -1.08396,0.87762 v 0.55379 0.55379 l 0.872839,1.79025 0.872839,1.79026 -0.0472,1.09346 c -0.02596,0.60141 -0.06486,1.09347 -0.08644,1.09347 -0.02159,0 -0.190159,-0.0629 -0.374618,-0.13968 l -0.335378,-0.13969 -0.835216,-1.59696 c -0.459369,-0.87833 -0.850508,-1.59723 -0.869195,-1.59757 -0.01868,-2.6e-4 -0.686393,0.65337 -1.483789,1.45267 l -1.449811,1.45328 -0.01961,0.35783 -0.0196,0.35782 -0.334087,0.12655 c -0.398052,0.15077 -0.337627,0.14697 -0.455943,0.0287 z"
       id="path5062"
       inkscape:connector-curvature="0" />
    <path
       style="opacity:1;fill:#00ff00;fill-opacity:1;stroke:none;stroke-width:0.71428573;stroke-miterlimit:4;stroke-dasharray:none;stroke-dashoffset:0;stroke-opacity:1"
       d="m 103.81307,282.52949 c -0.49815,-0.70403 -0.52696,-0.84121 -0.40593,-1.9331 0.0717,-0.64641 0.11941,-2.1809 0.10613,-3.40998 l -0.0242,-2.23469 0.82983,-0.92297 c 0.66638,-0.74118 0.85017,-1.10134 0.93312,-1.82855 0.0914,-0.80144 0.0247,-1.03599 -0.58037,-2.03951 -0.37602,-0.62366 -0.78766,-1.24024 -0.91477,-1.37016 -0.3332,-0.34059 -1.70304,-0.30539 -1.83836,0.0472 -0.0606,0.15796 -0.34153,0.28349 -0.63443,0.28349 -0.69545,1e-5 -1.670424,1.15092 -1.401171,1.65403 0.128501,0.2401 0.0836,0.45021 -0.16066,0.75187 -0.304337,0.37584 -0.461918,0.40829 -1.541286,0.31742 l -1.20229,-0.10122 -0.512445,0.86231 c -0.393832,0.66271 -0.623493,0.86231 -0.992188,0.86231 -0.442592,0 -0.479742,-0.0659 -0.479742,-0.85045 0,-0.46774 0.07408,-0.85044 0.164626,-0.85044 0.09054,0 0.36694,-0.30023 0.614212,-0.66718 0.348253,-0.5168 0.561396,-0.65625 0.945674,-0.61871 0.272849,0.0267 0.634288,-0.0662 0.803198,-0.20641 0.442926,-0.36759 0.390782,-1.72716 -0.105418,-2.74848 -0.380873,-0.78396 -0.478745,-0.85763 -1.275667,-0.96031 -1.26083,-0.16246 -1.86462,-0.32638 -1.514097,-0.41108 0.161692,-0.0391 0.435613,-0.31079 0.608708,-0.60382 0.29576,-0.50068 0.293021,-0.60866 -0.04547,-1.7923 l -0.360191,-1.25951 0.460187,-0.30153 c 0.41343,-0.27089 0.460188,-0.43301 0.460188,-1.59562 0,-1.60815 -0.522259,-3.08648 -1.386203,-3.92385 l -0.631169,-0.61175 -1.342487,0.71597 c -1.306037,0.69654 -1.356903,0.70755 -1.873383,0.40576 -0.677926,-0.39614 -1.592064,-2.0227 -1.447485,-2.57557 0.05882,-0.22495 0.275778,-0.46257 0.482121,-0.52806 0.318059,-0.10095 0.35555,-0.22363 0.246304,-0.80598 -0.07088,-0.3778 -0.205709,-0.83049 -0.299628,-1.00598 -0.216789,-0.40507 -1.410105,-0.80713 -1.835105,-0.61829 -0.177615,0.0789 -0.713666,0.12235 -1.191225,0.0965 -1.817741,-0.0983 -3.174744,0.62354 -3.188666,1.69622 -0.0037,0.28815 -0.241173,0.70921 -0.586124,1.03944 -0.956315,0.91548 -1.634214,2.30932 -1.786554,3.67338 -0.07545,0.67563 -0.25424,1.39617 -0.397306,1.6012 -0.143063,0.20503 -0.260114,0.55938 -0.260114,0.78745 0,0.70997 -0.421453,0.61011 -1.955607,-0.46333 l -1.483138,-1.03775 -0.831966,0.4042 c -0.899084,0.43681 -0.9885,0.69215 -0.543632,1.55243 0.273495,0.52888 0.268621,0.55758 -0.09469,0.55758 -0.247282,0 -0.701095,-0.41605 -1.280522,-1.17397 -1.064977,-1.39305 -1.699178,-2.02565 -2.238708,-2.23308 -0.258707,-0.0995 -0.480928,-0.45471 -0.640133,-1.02335 -0.2916,-1.04149 -0.381148,-1.1127 -1.069922,-0.85083 -0.374743,0.14248 -0.5514,0.14288 -0.598575,10e-4 -0.03681,-0.1104 -0.3542,-0.20076 -0.705313,-0.20076 -0.605396,0 -0.653373,-0.0505 -0.928336,-0.97636 -0.159472,-0.53699 -0.424111,-1.1246 -0.588086,-1.3058 -0.272781,-0.30141 -0.268833,-0.33871 0.04639,-0.43846 0.189492,-0.06 1.029872,-0.0307 1.867511,0.065 1.324258,0.15129 1.743435,0.11859 3.212491,-0.25067 1.912771,-0.48079 2.029394,-0.62939 1.482297,-1.8887 -0.186407,-0.42907 -0.357511,-0.80834 -0.380225,-0.84283 -0.02273,-0.0345 -2.329656,-0.12707 -5.12653,-0.20576 -4.371483,-0.12298 -5.165288,-0.19036 -5.655675,-0.48003 -0.516361,-0.30502 -0.658421,-0.31204 -1.498163,-0.074 -1.390335,0.39413 -1.712172,0.27868 -2.265125,-0.81252 -0.269451,-0.53173 -0.723384,-1.0846 -1.036195,-1.26203 -0.625592,-0.35485 -0.663959,-0.4455 -0.838883,-1.98201 -0.114049,-1.0018 -0.189423,-1.14424 -0.850024,-1.60639 -0.53835,-0.37663 -0.786413,-0.72597 -0.964002,-1.35757 -0.131516,-0.46774 -0.564305,-1.23911 -0.961755,-1.71414 -0.399917,-0.47798 -1.138949,-1.82836 -1.654857,-3.02381 -0.759587,-1.76009 -1.030655,-2.20228 -1.463744,-2.38783 l -0.531519,-0.22771 0.525105,-0.009 c 0.288809,-0.005 1.030523,-0.26365 1.648257,-0.57548 1.636953,-0.82633 3.055371,-0.8035 4.403053,0.0709 1.382453,0.89694 2.097701,1.71617 2.786689,3.19179 0.328266,0.70306 0.743739,1.38342 0.923272,1.5119 0.635539,0.45485 1.389165,2.00137 1.268724,2.60357 -0.09738,0.4869 2.46e-4,0.66363 0.746572,1.35158 0.832147,0.76705 0.855105,0.81798 0.745078,1.65325 -0.1093,0.82976 -0.08841,0.87789 0.561488,1.29359 l 0.675013,0.43176 1.863127,-1.05491 c 1.726687,-0.97766 1.892615,-1.12346 2.265786,-1.99091 0.221461,-0.5148 0.494323,-0.93601 0.606356,-0.93601 0.112038,0 0.45249,0.20935 0.756571,0.46521 0.796996,0.67063 1.771951,0.90126 2.50867,0.59344 0.360905,-0.15079 0.753407,-0.18875 1.00176,-0.0969 0.292214,0.10809 0.546704,0.0422 0.894842,-0.23162 l 0.486495,-0.38268 1.764533,0.95123 c 2.951869,1.59131 6.227897,2.16912 6.495539,1.14565 0.123894,-0.47376 0.214048,-0.46152 0.810741,0.11015 0.379336,0.36343 0.894488,0.54594 2.183705,0.77364 l 1.687253,0.29802 3.401787,-1.08153 c 2.352768,-0.74802 3.674137,-1.07309 4.284978,-1.05417 0.487767,0.0151 1.293635,-0.13442 1.799928,-0.33398 0.830654,-0.32741 0.967206,-0.3349 1.45419,-0.0797 0.503118,0.26361 0.617532,0.24512 1.79085,-0.28929 0.68936,-0.314 1.7298,-0.62785 2.31207,-0.69745 1.03039,-0.12317 1.07145,-0.11023 1.53677,0.48434 0.69012,0.8818 2.53821,1.42488 5.44273,1.5994 l 2.27862,0.13691 0.693,0.82905 c 0.61615,0.73711 0.78078,0.82905 1.48444,0.82905 0.59128,0 1.04002,-0.16728 1.77436,-0.66145 0.54061,-0.36381 1.20825,-0.66099 1.48365,-0.66041 0.91241,0.002 2.00496,0.40407 2.57959,0.94951 0.6155,0.58422 1.38991,0.93932 2.04852,0.93932 0.33887,0 0.58586,0.33889 1.31124,1.79914 l 0.89372,1.79915 -0.52034,-0.13315 c -1.01373,-0.25939 -1.24655,-0.18792 -1.4299,0.43893 -0.15265,0.52191 -0.0837,0.74404 0.54999,1.77062 0.46625,0.75539 0.94581,1.27937 1.34525,1.46985 0.62485,0.29797 0.76129,0.65613 0.44212,1.1606 -0.12592,0.19902 0.071,0.55803 0.72553,1.32292 0.83363,0.97415 0.88525,1.09369 0.71661,1.65951 -0.0999,0.33536 -0.34009,0.66001 -0.53365,0.72144 -0.2735,0.0868 -0.35191,0.29835 -0.35191,0.94941 0,0.80026 0.0247,0.83771 0.55346,0.83771 0.30441,0 0.679,0.12553 0.83242,0.27896 0.21819,0.21818 0.62254,0.25831 1.85614,0.18421 1.25782,-0.0756 1.48151,-0.0522 1.1047,0.11557 -0.25986,0.11567 -1.12156,0.25685 -1.9149,0.31373 -1.29997,0.0932 -1.50994,0.16529 -2.12611,0.72978 -0.9436,0.86445 -0.9205,1.47495 0.0927,2.44989 1.30761,1.25822 1.55234,2.0423 1.56041,4.99929 0.004,1.40323 -0.0581,2.87865 -0.13754,3.27869 l -0.14451,0.72736 0.81527,-0.12326 c 0.44839,-0.0678 1.04913,-0.16799 1.33497,-0.22266 0.43325,-0.0829 0.51972,-0.0335 0.51972,0.29666 0,0.2655 0.21503,0.49859 0.65233,0.70712 0.70863,0.33792 0.87991,0.79103 0.61237,1.61994 -0.20717,0.64186 -0.69773,0.69108 -0.69773,0.07 0,-0.40711 -0.46617,-0.88053 -2.03624,-2.06792 -0.17855,-0.13504 -0.32039,0.0203 -0.54838,0.60077 -0.16915,0.43061 -0.37259,0.78292 -0.4521,0.78292 -0.0795,0 -0.30101,-0.21477 -0.49222,-0.47727 l -0.34767,-0.47727 -1.76014,0.36102 -1.76013,0.36103 -1.11499,-0.4928 c -1.30981,-0.5789 -1.63197,-1.22611 -0.94985,-1.90823 0.46319,-0.46319 0.50204,-1.26889 0.10681,-2.21482 -0.15592,-0.37316 -0.28349,-0.99509 -0.28349,-1.38206 0,-0.91027 -0.45896,-1.32912 -1.4564,-1.32912 -0.81242,0 -1.30641,-0.3675 -1.12599,-0.83766 0.0651,-0.16961 -0.15492,-0.48461 -0.57234,-0.81947 l -0.67806,-0.54397 0.42449,-1.27558 0.42449,-1.27559 -0.39798,-0.42362 c -0.33302,-0.35449 -0.39797,-0.65952 -0.39797,-1.86901 0,-0.99152 -0.12091,-1.76856 -0.38506,-2.47457 -0.33536,-0.89632 -0.35663,-1.14213 -0.16473,-1.90421 0.12118,-0.48126 0.18816,-0.89668 0.14883,-0.92313 -0.0393,-0.0265 -0.59332,-0.49095 -1.2311,-1.0322 l -1.15959,-0.98409 h -1.4075 c -0.77412,0 -1.46696,0.0595 -1.53963,0.13214 -0.0727,0.0727 -0.51208,0.10878 -0.97644,0.0802 -0.82798,-0.0509 -0.8443,-0.0407 -0.8443,0.52932 0,0.48055 0.0753,0.58124 0.43476,0.58124 0.23912,0 0.86715,0.36144 1.39562,0.8032 0.9425,0.78784 0.96669,0.83439 1.2658,2.43488 0.38828,2.07763 0.27622,2.74321 -0.48059,2.85429 -0.48866,0.0717 -0.61392,-0.0147 -1.01597,-0.70073 -0.26316,-0.44904 -0.73379,-0.91376 -1.10431,-1.09046 l -0.64571,-0.30791 -0.6335,1.06679 c -0.60658,1.02144 -0.67771,1.07516 -1.67295,1.26342 l -1.03943,0.19661 -0.0573,0.99703 c -0.0518,0.9012 -0.11969,1.03744 -0.70637,1.41741 -0.626,0.40543 -0.64916,0.46281 -0.65141,1.61394 -0.002,0.95643 0.12236,1.46333 0.62529,2.55134 0.59276,1.28233 0.67415,1.37075 1.46466,1.59119 1.15971,0.32339 2.09732,1.14567 1.94616,1.70676 -0.0659,0.24474 -0.23891,0.40671 -0.40366,0.37797 -0.18945,-0.033 -0.38019,0.22145 -0.55633,0.74229 -0.21526,0.63645 -0.39594,0.83477 -0.91731,1.00684 -0.35708,0.11785 -0.64925,0.2374 -0.64925,0.26566 0,0.0283 0.50625,1.11767 1.12499,2.4209 0.61874,1.30324 1.17671,2.57561 1.23993,2.82751 0.0632,0.25189 0.3718,0.7004 0.68572,0.9967 0.49859,0.47059 0.55471,0.62429 0.4438,1.2155 -0.1728,0.9211 -0.15899,0.9086 -1.28191,1.1599 -0.68327,0.15291 -1.20233,0.16483 -1.66109,0.0382 -0.55101,-0.15214 -0.74314,-0.1228 -1.10276,0.16841 -0.72077,0.58364 -1.35859,0.4498 -1.96926,-0.41324 z"
       id="path5064"
       inkscape:connector-curvature="0" />
    <path
       style="opacity:1;fill:#ffff00;fill-opacity:1;stroke:none;stroke-width:0.50507629;stroke-miterlimit:4;stroke-dasharray:none;stroke-dashoffset:0;stroke-opacity:1"
       d="m 127.29058,236.86108 -0.82561,-1.65749 -0.57507,-0.0869 c -0.3163,-0.0478 -0.73164,-0.11661 -0.92298,-0.1529 -0.19135,-0.0363 -0.67244,-0.35394 -1.06908,-0.70589 -0.59739,-0.53008 -0.90624,-0.68956 -1.79936,-0.92913 -1.71724,-0.46064 -2.1626,-0.40998 -3.33177,0.37896 -1.30805,0.88266 -1.51103,0.8722 -2.45561,-0.12654 l -0.75162,-0.79472 -2.34706,-0.12863 c -1.91967,-0.1052 -2.55236,-0.19293 -3.4745,-0.48177 -1.07365,-0.33629 -1.15272,-0.38822 -1.65723,-1.08847 -0.40984,-0.56885 -0.59137,-0.72067 -0.80181,-0.67055 -0.14961,0.0356 -0.83327,0.10719 -1.51925,0.15903 -1.06138,0.0802 -1.40441,0.17028 -2.30227,0.60447 l -1.05506,0.51021 -0.59518,-0.26327 -0.59519,-0.26328 -1.01483,0.40313 c -1.250904,0.49691 -1.677005,0.523 -1.673653,0.10246 0.0049,-0.62004 0.389946,-2.81882 0.506833,-2.89456 0.06689,-0.0434 1.03586,-0.80044 2.15326,-1.68243 l 2.03163,-1.60362 -0.0814,-1.20271 -0.0814,-1.20271 -1.09638,-1.04405 c -0.603,-0.57423 -1.35471,-1.26026 -1.67046,-1.52452 l -0.574083,-0.48047 -0.528402,0.51597 c -0.35741,0.349 -0.528402,0.63265 -0.528402,0.87655 0,0.2698 -0.116668,0.42942 -0.46341,0.634 l -0.463412,0.27342 -0.583359,-0.69453 c -0.338767,-0.40333 -0.825831,-1.25483 -1.161664,-2.03088 -0.318071,-0.73499 -0.747207,-1.71367 -0.953637,-2.17485 l -0.375328,-0.8385 -1.307054,0.64761 -1.307055,0.64761 -0.734992,-0.50661 c -0.593492,-0.40908 -0.857197,-0.5074 -1.369755,-0.51069 -0.80839,-0.005 -0.812708,-0.19784 -0.01786,-0.79686 l 0.60865,-0.45869 0.793594,0.16391 c 0.805947,0.16647 1.053849,0.12971 1.05519,-0.15645 5.29e-4,-0.0875 0.06355,-0.38532 0.140317,-0.66174 0.11852,-0.42677 0.254457,-0.56061 0.901287,-0.88733 0.574466,-0.29017 0.905698,-0.58364 1.347406,-1.19377 0.646139,-0.89253 0.651926,-0.89639 1.540928,-1.02971 0.390367,-0.0585 0.909103,-0.28708 1.385512,-0.61042 l 0.761527,-0.51685 1.103815,0.0849 c 0.625387,0.0481 1.104707,0.0329 1.105867,-0.0351 0.001,-0.066 0.0566,-0.20616 0.12329,-0.31155 0.0985,-0.15572 0.23206,-0.10081 0.71279,0.2931 0.55617,0.45575 0.63467,0.48051 1.31327,0.41426 0.69164,-0.0675 0.7329,-0.0533 0.98902,0.34128 0.25456,0.39215 0.30979,0.41175 1.16141,0.41212 0.49179,2.1e-4 0.9249,0.0501 0.96247,0.11093 0.0376,0.0608 0.43162,0.22054 0.87564,0.35498 0.64866,0.19639 0.85914,0.33225 1.07096,0.69126 0.23984,0.4065 0.32133,0.44716 0.90291,0.45055 0.49858,0.003 0.75479,0.0911 1.1642,0.4009 0.28872,0.21845 0.66728,0.39719 0.84126,0.39719 0.31044,0 2.22516,1.18292 2.5315,1.56397 0.0858,0.10668 0.19572,0.48323 0.24434,0.83679 0.081,0.58875 0.14768,0.68366 0.79269,1.1279 l 0.70428,0.48505 1.25636,-0.28407 c 0.77752,-0.17581 1.49646,-0.4355 1.88633,-0.68136 0.34648,-0.21851 0.69148,-0.35927 0.76667,-0.3128 0.0752,0.0465 0.3214,0.35294 0.54714,0.68104 0.27986,0.40676 0.65243,0.71983 1.17103,0.98403 0.41833,0.21311 1.01081,0.64818 1.31662,0.96683 0.49493,0.51571 0.58067,0.70417 0.78032,1.71526 0.19766,1.00098 0.28748,1.20111 0.75621,1.68496 l 0.53191,0.54906 -0.55519,0.85411 c -0.48466,0.74558 -0.54727,0.92694 -0.49282,1.42747 0.072,0.66233 0.40469,1.09706 0.83945,1.09706 0.16672,0 0.56332,-0.19841 0.88132,-0.44091 0.77077,-0.58777 0.90255,-0.62634 1.61842,-0.47366 0.49378,0.10531 0.69876,0.24366 1.05578,0.71262 0.30134,0.39581 0.57681,0.60763 0.86126,0.66225 0.31893,0.0612 0.436,0.16683 0.49314,0.44477 0.0507,0.24667 0.51383,0.74965 1.43293,1.55628 l 1.35799,1.19182 -0.34775,0.18221 c -0.34607,0.18132 -0.34774,0.19018 -0.34774,1.83867 0,1.6121 -0.009,1.66357 -0.33743,1.92188 l -0.33743,0.26543 0.40425,0.6856 c 0.22233,0.37708 0.40424,0.74759 0.40424,0.82336 0,0.22836 -1.18638,1.98863 -1.34029,1.98863 -0.0786,0 -0.33278,-0.0982 -0.56478,-0.21813 -0.40467,-0.20926 -0.42952,-0.20654 -0.61102,0.0668 -0.10406,0.15672 -0.22808,0.28495 -0.2756,0.28495 -0.0475,0 -0.45793,-0.74587 -0.91202,-1.65748 z"
       id="path5066"
       inkscape:connector-curvature="0" />
    <path
       style="opacity:1;fill:#ff00ff;fill-opacity:1;stroke:none;stroke-width:0.50507629;stroke-miterlimit:4;stroke-dasharray:none;stroke-dashoffset:0;stroke-opacity:1"
       d="m 70.26113,228.47698 c -1.266748,-0.22351 -1.338715,-0.2549 -1.7976,-0.784 l -0.478023,-0.55116 -0.85802,0.0423 c -0.820578,0.0405 -0.863729,0.0598 -0.98889,0.44321 -0.07198,0.2205 -0.187617,0.438 -0.256972,0.48333 -0.06935,0.0453 -0.796999,-0.0873 -1.616988,-0.29484 -1.154623,-0.29218 -1.860383,-0.57665 -3.129126,-1.26126 l -1.638239,-0.88399 0.468934,-0.83853 0.468937,-0.83853 0.0056,-1.85805 c 0.0073,-2.40867 0.258101,-3.5304 0.964179,-4.31194 l 0.500192,-0.55366 v -1.38646 c 0,-0.93009 -0.06598,-1.54437 -0.200454,-1.86621 -0.264406,-0.63281 -0.268742,-0.62196 0.248619,-0.62196 0.246988,0 0.728075,-0.0383 1.069078,-0.085 0.611891,-0.0839 0.620008,-0.0915 0.620008,-0.58465 0,-0.27482 0.03822,-0.69079 0.08494,-0.92439 0.07581,-0.37906 0.129069,-0.42037 0.495313,-0.3842 0.361567,0.0357 0.433721,0.11601 0.606692,0.67529 l 0.196321,0.63476 h 0.801233 c 0.545758,0 0.876302,-0.0679 1.036672,-0.21307 0.211542,-0.19144 0.433779,-0.19557 2.189702,-0.0407 2.281655,0.20126 2.649214,0.35263 2.872835,1.1831 0.08007,0.29735 0.174421,0.54063 0.209674,0.54063 0.03525,0 0.670666,-0.30439 1.412031,-0.67642 0.741368,-0.37204 1.386732,-0.63844 1.434148,-0.592 0.04741,0.0464 0.418089,0.83271 0.823719,1.74728 0.585679,1.3205 0.924989,1.8834 1.648127,2.73418 l 0.910611,1.07136 0.490029,-0.29579 c 1.720565,-1.03854 1.893197,-1.17747 1.893197,-1.52356 0,-0.31762 0.08371,-0.26804 1.069007,0.63311 1.067088,0.97595 1.069006,0.97892 1.069078,1.65526 l 7.1e-5,0.67755 -2.06576,1.6302 c -1.751571,1.38226 -2.07703,1.69587 -2.139842,2.06196 -0.04075,0.23747 -0.165367,1.06002 -0.276939,1.82788 -0.111572,0.76787 -0.231937,1.4252 -0.267478,1.46074 -0.03554,0.0355 -1.524969,0.52282 -3.30984,1.08283 l -3.245215,1.0182 z"
       id="path5068"
       inkscape:connector-curvature="0" />
    <path
       style="opacity:1;fill:#ff0000;fill-opacity:1;stroke:none;stroke-width:0.50507629;stroke-miterlimit:4;stroke-dasharray:none;stroke-dashoffset:0;stroke-opacity:1"
       d="m 28.869667,230.56189 c -0.03572,-0.0357 -0.01135,-0.40666 0.05413,-0.82431 l 0.119078,-0.75936 -0.820126,-0.73054 c -0.739849,-0.65904 -0.812297,-0.7697 -0.740129,-1.13054 0.06333,-0.31667 -0.06237,-0.66702 -0.603552,-1.68215 -0.375949,-0.70519 -0.859449,-1.43251 -1.074439,-1.61625 -0.216775,-0.18528 -0.652835,-0.89259 -0.978955,-1.58792 -0.496962,-1.05958 -0.729509,-1.38292 -1.501037,-2.08708 -0.502134,-0.45829 -1.318959,-1.08175 -1.815166,-1.38546 l -0.902197,-0.5522 h -1.569493 -1.569495 l -1.000622,0.53102 c -0.951185,0.50479 -1.060395,0.5312 -2.210528,0.53454 -1.203174,0.003 -1.212366,0.001 -1.651775,-0.45238 -0.441767,-0.45579 -0.441849,-0.45612 -0.347311,-1.43657 0.07249,-0.75175 0.187233,-1.12709 0.491533,-1.60786 0.435202,-0.68757 0.437832,-0.68891 3.046536,-1.55649 l 1.53179,-0.50943 0.138647,-0.65194 c 0.13666,-0.6426 0.148949,-0.65492 0.85848,-0.86015 0.433996,-0.12553 0.798658,-0.32692 0.918334,-0.50716 0.167,-0.25152 0.319747,-0.29896 0.962618,-0.29896 h 0.764119 l 0.17195,-0.52101 c 0.229733,-0.6961 0.583179,-0.86719 1.560145,-0.75521 0.700868,0.0803 0.88097,0.045 1.718371,-0.3368 l 0.935442,-0.42653 1.87679,0.0694 c 1.823667,0.0674 1.908387,0.0838 2.992927,0.57959 l 1.116134,0.5102 0.389009,-0.46185 c 0.375595,-0.44592 0.395661,-0.4529 0.581806,-0.20244 0.106037,0.14267 0.192794,0.30804 0.192794,0.36749 0,0.0594 0.0902,0.10809 0.200453,0.10809 0.111361,0 0.200451,0.11879 0.200451,0.26728 0,0.25617 0.08909,0.26726 2.146221,0.26726 h 2.146218 l -0.09221,1.25617 -0.09221,1.25617 0.555514,0.36762 c 0.352795,0.23347 0.956495,0.4456 1.654352,0.58131 l 1.098841,0.21369 0.495022,1.00226 c 0.426111,0.86274 0.495869,1.13378 0.501129,1.94706 0.0058,0.89416 -0.01947,0.97469 -0.471318,1.50257 -0.694839,0.81176 -0.992553,2.17225 -0.992553,4.53574 V 225.34 l -0.554532,0.93341 c -0.704572,1.18597 -1.127832,1.56863 -1.555303,1.40611 -0.226431,-0.0861 -0.488469,-0.0435 -0.948042,0.15425 -0.769765,0.33114 -1.096232,0.24193 -1.988338,-0.54333 -0.553331,-0.48706 -0.668073,-0.53173 -1.36593,-0.53173 h -0.761855 l -0.507568,1.13911 -0.507569,1.13911 -1.284229,0.75025 c -0.706329,0.41263 -1.320946,0.77037 -1.365819,0.79496 -0.04487,0.0246 -0.110816,0.0155 -0.146537,-0.0202 z"
       id="path5070"
       inkscape:connector-curvature="0" />
    <path
       style="opacity:1;fill:#00ff00;fill-opacity:1;stroke:none;stroke-width:0.50507629;stroke-miterlimit:4;stroke-dasharray:none;stroke-dashoffset:0;stroke-opacity:1"
       d="m 81.503731,197.93698 c -0.04836,-0.0484 -0.08793,-0.44104 -0.08793,-0.87261 v -0.78468 l -0.597135,-0.36235 c -0.533087,-0.32349 -0.597585,-0.41569 -0.601355,-0.85966 -0.0037,-0.42872 -0.275146,-0.86177 -1.968373,-3.1396 -1.955276,-2.63034 -1.967558,-2.65133 -2.719589,-4.64763 -0.415493,-1.10294 -0.830752,-2.32194 -0.9228,-2.70889 l -0.167357,-0.70355 1.082879,-2.73323 1.082878,-2.73323 5.29e-4,-1.50771 c 5.3e-4,-1.45397 -0.01886,-1.5562 -0.545647,-2.86852 -0.502491,-1.25184 -0.598578,-1.39631 -1.199856,-1.80407 -0.748329,-0.50748 -0.802947,-0.74206 -0.320154,-1.37504 0.297923,-0.3906 0.329396,-0.52887 0.252434,-1.10904 -0.06791,-0.51191 -0.03542,-0.74294 0.142734,-1.01483 0.221901,-0.33867 0.278011,-0.35203 1.478018,-0.35203 h 1.24736 l 0.340886,0.44693 c 0.272564,0.35734 0.34089,0.59841 0.34089,1.20271 v 0.75578 h 0.575815 c 0.316698,0 0.690401,0.0838 0.83045,0.1862 0.248404,0.18164 0.248854,0.21637 0.01844,1.41834 -0.129908,0.67767 -0.217967,1.24616 -0.195686,1.26331 0.02228,0.0171 0.356222,0.20028 0.742093,0.40697 l 0.701582,0.3758 v 1.10404 1.10404 l 0.400905,0.0881 c 0.390392,0.0857 0.400904,0.1088 0.400904,0.87925 v 0.79119 h 0.843624 c 0.75842,0 0.881507,-0.0395 1.218716,-0.39152 0.464227,-0.48454 0.691015,-0.42086 1.885156,0.52935 0.458939,0.36518 0.88415,0.66398 0.944912,0.66398 0.06076,0 1.014405,-0.59674 2.119207,-1.32607 1.922102,-1.26889 2.031783,-1.3221 2.54327,-1.23395 l 0.53454,0.0921 0.03629,2.65456 0.03629,2.65456 -0.671054,0.70955 c -0.369084,0.39025 -0.671061,0.75743 -0.671061,0.81597 0,0.0585 1.263687,1.07108 2.236528,2.04593 0.972841,0.97485 1.788088,1.13769 1.12121,1.60541 -0.081,0.0568 -0.779026,-0.27061 -1.470491,-0.96885 -0.691465,-0.69824 -1.458461,-1.20271 -1.500273,-1.20271 -0.04181,0 -0.320804,-0.0597 -0.864978,0.31648 l -0.989404,0.68397 0.39574,0.49966 c 1.154798,1.45806 6.116175,5.74957 6.647013,5.74957 0.06734,0 0.426768,0.0904 0.798719,0.20084 l 0.676278,0.20083 0.224943,0.90165 c 0.169903,0.68103 0.34394,1.02423 0.711251,1.40259 0.367802,0.37886 0.448685,0.53855 0.331911,0.65532 -0.212111,0.21212 -0.995861,-0.31903 -2.505333,-1.84921 -2.271666,-1.89964 -6.95205,-6.05314 -8.101445,-7.15635 -0.898281,-0.58109 -0.948941,-0.77536 -1.584674,-0.69102 -0.368816,0.0489 -0.670912,0.15637 -0.671322,0.23878 -0.0021,0.42303 -0.301588,1.15209 -0.473257,1.15209 -0.133488,0 -0.19417,0.14886 -0.19417,0.47635 0,0.36058 -0.09334,0.55488 -0.384069,0.79952 -0.220689,0.18569 -0.441989,0.55136 -0.520224,0.85958 -0.123981,0.48845 -0.09589,0.61113 0.314217,1.37205 0.326114,0.60508 0.451209,1.00892 0.453405,1.46375 0.0021,0.41316 0.07074,0.66601 0.200859,0.73884 0.174678,0.0977 0.174678,0.2973 0,1.7054 -0.108802,0.87708 -0.197824,1.63933 -0.197824,1.69388 0,0.0546 -0.279257,0.31241 -0.620572,0.57302 -0.46296,0.3535 -0.751456,0.47385 -1.135896,0.47385 -0.283427,0 -0.515321,0.0626 -0.515321,0.13905 0,0.0779 -0.230227,0.12546 -0.523555,0.10815 -0.287956,-0.017 -0.609203,0.0402 -0.71388,0.12706 -0.104677,0.0869 -0.229891,0.11839 -0.278252,0.07 z"
       id="path5072"
       inkscape:connector-curvature="0"
       sodipodi:nodetypes="csccccccccccccsccsccscscccsccccscsccsccccccssssscccsccsccccccssccccccscsscccc" />
    <path
       style="opacity:1;fill:#ffff00;fill-opacity:1;stroke:none;stroke-width:0.50507629;stroke-miterlimit:4;stroke-dasharray:none;stroke-dashoffset:0;stroke-opacity:1"
       d="m 55.89156,202.48177 c -0.494993,-0.16154 -0.717857,-0.16775 -1.260023,-0.0351 -0.624181,0.15269 -0.671792,0.14491 -0.909441,-0.14857 -0.202145,-0.24964 -0.215757,-0.3293 -0.0702,-0.41075 0.144952,-0.0811 0.155291,-0.30049 0.05241,-1.11195 l -0.128169,-1.01089 h -0.522521 c -0.424391,0 -0.514119,-0.0436 -0.477779,-0.23232 0.02461,-0.12778 0.164322,-0.25389 0.310475,-0.28025 0.146156,-0.0264 0.312418,-0.0918 0.36947,-0.14535 0.09208,-0.0865 -0.263557,-3.61392 -0.376335,-3.73269 -0.02479,-0.0261 -0.418455,-0.004 -0.874795,0.0488 -0.707692,0.0821 -0.910627,0.17088 -1.379934,0.60347 -0.316185,0.29145 -0.749904,0.54464 -1.019665,0.59525 -0.258193,0.0484 -0.946031,0.3834 -1.528532,0.74436 -0.76867,0.47633 -1.087737,0.6112 -1.163561,0.49184 -0.186883,-0.2942 -0.116922,-1.36259 0.110485,-1.68726 0.204827,-0.29243 0.200525,-0.3746 -0.06628,-1.26586 -0.262744,-0.8777 -0.634325,-4.79038 -0.478827,-5.04198 0.03052,-0.0494 0.334537,-0.13164 0.675582,-0.18278 0.926476,-0.13894 0.986819,-0.18305 0.986819,-0.72145 0,-0.7389 -1.290629,-2.95219 -2.350365,-4.03061 -0.874392,-0.88981 -0.998876,-1.20109 -0.659519,-1.64916 0.183139,-0.2418 0.200075,-0.24051 0.560308,0.0428 0.204304,0.16071 0.514676,0.63372 0.689719,1.05115 0.17504,0.41743 0.340021,0.78211 0.366625,0.81039 0.0266,0.0283 0.607555,-0.39834 1.291005,-0.94805 0.955376,-0.76843 1.404395,-1.03828 1.942375,-1.16734 0.384855,-0.0923 0.736381,-0.22715 0.781167,-0.29962 0.04479,-0.0725 -0.117536,-0.33703 -0.360715,-0.58793 l -0.442142,-0.45617 h 3.091928 c 1.700559,0 3.12492,0.0534 3.165242,0.11862 0.04032,0.0652 -0.111707,0.56137 -0.337843,1.10249 l -0.41116,0.98386 0.230574,0.99889 c 0.211177,0.91485 1.483704,4.49327 1.828315,5.14132 0.08021,0.15084 0.978001,1.39498 1.995086,2.76476 1.714624,2.30919 1.849244,2.53301 1.849244,3.07457 0,0.54934 0.03577,0.60568 0.601356,0.94731 l 0.601355,0.36323 v 1.46539 c 0,0.80596 -0.05344,1.49841 -0.118766,1.53878 -0.06532,0.0404 -0.272071,-0.12759 -0.459446,-0.37325 -0.29032,-0.38062 -0.465368,-0.46767 -1.184172,-0.58888 l -0.843494,-0.14223 -1.162879,1.22495 c -0.710363,0.74829 -1.165378,1.33841 -1.169304,1.51653 -0.0067,0.30325 -0.644996,0.85443 -0.962496,0.8311 -0.0989,-0.007 -0.450435,-0.10152 -0.78118,-0.20946 z"
       id="path5074"
       inkscape:connector-curvature="0" />
    <path
       style="opacity:1;fill:#ff00ff;fill-opacity:1;stroke:none;stroke-width:0.50507629;stroke-miterlimit:4;stroke-dasharray:none;stroke-dashoffset:0;stroke-opacity:1"
       d="m 17.749663,184.21561 -0.626298,-0.73309 -0.961795,-0.0784 c -0.528989,-0.0431 -1.489379,-0.093 -2.134203,-0.11097 l -1.172406,-0.0326 -0.327819,-0.54994 -0.327818,-0.54994 2.327235,-1.98912 c 2.261081,-1.93258 2.338668,-2.01592 2.729359,-2.9319 0.378857,-0.88823 0.397534,-1.0136 0.322819,-2.16686 l -0.07931,-1.22409 -1.311632,-0.30538 -1.311629,-0.30538 -0.03865,-1.00226 -0.03865,-1.00226 -0.820973,-0.20356 -0.820973,-0.20356 0.286432,-0.33337 c 0.157539,-0.18336 0.407541,-0.49983 0.555559,-0.70328 l 0.269124,-0.3699 0.992386,0.20875 c 0.603363,0.12693 1.166754,0.34176 1.437198,0.54804 l 0.444817,0.33927 0.742551,-0.40218 0.742553,-0.40218 0.65932,0.40568 0.659318,0.40568 0.767213,-0.66688 c 0.421968,-0.36678 0.913381,-0.82369 1.09203,-1.01535 l 0.324819,-0.34847 -0.358228,-0.37391 c -0.197024,-0.20565 -0.358227,-0.41572 -0.358227,-0.46683 0,-0.0511 0.326898,-0.0929 0.726443,-0.0929 0.70835,0 0.733919,-0.0133 1.026866,-0.53454 0.328419,-0.58434 0.361543,-0.60031 0.815692,-0.39339 0.240332,0.1095 0.443878,0.0842 0.907902,-0.11287 l 0.598117,-0.25402 1.062432,0.51377 c 0.584334,0.28258 1.135655,0.51378 1.225158,0.51378 0.0895,0 0.383447,-0.30068 0.653216,-0.66817 0.370528,-0.50476 0.575472,-0.66817 0.837986,-0.66817 0.191125,0 0.473086,-0.11799 0.626581,-0.26219 0.278577,-0.26171 0.280152,-0.26127 0.877237,0.24217 0.471889,0.39788 0.784928,0.53788 1.48291,0.66321 0.800732,0.14379 0.942054,0.13353 1.488186,-0.10805 0.454845,-0.2012 0.755261,-0.24612 1.219999,-0.18242 0.733779,0.10057 0.803209,0.35584 0.282474,1.03856 -0.254341,0.33346 -0.332748,0.59449 -0.328472,1.09357 0.0055,0.6457 0.01789,0.66461 0.821547,1.25692 0.719638,0.53038 0.860092,0.71176 1.190107,1.5368 0.327218,0.81805 0.375049,1.11822 0.381164,2.39203 0.0063,1.31224 -0.03374,1.56385 -0.404093,2.53906 l -0.411086,1.08247 -3.701534,-0.0374 -3.701534,-0.0374 -0.460782,0.47541 c -0.410631,0.42366 -0.441984,0.50551 -0.288071,0.75197 0.095,0.15211 0.153517,0.28864 0.130048,0.30341 -0.02347,0.0148 -0.351986,0.27977 -0.730041,0.58889 l -0.687374,0.56205 -0.849426,-0.81363 c -1.251548,-1.19879 -1.175449,-1.19107 -2.069436,-0.20999 l -0.772009,0.84722 -1.318723,-0.98143 c -1.307846,-0.97333 -1.325595,-0.98143 -2.15123,-0.98143 h -0.832503 l -0.561126,0.98624 c -0.30862,0.54243 -0.56035,1.03855 -0.559403,1.10249 0.0011,0.0639 0.447111,0.406 0.99147,0.76015 0.544357,0.35414 1.027047,0.74111 1.072645,0.85994 0.05737,0.14949 -0.192468,0.49353 -0.811125,1.11697 l -0.894027,0.90093 0.173156,0.61845 c 0.271156,0.96847 0.01754,1.02305 -0.723468,0.1557 z"
       id="path5076"
       inkscape:connector-curvature="0" />
    <path
       style="opacity:1;fill:#ff0000;fill-opacity:1;stroke:none;stroke-width:0.50507629;stroke-miterlimit:4;stroke-dasharray:none;stroke-dashoffset:0;stroke-opacity:1"
       d="m 105.2207,173.49246 c -0.39243,-0.26427 -0.9817,-0.57188 -1.3095,-0.68357 -0.58077,-0.1979 -0.6083,-0.19432 -1.07833,0.14011 -0.55248,0.3931 -0.70368,0.35817 -0.70368,-0.16253 0,-0.22696 -0.12856,-0.4807 -0.33409,-0.6594 -0.29679,-0.25806 -0.33409,-0.39477 -0.33409,-1.22457 v -0.93407 l -0.68399,-0.34661 c -0.67391,-0.34149 -0.68268,-0.35384 -0.59491,-0.83747 0.049,-0.26997 0.12392,-0.82915 0.16651,-1.24263 l 0.0774,-0.75177 -0.818866,-0.57747 c -0.450374,-0.31762 -0.819256,-0.67088 -0.81974,-0.78503 -5.29e-4,-0.11416 -0.120361,-0.38797 -0.26639,-0.60846 -0.146029,-0.2205 -0.265904,-0.43688 -0.266388,-0.48084 -5.29e-4,-0.044 0.244655,-0.19065 0.544753,-0.32597 0.487601,-0.21988 0.644975,-0.22902 1.479671,-0.0859 0.77878,0.13355 1.159,0.1244 2.28746,-0.055 2.03695,-0.32384 1.96807,-0.27527 1.96807,-1.3876 0,-1.10862 0.16372,-1.20289 0.78342,-0.45109 0.40177,0.48741 0.40239,0.48762 1.21859,0.40231 1.06107,-0.1109 1.26288,-0.23149 1.80457,-1.07829 l 0.45153,-0.70585 1.98021,-0.0875 c 1.08911,-0.0481 2.25082,-0.15098 2.58156,-0.22856 0.33075,-0.0776 1.02094,-0.17153 1.53375,-0.20879 1.51604,-0.11014 1.84545,-0.21471 2.07239,-0.65787 0.24435,-0.47715 0.38594,-0.59106 0.73806,-0.59374 0.14758,-0.001 0.5602,-0.15743 0.91694,-0.34733 0.35673,-0.18991 0.96423,-0.37785 1.34998,-0.41767 l 0.70138,-0.0724 0.0779,2.99014 c 0.0626,2.40367 0.15951,3.51435 0.49399,5.66283 0.22886,1.46999 0.45103,3.46282 0.49374,4.42852 0.0726,1.64128 0.0612,1.76092 -0.17461,1.83396 -0.36447,0.11291 -3.5399,0.61966 -3.88311,0.61969 -0.15949,1e-5 -0.68967,-0.34117 -1.17816,-0.75818 l -0.88818,-0.7582 -0.66911,0.24061 c -0.86399,0.31068 -2.3517,0.23558 -3.12176,-0.15759 -0.29399,-0.15012 -0.87666,-0.34353 -1.29482,-0.42983 l -0.76029,-0.15689 -1.80865,1.21051 c -0.99476,0.66577 -1.85615,1.2105 -1.91419,1.2105 -0.058,0 -0.42661,-0.21623 -0.81904,-0.48051 z"
       id="path5078"
       inkscape:connector-curvature="0" />
    <path
       style="opacity:1;fill:#ff00ff;fill-opacity:1;stroke:none;stroke-width:0.50507629;stroke-miterlimit:4;stroke-dasharray:none;stroke-dashoffset:0;stroke-opacity:1"
       d="m 128.85614,212.95618 -0.86863,-0.29594 -0.007,-0.97654 -0.007,-0.97653 -1.39594,-1.2443 c -0.86301,-0.76927 -1.57449,-1.53533 -1.86365,-2.00663 -0.95667,-1.55926 -1.42503,-2.14742 -2.2718,-2.85296 -2.0359,-1.69633 -2.8237,-2.47655 -3.14919,-3.11887 -0.19656,-0.38789 -0.80096,-1.10881 -1.46185,-1.74367 -0.73393,-0.70502 -1.18197,-1.25061 -1.28515,-1.56498 -0.42886,-1.30663 -1.34859,-2.29772 -2.81636,-3.03488 -0.65103,-0.32697 -1.31736,-0.75456 -1.48074,-0.9502 -0.16337,-0.19564 -0.77812,-0.89188 -1.36611,-1.54719 -0.58799,-0.65531 -1.36294,-1.51981 -1.72211,-1.92112 l -0.65303,-0.72963 0.41917,-0.43247 0.41917,-0.43248 v -2.58337 -2.58337 l 0.91569,0.0902 c 0.64902,0.064 1.07599,0.035 1.46612,-0.0994 l 0.55042,-0.18963 0.82913,0.71803 c 0.45602,0.39491 0.89374,0.71778 0.97272,0.71749 0.079,-2.7e-4 0.68481,-0.0871 1.3463,-0.193 1.26129,-0.20184 4.81418,-0.66644 6.0949,-0.79702 l 0.7495,-0.0764 0.54818,1.17984 c 0.62037,1.33521 1.0836,2.57574 1.49734,4.00988 0.36432,1.26279 1.06159,2.08051 1.88656,2.21242 0.30273,0.0484 0.95201,0.3266 1.44285,0.6182 0.61509,0.36542 1.04847,0.53018 1.39457,0.53018 0.27617,0 0.61922,0.0627 0.76232,0.13925 0.34027,0.1821 0.20798,0.43493 -0.8544,1.6329 -0.4407,0.49694 -0.77164,0.93316 -0.73542,0.96937 0.0362,0.0362 0.42141,0.12765 0.856,0.20321 1.16292,0.20216 1.92605,0.51078 1.92605,0.77891 0,0.40932 -1.21343,2.27664 -1.83489,2.82367 -0.33449,0.29443 -0.65578,0.53533 -0.71398,0.53533 -0.47496,0 -0.0319,2.14482 0.51984,2.51661 0.18193,0.1226 0.59739,0.48569 0.92322,0.80687 0.46313,0.4565 0.61488,0.71903 0.69524,1.20272 0.0565,0.34031 0.26225,0.91334 0.45714,1.27341 0.39128,0.72293 0.4709,1.41667 0.16258,1.41667 -0.10546,0 -0.35395,-0.0617 -0.55219,-0.13704 -0.52213,-0.19851 -0.81532,-0.053 -1.19341,0.59211 -0.28723,0.49011 -0.32553,0.68773 -0.2705,1.39554 0.0353,0.45351 0.15558,1.00143 0.26736,1.21759 0.28336,0.54796 0.26689,0.62841 -0.29592,1.44559 l -0.49917,0.72476 0.28017,0.22047 c 0.15409,0.12125 0.45388,0.35242 0.66621,0.51371 0.48931,0.3717 0.33484,0.37226 -0.74986,0.003 z"
       id="path5080"
       inkscape:connector-curvature="0" />
  </g>
</svg>
