<?xml version="1.0" encoding="UTF-8" standalone="no"?>
<!-- Created with Inkscape (http://www.inkscape.org/) -->

<svg
   xmlns:dc="http://purl.org/dc/elements/1.1/"
   xmlns:cc="http://creativecommons.org/ns#"
   xmlns:rdf="http://www.w3.org/1999/02/22-rdf-syntax-ns#"
   xmlns:svg="http://www.w3.org/2000/svg"
   xmlns="http://www.w3.org/2000/svg"
   xmlns:sodipodi="http://sodipodi.sourceforge.net/DTD/sodipodi-0.dtd"
   xmlns:inkscape="http://www.inkscape.org/namespaces/inkscape"
   width="279.39999mm"
   height="215.89999mm"
   viewBox="0 0 279.4 215.9"
   version="1.1"
   id="svg8"
   inkscape:version="0.92.4 (5da689c313, 2019-01-14)"
   sodipodi:docname="hk_puzzle_map_pieces_sea.svg">
  <defs
     id="defs2">
    <circle
       sodipodi:ry="3"
       sodipodi:rx="3"
       sodipodi:cy="0"
       sodipodi:cx="0"
       style="fill:#ffffff;stroke:#000000;stroke-width:1"
       r="3"
       cy="0"
       cx="0"
       id="station" />
    <rect
       style="fill:#ffffff;stroke:#000000;stroke-width:1"
       rx="3.5"
       height="10"
       width="6"
       y="-5"
       x="-3"
       id="interchange" />
    <path
       transform="matrix(0.212132,0.212132,-0.212132,0.212132,-1.35,-1.8)"
       d="M 8,0 L 0,4 L 0,22 L 11,27 L 11,48 L 19,48 L 19,27 L 30,22 L 30,4 L 22,0 L 22,16 L 15,20 L 8,16 L 8,0"
       style="fill:#ffffff;stroke:#000000;stroke-width:2"
       id="depot" />
  </defs>
  <sodipodi:namedview
     id="base"
     pagecolor="#ffffff"
     bordercolor="#666666"
     borderopacity="1.0"
     inkscape:pageopacity="0.0"
     inkscape:pageshadow="2"
     inkscape:zoom="1.4"
     inkscape:cx="140.11922"
     inkscape:cy="328.38337"
     inkscape:document-units="mm"
     inkscape:current-layer="g5058"
     showgrid="true"
     units="mm"
     showguides="true"
     inkscape:window-width="1920"
     inkscape:window-height="1017"
     inkscape:window-x="-8"
     inkscape:window-y="-8"
     inkscape:window-maximized="1"
     inkscape:snap-to-guides="false"
     inkscape:snap-grids="false"
     inkscape:guide-bbox="true">
    <inkscape:grid
       type="xygrid"
       id="grid815" />
    <sodipodi:guide
       position="0,150"
       orientation="0,1"
       id="guide4520"
       inkscape:locked="false"
       inkscape:label="printbed x"
       inkscape:color="rgb(0,0,255)" />
    <sodipodi:guide
       position="150,0"
       orientation="1,0"
       id="guide4522"
       inkscape:locked="false"
       inkscape:label="printbed y"
       inkscape:color="rgb(0,0,255)" />
  </sodipodi:namedview>
  <metadata
     id="metadata5">
    <rdf:RDF>
      <cc:Work
         rdf:about="">
        <dc:format>image/svg+xml</dc:format>
        <dc:type
           rdf:resource="http://purl.org/dc/dcmitype/StillImage" />
        <dc:title />
      </cc:Work>
    </rdf:RDF>
  </metadata>
  <g
     inkscape:label="sea"
     inkscape:groupmode="layer"
     id="g5058"
     transform="translate(0,-81.1)"
     style="display:inline"
     sodipodi:insensitive="true">
    <path
       style="opacity:1;fill:#0000ff;fill-opacity:1;stroke:none;stroke-width:2.69966269;stroke-miterlimit:4;stroke-dasharray:none;stroke-dashoffset:0;stroke-opacity:1"
       d="M 49.336875,520.23528 V 283.44957 h 217.500005 217.5 V 520.23528 757.021 h -217.5 -217.500005 z m 97.306975,220.58489 c 3.39492,-1.33654 4.09465,-2.04976 4.11066,-4.18992 0.006,-0.8042 1.22836,-2.65096 2.71631,-4.10391 l 2.70538,-2.64173 2.11605,4.00892 c 1.8988,3.59733 2.58685,4.22286 6.7016,6.09272 3.56206,1.61871 4.71546,1.87905 5.16763,1.16642 0.32015,-0.50457 0.58702,-4.21845 0.59303,-8.25309 0.0109,-7.28651 -0.0108,-7.37893 -3.2262,-13.78123 -3.23439,-6.44005 -3.68808,-9.54375 -0.87171,-5.9633 0.82036,1.04291 2.5392,2.33393 3.81965,2.86894 1.28045,0.53501 2.52533,1.59418 2.7664,2.35374 0.24107,0.75955 1.3468,1.69771 2.45718,2.08479 1.11038,0.38708 3.08734,2.19158 4.39323,4.01001 1.30589,1.81843 2.87534,3.24536 3.48766,3.17096 2.32303,-0.28227 5.04187,0.95803 5.04187,2.30005 0,0.89035 1.20304,1.94873 3.58993,3.15826 l 3.58993,1.81915 -0.4885,-5.85747 c -0.47214,-5.66136 -0.67603,-6.18166 -6.08992,-15.54045 -4.53023,-7.83122 -5.60144,-10.24829 -5.60144,-12.63903 0,-1.8745 -0.52269,-3.62055 -1.42857,-4.7722 -1.77814,-2.26054 -1.78541,-2.66223 -0.0481,-2.66223 0.75925,0 1.57739,-0.62052 1.8181,-1.37893 0.24555,-0.77368 1.364,-1.58239 2.54813,-1.84247 1.7116,-0.37593 2.11048,-0.8335 2.11048,-2.421 0,-2.39382 3.48101,-6.50046 5.51014,-6.50046 1.04089,0 1.57467,-0.60264 1.87825,-2.12054 0.23326,-1.16629 1.13381,-2.83023 2.00122,-3.69764 l 1.5771,-1.57711 1.12379,1.70999 c 3.12508,4.75521 3.6546,5.04247 8.36624,4.53866 4.1658,-0.44546 4.46305,-0.60727 5.93855,-3.23257 0.8543,-1.52 2.03124,-2.76365 2.61543,-2.76365 1.19255,0 3.13214,-4.0852 3.13214,-6.59696 0,-0.90357 -0.81516,-2.84246 -1.81147,-4.30866 l -1.81146,-2.66581 h -6.76575 -6.76574 l -1.14321,-2.85714 c -1.01121,-2.52726 -1.41605,-2.85714 -3.50642,-2.85714 -1.29978,0 -3.86295,0.64286 -5.69595,1.42857 -1.833,0.78571 -3.91455,1.42857 -4.62566,1.42857 -1.36155,0 -2.16006,1.34184 -2.16006,3.62985 0,0.75358 -0.29847,1.37015 -0.66326,1.37015 -0.3648,0 -1.15078,0.48752 -1.74664,1.08337 -0.9683,0.9683 -1.45225,0.9432 -4.55647,-0.23631 -2.76,-1.04872 -4.78261,-1.25094 -9.85096,-0.98492 -6.2531,0.3282 -6.45132,0.39459 -10.13316,3.3938 -2.06542,1.68247 -4.88221,3.43095 -6.25955,3.88552 -2.24544,0.74106 -2.50424,1.09198 -2.50424,3.39559 v 2.56912 l -1.78572,-1.6776 c -1.76024,-1.65365 -2.20801,-4.09167 -1.19979,-6.53256 0.26703,-0.64648 2.59096,-3.41466 5.16429,-6.15151 l 4.67879,-4.97609 4.85297,-0.51972 4.85297,-0.5197 -0.44663,-2.3808 c -0.36392,-1.93982 -0.19605,-2.46033 0.9063,-2.8102 1.07029,-0.3397 1.4402,-1.3585 1.77062,-4.87656 l 0.41768,-4.44714 -3.49058,-3.5192 -3.49057,-3.51918 -4.31591,1.30675 c -2.62762,0.79558 -4.46707,1.78302 -4.70234,2.52427 -1.35102,4.25669 -8.92637,-4.45642 -8.92637,-10.26704 0,-2.838 -0.29806,-3.38347 -3.10622,-5.68454 -1.70841,-1.39992 -3.96689,-2.76133 -5.01884,-3.02535 -2.28942,-0.57461 -3.17785,-2.05669 -3.7544,-6.26308 -0.43072,-3.1424 -0.42714,-3.14864 2.07387,-3.61783 2.92758,-0.54922 3.35293,-1.5696 3.36727,-8.07788 0.006,-2.97567 -0.30758,-4.61622 -0.95741,-5 -0.53193,-0.31417 -1.34565,-1.29224 -1.80825,-2.17352 -0.56449,-1.07535 -1.75293,-1.74811 -3.61368,-2.04565 -1.87587,-0.29997 -2.88578,-0.87628 -3.12262,-1.78195 -0.3673,-1.4046 -3.72623,-3.06519 -5.11898,-2.53074 -0.44711,0.17157 -1.20815,1.63112 -1.69122,3.24344 -0.64401,2.14954 -1.25549,2.9315 -2.29238,2.9315 -0.77776,0 -2.62359,0.76352 -4.10186,1.69671 -1.47828,0.93319 -3.99811,1.91809 -5.59964,2.18867 -2.00418,0.3386 -3.36997,1.11157 -4.38146,2.47968 -0.89598,1.21188 -3.13247,2.60961 -5.7299,3.58098 l -4.260315,1.59325 1.472532,3.48539 c 1.313657,3.10933 1.893789,3.65635 5.376953,5.07007 l 3.90442,1.58468 -1.97735,1.70084 c -1.79359,1.54278 -1.9449,2.03846 -1.62824,5.33398 l 0.3491,3.63315 -4.904975,4.6271 c -3.18124,3.00103 -4.904975,5.18049 -4.904975,6.20179 0,0.86608 -0.803572,2.3296 -1.785715,3.25228 -1.539763,1.44653 -1.785714,2.29991 -1.785714,6.19593 v 4.51835 h 13.155099 13.1551 l 0.77347,-3.60658 c 0.42541,-1.98362 0.77347,-4.07291 0.77347,-4.64286 0,-1.53885 3.13491,-1.27396 4.64286,0.3923 0.71107,0.78572 2.08677,1.42857 3.05714,1.42857 1.57937,0 1.71937,0.2246 1.33572,2.14286 -0.32123,1.60614 -0.16469,2.14286 0.625,2.14286 1.01021,0 1.23734,1.08565 1.36609,6.52956 0.0246,1.03769 0.65149,2.55844 1.3932,3.37946 1.10191,1.21971 1.18489,1.68998 0.45369,2.57103 -0.4922,0.59306 -0.75294,2.04552 -0.57944,3.22769 0.24581,1.67476 0.0457,2.1494 -0.90608,2.1494 -1.21498,0 -2.07409,1.90903 -2.09271,4.65016 -0.006,0.78973 0.80683,2.31651 1.80487,3.39285 1.41162,1.52238 1.55945,1.95699 0.66564,1.95699 -0.96193,0 -0.89037,0.36316 0.43962,2.23098 1.33298,1.87199 1.56225,3.04356 1.42481,7.281 -0.12045,3.7139 -0.47313,5.27623 -1.33299,5.90497 -0.91002,0.66541 -1.23299,2.44304 -1.45694,8.01898 -0.27623,6.87732 -0.35695,7.18141 -2.01698,7.59804 -0.95107,0.23871 -2.07378,1.19023 -2.4949,2.1145 -0.52141,1.14436 -1.67682,1.87868 -3.62165,2.30172 -2.82388,0.61427 -2.87606,0.68518 -4.64736,6.31635 -1.7387,5.52752 -1.7575,5.80271 -0.63884,9.35151 1.05023,3.33171 1.41367,3.73462 4.09278,4.5373 1.61711,0.48449 3.71879,1.72102 4.67041,2.74783 1.39784,1.5083 2.54358,1.92576 5.96438,2.1732 4.00615,0.28978 4.28005,0.20558 5.08615,-1.56362 0.46859,-1.02845 1.11051,-1.8699 1.42648,-1.8699 0.8706,0 2.05334,2.55198 2.05334,4.43045 0,1.04738 0.73031,2.12003 1.96429,2.8851 2.43815,1.51166 2.35891,1.51094 6.05697,0.0551 z M 342.7219,701.13761 c 0.48677,-0.38891 2.00675,-0.49667 3.37775,-0.23947 1.64124,0.3079 4.4305,-0.0634 8.16561,-1.08704 l 5.67289,-1.55468 0.78373,-4.50054 c 0.71504,-4.10603 0.6449,-4.7863 -0.80011,-7.76057 -0.87112,-1.79301 -2.00194,-3.26003 -2.51294,-3.26003 -0.511,0 -0.93279,-0.40178 -0.9373,-0.89286 -0.004,-0.49107 -1.58338,-4.2574 -3.50859,-8.36962 -3.28231,-7.01098 -3.42038,-7.5328 -2.21626,-8.37619 0.70625,-0.49469 1.49554,-1.74184 1.75395,-2.77144 0.3908,-1.55707 0.76234,-1.7986 2.20846,-1.43565 1.96258,0.49258 2.19315,-0.0691 2.70071,-6.57856 0.2915,-3.7385 0.25745,-3.81369 -2.99618,-6.61751 -1.81007,-1.55983 -4.54399,-3.21795 -6.07539,-3.68473 -2.36243,-0.72006 -3.02685,-1.395 -4.38456,-4.45391 -0.88011,-1.98289 -1.77809,-4.8199 -1.99552,-6.30449 -0.36033,-2.46039 -0.18407,-2.83772 1.99194,-4.26412 1.97419,-1.29411 2.46379,-2.1419 2.82963,-4.89969 0.45906,-3.46064 1.33754,-4.17435 5.16786,-4.19862 1.07051,-0.006 2.12975,-1.01733 3.47825,-3.31838 l 1.93898,-3.30863 2.14801,3.72048 c 1.85308,3.20966 2.38082,3.66205 3.84366,3.2949 0.93262,-0.23407 3.12327,-0.62126 4.86812,-0.86042 3.46965,-0.47557 3.86373,-0.97585 4.69969,-5.96627 0.37011,-2.2094 0.11031,-5.44739 -0.83096,-10.35715 -1.27163,-6.6329 -1.55915,-7.30667 -4.02721,-9.43746 l -2.65782,-2.29461 3.21429,-0.0222 c 2.73367,-0.0189 3.71192,0.40436 6.54242,2.83058 l 3.32814,2.85279 -1.00509,3.74974 c -0.93844,3.5011 -0.91485,3.82484 0.35583,4.8822 1.87239,1.55805 2.91284,5.77178 2.91757,11.8158 0.003,3.48335 0.31913,5.35266 1.00192,5.91932 0.84927,0.70483 0.79687,1.48935 -0.35168,5.26603 -1.78197,5.85948 -1.7312,6.39512 0.78232,8.25345 1.23719,0.9147 2.14286,2.24012 2.14286,3.13604 0,0.85346 1.02734,2.6117 2.28297,3.90718 1.77117,1.82738 2.87458,2.35544 4.92185,2.35544 2.42389,0 2.66951,0.18913 3.01484,2.32143 0.20677,1.27678 0.79515,3.70496 1.3075,5.39596 0.97709,3.22486 1.01503,3.13169 -2.03285,4.99312 -0.66181,0.40418 -0.5786,1.59379 0.35714,5.10618 l 1.21997,4.57923 5.79336,2.67866 5.79335,2.67865 5.80007,-1.25869 5.80005,-1.2587 1.56682,1.6678 c 2.26933,2.41559 6.75111,2.35165 7.87378,-0.11234 0.62942,-1.38143 1.02595,-1.60181 1.7704,-0.98397 0.52762,0.43789 0.95932,1.48002 0.95934,2.31584 1e-5,0.88359 1.05727,2.36327 2.52585,3.53505 2.03143,1.62088 2.95416,1.92128 4.71417,1.53472 1.77765,-0.39044 2.49623,-1.17683 3.82891,-4.19027 1.43732,-3.25002 1.55185,-4.15835 0.92448,-7.33134 -0.61005,-3.08534 -1.06535,-3.78827 -3.07425,-4.74624 -1.68135,-0.80178 -2.50159,-1.77757 -2.8579,-3.39989 l -0.49976,-2.27536 -3.70933,0.43596 -3.70934,0.43596 -0.0348,-9.45374 c -0.0423,-11.50223 -1.41652,-16.2475 -6.08189,-21.00117 l -2.9763,-3.03263 1.68968,-1.36821 c 1.24762,-1.01027 3.24199,-1.46507 7.62314,-1.7384 7.9311,-0.4948 10.11155,-1.94275 11.14324,-7.39977 0.38812,-2.05292 0.19956,-2.32938 -2.38298,-3.49394 -1.99688,-0.90047 -3.06628,-1.04966 -3.71371,-0.51811 -1.37138,1.12595 -9.12354,1.94717 -9.12354,0.96651 0,-0.43812 -0.51653,-0.79659 -1.14785,-0.79659 -0.63131,0 -0.99409,-0.40178 -0.80616,-0.89285 0.18793,-0.49107 0.92678,-2.5414 1.6419,-4.55629 l 1.30021,-3.66343 -2.99405,-3.40142 c -2.13321,-2.42346 -2.99686,-4.03996 -3.0038,-5.62228 -0.0178,-4.05013 -0.78119,-5.4774 -3.51473,-6.57114 -1.4414,-0.57674 -3.16663,-1.97274 -3.83384,-3.10224 -1.56341,-2.64664 -1.53885,-2.7688 0.47926,-2.38301 1.34612,0.25733 2.11333,-0.27662 3.75,-2.60988 1.2647,-1.80298 2.47052,-2.80958 3.12906,-2.61212 0.58929,0.1767 1.71957,0.52086 2.51174,0.76479 1.20581,0.37131 2.11402,-0.60438 5.57809,-5.99252 3.7223,-5.7898 4.04947,-6.60064 3.2584,-8.07539 -1.28201,-2.38997 -0.90664,-15.66226 0.47282,-16.7181 0.56985,-0.43617 1.03609,-1.94031 1.03609,-3.34254 0,-2.26864 -0.59015,-3.07978 -5.35714,-7.36315 -3.78911,-3.40469 -5.35714,-5.30629 -5.35714,-6.49675 0,-1.29962 -0.48946,-1.781 -2.14819,-2.11274 -1.18151,-0.23631 -3.10026,-1.51399 -4.2639,-2.83929 -1.16363,-1.3253 -2.75706,-2.40965 -3.54095,-2.40965 -0.7839,0 -1.76932,-0.64285 -2.18982,-1.42857 -0.87762,-1.63985 -3.43049,-1.91268 -4.0004,-0.42753 -0.38712,1.00883 -3.16423,2.1256 -3.11714,1.25352 0.0139,-0.25787 0.48467,-1.27242 1.04611,-2.25456 1.69192,-2.95971 1.33052,-5.43252 -1.04075,-7.12101 -1.70083,-1.2111 -2.28168,-2.36551 -2.98245,-5.9275 -0.71585,-3.63859 -1.43015,-5.02204 -4.02569,-7.79687 -1.73548,-1.85537 -4.17016,-3.72226 -5.41041,-4.14865 -1.27712,-0.43906 -3.24133,-2.11719 -4.52952,-3.8698 -2.85835,-3.88884 -5.00996,-4.39978 -8.51062,-2.02102 -1.43119,0.97252 -4.32148,2.16789 -6.42286,2.65637 -4.46596,1.03815 -5.50514,0.37497 -6.29058,-4.01448 -0.40717,-2.27547 -1.15939,-3.0558 -6.02474,-6.25 -3.05771,-2.00744 -6.04089,-3.6499 -6.62929,-3.6499 -0.58841,0 -2.15901,-0.80357 -3.49023,-1.78571 -1.33122,-0.98214 -3.17161,-1.78571 -4.08976,-1.78571 -0.91815,0 -1.85325,-0.47921 -2.078,-1.0649 -0.22475,-0.5857 -1.6611,-1.44015 -3.19187,-1.89878 -1.53078,-0.45863 -2.78323,-1.26515 -2.78323,-1.79225 0,-0.70156 -1.22206,-0.95836 -4.5607,-0.95836 -4.03098,0 -4.6917,-0.19992 -5.68849,-1.72121 -0.9764,-1.49017 -1.52094,-1.66847 -4.05684,-1.32833 -2.2885,0.30695 -3.38126,0.0586 -4.99687,-1.13594 -2.14535,-1.58613 -7.83995,-2.17776 -7.83995,-0.81452 0,0.39286 -1.65716,0.71429 -3.68258,0.71429 -2.83817,0 -4.22527,0.41392 -6.04932,1.8052 -1.3017,0.99285 -4.06424,2.1461 -6.13897,2.56277 -3.32823,0.6684 -4.06371,1.15935 -6.24851,4.17109 -1.38515,1.9094 -3.85492,4.14489 -5.60501,5.07331 -1.72081,0.91289 -3.42573,2.44095 -3.78872,3.39569 -0.56263,1.47983 -0.98537,1.67081 -2.86584,1.29471 -1.71792,-0.34357 -2.67403,-0.0472 -4.32235,1.33975 -1.64745,1.38624 -2.41121,1.62319 -3.44635,1.0692 -1.86515,-0.9982 -2.13807,-0.90669 -2.13807,0.71685 0,1.20295 -0.47944,1.43011 -3.03571,1.43832 -4.60866,0.0148 -6.08863,0.64251 -6.8822,2.91895 -0.96068,2.75581 -1.93515,2.61368 -2.93923,-0.4287 l -0.82507,-2.5 h -5.26262 -5.26261 l -0.21771,3.39286 -0.21771,3.39285 -3.10872,0.22321 c -2.00419,0.14391 -3.5269,-0.15109 -4.28571,-0.83028 -0.64734,-0.57942 -3.04381,-1.39561 -5.32547,-1.81374 -2.28166,-0.41814 -4.48143,-0.96603 -4.88837,-1.21754 -0.47903,-0.29605 -0.56417,-2.44264 -0.24148,-6.08803 l 0.49844,-5.63076 h -8.28863 c -6.89148,0 -8.28863,-0.1806 -8.28863,-1.07143 0,-0.61121 -0.64235,-1.07143 -1.49544,-1.07143 -0.89473,0 -1.64551,-0.57385 -1.86902,-1.42857 -0.47887,-1.83118 -4.84601,-1.97664 -6.78061,-0.22586 -1.24926,1.13058 -1.51438,1.11265 -4.41991,-0.29897 -2.51742,-1.22306 -4.66688,-1.53618 -11.5844,-1.68758 -7.6027,-0.16638 -8.8165,-0.0188 -11.5735,1.40753 -2.43807,1.2613 -3.73452,1.49526 -6.22025,1.1225 -2.52946,-0.37931 -3.63226,-0.16681 -5.66997,1.09257 -1.39137,0.8599 -2.52975,2.0194 -2.52975,2.57664 0,0.67161 -0.80085,1.01317 -2.3755,1.01317 -1.5922,0 -2.91328,0.57246 -4.00645,1.73609 -0.90385,0.9621 -2.86056,1.94383 -4.38897,2.20205 -2.43688,0.4117 -2.81075,0.74718 -3.21111,2.88132 -0.24922,1.32845 -0.82129,2.70526 -1.27127,3.05958 -0.44997,0.35432 -3.8717,1.66448 -7.60385,2.91146 -6.12235,2.0456 -6.98838,2.5596 -8.85883,5.25792 -1.63126,2.35324 -2.22862,4.27301 -2.80267,9.00697 l -0.72953,6.0163 2.44552,2.15934 c 1.34503,1.18764 2.95004,2.90706 3.56669,3.82094 0.61665,0.91387 2.8484,2.54568 4.95944,3.62624 3.784,1.93688 3.88103,2.06801 6.86502,9.27779 1.77964,4.29987 4.20426,8.71453 5.8845,10.71429 1.69538,2.01777 3.19787,4.7622 3.69401,6.74743 0.65885,2.6363 1.41342,3.72823 3.5564,5.14638 2.6332,1.74257 2.73578,1.96734 3.21065,7.03493 0.48115,5.13451 0.54303,5.26504 3.22922,6.81102 1.8024,1.03732 3.42699,2.86005 4.75199,5.33154 1.80613,3.36893 2.33561,3.82319 5.14544,4.41443 1.99825,0.42047 4.10927,0.39826 5.83123,-0.0613 1.4845,-0.39624 3.14719,-0.46966 3.69486,-0.16317 1.68921,0.94533 17.47605,2.05339 29.36558,2.06114 8.48568,0.006 11.23808,0.22171 11.02338,0.86581 -0.61142,1.83427 -6.99402,2.74166 -13.9787,1.98729 -6.4921,-0.70117 -6.71926,-0.67473 -9.82143,1.14326 -2.59286,1.51952 -3.17562,2.2388 -3.17562,3.91956 0,1.40703 0.56461,2.42846 1.78402,3.22746 1.21883,0.7986 2.19167,2.55759 3.07073,5.55217 1.12842,3.84409 1.524,4.41105 3.21597,4.60926 1.50575,0.1764 1.92928,0.60762 1.92928,1.96429 0,0.95605 0.0803,1.73339 0.17857,1.72743 0.0982,-0.006 1.625,-0.44558 3.39285,-0.97691 l 3.21429,-0.96606 1.15477,2.91738 c 0.88247,2.22943 1.66826,3.05044 3.33229,3.48164 1.60662,0.41631 3.33521,2.12735 6.59323,6.52626 l 4.41572,5.96202 6.04122,0.89879 c 3.32268,0.49433 6.21728,0.72274 6.43245,0.50757 0.21516,-0.21517 -0.44997,-2.22861 -1.47808,-4.47431 -1.02811,-2.24569 -1.69673,-4.25565 -1.48581,-4.46658 0.21093,-0.21092 2.78272,1.28446 5.7151,3.32306 2.93238,2.0386 5.69971,3.70655 6.14962,3.70655 0.4499,0 1.9006,-0.66907 3.22375,-1.48683 1.69788,-1.04934 2.40574,-2.01451 2.40574,-3.28019 0,-0.98635 0.64286,-2.61063 1.42857,-3.6095 1.02787,-1.30673 1.42857,-2.8977 1.42857,-5.67212 0,-4.80835 2.22219,-9.39938 6.61824,-13.6733 2.40421,-2.33741 3.08976,-3.48355 2.84609,-4.7582 -0.49088,-2.5679 1.80694,-3.37948 8.80335,-3.10935 3.30977,0.12779 6.01783,0.47342 6.01791,0.76806 7e-5,0.29464 -0.28924,0.53572 -0.64292,0.53572 -0.35367,0 -1.017,1.55883 -1.47406,3.46407 -0.80109,3.3393 -0.74009,3.62877 1.69309,8.03572 1.81147,3.28093 3.51398,5.24191 6.03022,6.9457 l 3.50613,2.37406 5.00507,-2.5205 c 4.66805,-2.3508 5.07588,-2.43851 6.05696,-1.30264 1.60108,1.85368 2.68278,5.69231 2.68278,9.5204 0,3.08946 -0.21702,3.55872 -2.09486,4.52979 -2.29423,1.1864 -2.30889,0.4709 0.17973,8.77482 0.61812,2.0625 0.96977,3.75 0.78146,3.75 -0.18832,0 -1.92817,-0.80357 -3.86633,-1.78571 -1.93816,-0.98214 -3.85605,-1.78571 -4.26197,-1.78571 -0.40839,0 -0.72492,1.51543 -0.70869,3.39285 0.0289,3.33685 0.10595,3.44947 4.66938,6.82251 3.53682,2.61422 5.46148,3.52694 8.09501,3.83884 3.06049,0.36247 3.58759,0.68727 4.61634,2.84459 1.48359,3.11111 1.48547,3.10121 -0.58855,3.10121 -0.96245,0 -3.15328,0.94712 -4.86852,2.10472 -2.65978,1.79507 -3.24305,2.64381 -3.96438,5.76878 -1.02855,4.45592 -1.04869,6.01011 -0.12118,9.34918 0.68113,2.45212 0.90049,2.6016 4.43141,3.01979 4.27371,0.50615 6.40159,-0.497 8.30526,-3.9154 1.14337,-2.05313 1.32998,-2.11472 5.76665,-1.90301 l 4.58504,0.21879 2.39339,-3.21428 c 1.78179,-2.39293 2.30307,-3.71623 2.03995,-5.17857 -0.32995,-1.83383 -0.18856,-1.96429 2.12872,-1.96429 1.36518,0 2.48214,-0.27686 2.48214,-0.61524 0,-0.33837 0.72948,-0.47578 1.62106,-0.30535 2.254,0.43088 5.07512,5.45731 4.46354,7.95276 -0.25562,1.04302 -1.80959,3.27999 -3.45325,4.97106 l -2.98849,3.07465 -0.15817,9.78249 c -0.37155,22.98007 -0.6669,20.29544 2.72743,24.79121 l 3.01564,3.99418 3.99326,-0.48245 c 2.19629,-0.26534 4.39153,-0.80064 4.87829,-1.18955 z m 59.83523,-215.68254 c 1.59362,-1.89391 1.74844,-2.40822 0.91381,-3.03572 -0.55267,-0.41553 -2.07743,-1.60406 -3.38835,-2.6412 l -2.38348,-1.8857 1.56193,-2.19352 1.56193,-2.19353 -1.41524,-2.77409 c -1.2992,-2.54664 -1.32123,-2.8681 -0.26869,-3.92064 0.94556,-0.94557 0.98546,-1.34065 0.22759,-2.25382 -1.13643,-1.36932 -0.59975,-1.37308 3.83802,-0.0269 1.93084,0.58573 3.61084,0.96476 3.73333,0.84227 0.12249,-0.12249 -0.10287,-3.08796 -0.50079,-6.58993 -0.52643,-4.63291 -1.10556,-6.77391 -2.12619,-7.86032 -0.97153,-1.03414 -1.4027,-2.49623 -1.4027,-4.7566 0,-2.65621 -0.26424,-3.33261 -1.41997,-3.63484 -0.78098,-0.20424 -1.73731,-1.20601 -2.12518,-2.22617 -0.43308,-1.1391 -1.25357,-1.85483 -2.12632,-1.85483 -0.78162,0 -1.79475,-0.69812 -2.2514,-1.55139 -0.72588,-1.35632 -0.55409,-1.78293 1.36629,-3.39286 1.20811,-1.0128 3.95453,-4.7127 6.10315,-8.222 l 3.90659,-6.38052 -2.52691,-3.08376 c -1.7697,-2.15969 -3.0694,-3.08376 -4.33728,-3.08376 -1.73319,0 -1.75802,-0.0579 -0.58254,-1.35674 1.25493,-1.38669 3.25555,-7.80574 3.27081,-10.49448 0.006,-1.13347 -0.69931,-1.70614 -2.92408,-2.3727 -2.69451,-0.80729 -3.01669,-0.75849 -3.96907,0.60123 -1.40496,2.00585 -2.87484,1.85973 -6.6698,-0.66302 -1.76786,-1.17521 -4.09081,-2.13812 -5.16211,-2.1398 -2.47447,-0.004 -3.59311,-1.7771 -5.13995,-8.14755 -0.65842,-2.71162 -2.78742,-8.30162 -4.7311,-12.42225 l -3.53399,-7.49204 -5.89499,0.36906 -5.895,0.36905 0.22467,-3.6611 c 0.12356,-2.0136 -0.93553,-11.05395 -2.35355,-20.08966 -2.40783,-15.34279 -2.54615,-17.10128 -2.09289,-26.60714 l 0.48533,-10.17857 h -5.52151 c -4.56577,0 -5.90858,0.27561 -7.75761,1.59223 -1.22985,0.87573 -3.67656,1.75966 -5.43715,1.96429 -2.68221,0.31174 -3.26981,0.66149 -3.62515,2.15776 -0.3871,1.63001 -0.76343,1.78798 -4.31597,1.81172 -2.14054,0.0143 -4.56538,0.40078 -5.38853,0.85885 -0.82316,0.45806 -4.4267,1.05404 -8.00789,1.32438 -5.40947,0.40836 -6.81385,0.29325 -8.29965,-0.68028 -0.98362,-0.6445 -2.10855,-1.17181 -2.49982,-1.17181 -0.39128,0 -1.76739,1.90622 -3.05803,4.23604 -2.72157,4.91294 -4.94092,5.95422 -6.76316,3.17314 -0.90962,-1.38826 -1.72178,-1.6949 -4.48911,-1.6949 -4.09348,0 -5.542,1.32227 -5.86867,5.35715 l -0.23131,2.85714 -4.07866,0.61256 c -3.05226,0.45842 -4.85813,0.34698 -7.17608,-0.44283 -2.99713,-1.02122 -3.22354,-0.99011 -6.99277,0.96088 -3.45303,1.78733 -4.6677,2.02011 -10.69721,2.04998 l -6.80185,0.0337 -1.24998,2.32142 c -1.15576,2.14647 -1.53138,2.32631 -4.98385,2.38616 -2.05364,0.0356 -5.04461,0.31157 -6.6466,0.61326 -2.7397,0.51596 -3.1489,0.35616 -6.88937,-2.6905 l -3.97667,-3.23904 -1.62799,1.73292 c -0.89539,0.95311 -2.29518,1.73002 -3.11062,1.72648 -0.81545,-0.004 -2.28621,0.96827 -3.26835,2.15959 l -1.78572,2.16603 -3.76854,-1.5949 c -3.21383,-1.36014 -4.09446,-1.47189 -5.98272,-0.75915 -1.79597,0.6779 -2.61163,0.63023 -4.31848,-0.25242 -2.44629,-1.26503 -3.50237,-0.70177 -4.86864,2.59669 -0.77435,1.86943 -1.22821,2.11917 -3.85135,2.11917 -2.8604,0 -3.01777,0.1193 -4.13547,3.13501 -0.85645,2.31081 -0.95195,3.34498 -0.36325,3.93368 0.58869,0.58869 0.49411,1.1032 -0.35974,1.95705 -1.06834,1.06834 -1.32539,1.03949 -3.30639,-0.37111 l -2.14799,-1.5295 -2.60042,1.53428 c -2.12117,1.25152 -2.88841,1.38541 -4.163,0.7265 -0.85942,-0.44429 -3.81258,-1.28366 -6.56258,-1.86526 l -5,-1.05746 -1.83773,2.12555 c -1.01075,1.16905 -2.48958,2.12555 -3.28627,2.12555 -2.47346,0 -5.94743,1.51772 -5.94743,2.59832 0,0.56651 0.62077,2.24683 1.3795,3.73405 1.22217,2.39565 1.83315,2.80557 5.35715,3.5942 l 3.97764,0.89016 v 3.80041 3.8004 l 5,1.22531 5,1.22532 v 2.69819 c 0,4.7696 -1.51089,6.80265 -11.46017,15.42082 -5.2862,4.57896 -9.72828,8.431 -9.87131,8.5601 -0.14302,0.1291 0.36855,1.29627 1.13684,2.59372 0.76828,1.29745 2.26549,3.88674 3.32712,5.75398 l 1.93023,3.39499 2.16237,-1.11821 c 1.70358,-0.88095 3.35365,-1.01429 7.77694,-0.62844 5.43363,0.47398 5.68628,0.579 7.83993,3.25893 1.88051,2.34004 2.64611,2.76918 4.94037,2.76918 2.46379,0 2.83094,-0.2571 3.96797,-2.7786 0.77049,-1.70863 1.05885,-3.39025 0.74884,-4.36698 -0.40882,-1.28808 0.20303,-2.30441 3.2364,-5.37595 l 3.74053,-3.78757 -1.59145,-2.57503 c -0.8753,-1.41627 -2.66686,-3.39528 -3.98124,-4.39781 -2.51874,-1.92114 -2.6481,-3.86092 -0.25747,-3.86092 1.80389,0 13.7258,8.91213 17.89496,13.37723 2.75097,2.94624 6.31628,8.4474 6.31628,9.74581 0,0.17755 -1.30511,0.54332 -2.90026,0.81282 l -2.90025,0.48999 0.49919,9.39421 c 0.27455,5.16682 0.90434,10.97736 1.39953,12.9123 0.6502,2.54065 0.68738,3.8591 0.13384,4.74546 -0.54748,0.87665 -0.5344,3.11252 0.0458,7.82459 0.44675,3.62847 0.9479,6.73285 1.11368,6.89861 0.16577,0.16577 2.99014,-1.43229 6.27637,-3.55124 3.28624,-2.11895 7.2607,-4.26362 8.83213,-4.76594 1.57142,-0.50232 3.69905,-1.69798 4.72805,-2.65704 1.63081,-1.51995 1.92873,-1.59307 2.32143,-0.5697 0.95762,2.4955 0.48685,5.16678 -0.97806,5.54986 -1.24635,0.32593 -1.42857,0.9743 -1.42857,5.08331 v 4.70973 l 2.67857,0.042 c 2.3367,0.0366 2.51113,0.1506 1.3667,0.89286 -3.31589,2.15061 -3.43635,2.32517 -2.9478,4.2717 0.3557,1.41723 0.93521,1.93629 2.16178,1.93629 0.9217,0 2.51766,0.84184 3.54658,1.87076 1.67382,1.67382 2.234,1.82257 5.32127,1.41303 1.97897,-0.26251 4.81498,-0.0928 6.64995,0.398 3.10223,0.82972 3.2888,0.78496 6.13977,-1.47306 1.61717,-1.28082 2.94031,-2.85322 2.94031,-3.49421 0,-1.16393 6.23156,-8.00023 7.29252,-8.00023 0.30828,0 1.76679,1.08946 3.24114,2.42102 2.65792,2.40052 2.70332,2.41197 5.3592,1.35218 1.47321,-0.58787 2.67857,-1.51661 2.67857,-2.06388 0,-0.54727 0.2965,-0.99503 0.65889,-0.99503 0.36239,0 1.04371,-1.166 1.51404,-2.59111 l 0.85514,-2.59111 3.84311,0.39664 c 2.11371,0.21816 3.84311,0.15416 3.84311,-0.14222 0,-0.29637 1.87018,-1.89371 4.15597,-3.54964 l 4.15598,-3.01079 0.92612,-8.61372 c 0.61448,-5.71507 0.6933,-9.13028 0.23426,-10.14875 -4.54286,-10.07905 -4.42805,-9.3174 -1.80061,-11.94484 1.0766,-1.07659 2.28195,-3.2712 2.67858,-4.8769 l 0.72112,-2.91946 2.94408,1.96023 c 3.24473,2.16042 22.75034,19.77642 30.63267,27.66515 2.75293,2.75515 6.38063,5.94508 8.06157,7.08872 l 3.05625,2.07935 2.47415,-2.39804 c 3.23439,-3.1349 3.40711,-6.35619 0.45355,-8.45931 -1.50807,-1.07385 -2.2463,-2.44735 -2.91044,-5.415 -0.9449,-4.2223 -2.20171,-5.38871 -6.89367,-6.39785 -1.20002,-0.25809 -3.63254,-1.50216 -5.40561,-2.76459 -4.27224,-3.04186 -15.02295,-12.78016 -14.58847,-13.21465 0.18822,-0.18823 1.44844,0.62904 2.80047,1.81614 4.66516,4.09606 9.07131,6.75593 10.55058,6.3691 0.78598,-0.20555 3.45445,0.53501 5.92992,1.64568 4.99787,2.2424 7.67103,5.14536 8.89513,9.65982 0.59762,2.204 1.82722,3.72739 5.37871,6.66393 3.00991,2.48874 4.75782,4.50724 5.04831,5.82983 0.48132,2.19141 5.2212,6.96449 12.2507,12.33652 3.33847,2.55128 5.08292,4.60223 7.27129,8.54885 2.11594,3.816 4.21586,6.3283 7.92226,9.47802 5.00239,4.25106 5.03982,4.30933 4.62903,7.20722 -0.56589,3.99201 1.51946,6.33706 7.21381,8.11218 6.66517,2.07776 9.15021,1.90088 11.43454,-0.8139 z"
       id="path5036"
       inkscape:connector-curvature="0"
       transform="matrix(0.26458333,0,0,0.26458333,0,81.1)" />
  </g>
</svg>
