<?xml version="1.0" encoding="UTF-8" standalone="no"?>
<svg xmlns:dc="http://purl.org/dc/elements/1.1/" xmlns:cc="http://creativecommons.org/ns#" xmlns:rdf="http://www.w3.org/1999/02/22-rdf-syntax-ns#" xmlns:svg="http://www.w3.org/2000/svg" xmlns="http://www.w3.org/2000/svg" xmlns:sodipodi="http://sodipodi.sourceforge.net/DTD/sodipodi-0.dtd" xmlns:inkscape="http://www.inkscape.org/namespaces/inkscape" id="svg2" width="1607.0577" height="1169.7494" sodipodi:version="0.32" inkscape:version="0.48.2 r9819" sodipodi:docname="Hong_Kong_Base_Map.svg" inkscape:output_extension="org.inkscape.output.svg.inkscape" inkscape:export-filename="C:\Documents and Settings\HP_Owner\桌面\docs_on_desktop\hk_mtr_plan.png" inkscape:export-xdpi="90" inkscape:export-ydpi="90" version="1.0" sodipodi:modified="true">
  <rect id="ocean_bg" x="0" y="2.0044227" width="1607.0577" height="1167.745" style="fill:#7fc9ee"/>
  <path id="newterritories_kowloon" d="M 577.00745,179.56548 L 564.00745,206.56548 L 567.00745,213.56548 L 559.00745,216.56548 L 553.00745,245.56548 L 516.00745,269.56548 L 518.00745,242.56548 L 481.00745,207.56548 L 469.00745,239.56548 L 465.00745,259.56548 L 446.00745,267.56548 L 428.00745,286.56548 L 418.00745,302.56548 L 418.00745,319.56548 L 385.00745,332.56548 L 357.00745,347.56548 L 353.00745,367.56548 L 341.00745,370.56548 L 337.00745,398.56548 L 317.00745,413.56548 L 295.00745,419.56548 L 255.00745,427.56548 L 225.00745,459.56548 L 219.00745,472.56548 L 235.00745,481.56548 L 242.00745,478.56548 L 247.00745,483.56548 L 254.00745,492.56548 L 251.00745,497.56548 L 258.00745,514.56548 L 271.00745,523.56548 L 272.00745,542.56548 L 261.00745,545.56548 L 257.00745,559.56548 L 281.00745,582.56548 L 293.00745,593.56548 L 303.00745,580.56548 L 311.00745,584.56548 L 303.00745,600.56548 L 317.00745,607.56548 L 320.00745,603.56548 L 344.00745,608.56548 L 347.00745,601.56548 L 343.00745,591.56548 L 354.00745,584.56548 L 375.00745,569.56548 L 412.00745,576.56548 L 400.00745,553.56548 L 396.00745,544.56548 L 397.00745,536.56548 L 406.00745,528.56548 L 410.00745,507.56548 L 424.00745,476.56548 L 413.00745,509.56548 L 409.00745,529.56548 L 400.00745,537.56548 L 399.00745,543.56548 L 404.00745,552.56548 L 422.00745,545.56548 L 438.00745,554.56548 L 438.00745,558.56548 L 450.00745,566.56548 L 458.00745,592.56548 L 476.00745,591.56548 L 481.00745,602.56548 L 487.00745,603.56548 L 507.00745,593.56548 L 527.00745,599.56548 L 534.00745,615.56548 L 566.00745,620.56548 L 591.00745,613.56548 L 592.00745,609.56548 L 610.00745,603.56548 L 615.00745,605.56548 L 647.00745,588.56548 L 662.00745,596.56548 L 676.00745,597.56548 L 676.00745,593.56548 L 683.00745,585.56548 L 694.00745,586.56548 L 699.00745,586.56548 L 702.00745,579.56548 L 722.00745,585.56548 L 733.00745,585.56548 L 740.00745,583.56548 L 751.00745,583.56548 L 766.00745,571.56548 L 779.00745,583.56548 L 788.00745,596.56548 L 786.00745,607.56548 L 791.00745,608.56548 L 797.00745,621.56548 L 792.00745,627.56548 L 796.00745,631.56548 L 796.00745,642.56548 L 802.00745,642.56548 L 808.00745,640.56548 L 817.00745,669.56548 L 830.00745,667.56548 L 832.00745,671.56548 L 821.00745,676.56548 L 827.00745,699.56548 L 846.00745,692.56548 L 849.00745,700.56548 L 818.00745,709.56548 L 811.00745,719.56548 L 833.00745,732.56548 L 844.00745,736.56548 L 844.00745,743.56548 L 847.00745,743.56548 L 848.00745,730.56548 L 855.00745,729.56548 L 856.00745,736.56548 L 851.00745,740.56548 L 859.00745,737.56548 L 859.00745,731.56548 L 870.00745,737.56548 L 879.00745,721.56548 L 883.00745,720.56548 L 883.00745,717.56548 L 878.00745,713.56548 L 869.00745,717.56548 L 866.00745,714.56548 L 871.00745,708.56548 L 871.00745,705.56548 L 866.00745,704.56548 L 866.00745,702.56548 L 879.00745,701.56548 L 902.00745,718.56548 L 902.00745,731.56548 L 914.00745,732.56548 L 915.00745,761.56548 L 909.00745,770.56548 L 903.00745,770.56548 L 903.00745,762.56548 L 902.00745,760.56548 L 900.00745,759.56548 L 901.00745,762.56548 L 901.00745,784.56548 L 912.00745,785.56548 L 913.00745,782.56548 L 920.00745,781.56548 L 924.00745,777.56548 L 934.00745,776.56548 L 934.00745,782.56548 L 930.00745,783.56548 L 930.00745,784.56548 L 935.00745,783.56548 L 935.00745,786.56548 L 930.00745,787.56548 L 931.00745,788.56548 L 935.00745,787.56548 L 935.00745,790.56548 L 931.00745,792.56548 L 932.00745,792.56548 L 937.00745,791.56548 L 937.00745,793.56548 L 928.00745,796.56548 L 930.00745,800.56548 L 934.00745,800.56548 L 938.00745,798.56548 L 940.00745,802.56548 L 956.00745,801.56548 L 961.00745,798.56548 L 960.00745,793.56548 L 977.00745,783.56548 L 977.00745,791.56548 L 979.00745,790.56548 L 979.00745,782.56548 L 983.00745,785.56548 L 1006.0074,774.56548 L 1008.0074,757.56548 L 1003.0074,755.56548 L 1006.0074,751.56548 L 1003.0074,746.56548 L 1003.0074,739.56548 L 1012.0074,721.56548 L 1067.0074,772.56548 L 1072.0074,767.56548 L 1066.0074,762.56548 L 1066.0074,757.56548 L 1062.0074,754.56548 L 1056.0074,753.56548 L 1041.0074,738.56548 L 1044.0074,734.56548 L 1054.0074,742.56548 L 1061.0074,737.56548 L 1079.0074,756.56548 L 1074.0074,762.56548 L 1078.0074,761.56548 L 1081.0074,758.56548 L 1082.0074,763.56548 L 1087.0074,764.56548 L 1085.0074,767.56548 L 1120.0074,807.56548 L 1125.0074,813.56548 L 1123.0074,815.56548 L 1141.0074,823.56548 L 1155.0074,803.56548 L 1176.0074,780.56548 L 1194.0074,779.56548 L 1202.0074,765.56548 L 1204.0074,764.56548 L 1194.0074,782.56548 L 1196.0074,785.56548 L 1196.0074,787.56548 L 1204.0074,792.56548 L 1204.0074,805.56548 L 1215.0074,805.56548 L 1214.0074,812.56548 L 1203.0074,829.56548 L 1204.0074,833.56548 L 1199.0074,843.56548 L 1196.0074,853.56548 L 1199.0074,853.56548 L 1200.0074,862.56548 L 1201.0074,862.56548 L 1202.0074,857.56548 L 1205.0074,856.56548 L 1206.0074,864.56548 L 1208.0074,862.56548 L 1209.0074,855.56548 L 1213.0074,855.56548 L 1214.0074,863.56548 L 1216.0074,867.56548 L 1211.0074,867.56548 L 1211.0074,871.56548 L 1223.0074,891.56548 L 1226.0074,889.56548 L 1231.0074,889.56548 L 1245.0074,879.56548 L 1257.3789,872.64458 L 1255.8635,856.82146 L 1281.3891,858.48902 L 1289.5097,869.1119 L 1314.5889,866.86183 L 1326.4022,883.45832 L 1337.0467,902.77601 L 1344.2287,890.76894 L 1345.0589,875.78573 L 1358.6592,878.4675 L 1371.6592,873.56547 L 1368.0143,864.47351 L 1358.5594,867.04808 L 1352.8186,856.11336 L 1360.555,854.89361 L 1352.6802,842.23281 L 1354.216,825.46829 L 1364.1592,822.14917 L 1348.8994,818.88176 L 1340.2099,829.01927 L 1330.5396,845.28171 L 1316.4715,851.23511 L 1312.9008,839.41285 L 1316.0605,830.64932 L 1329.4447,824.02522 L 1307.7382,825.83021 L 1296.5218,817.01678 L 1292.4155,806.67963 L 1297.4595,800.56099 L 1291.5697,796.2376 L 1298.995,787.975 L 1312.3718,796.47003 L 1334.3754,799.83439 L 1347.0862,784.87406 L 1364.4072,780.32392 L 1371.6914,767.43762 L 1368.9322,751.4459 L 1342.7704,736.1648 L 1330.7279,726.36684 L 1321.7877,735.34401 L 1313.2785,752.87185 L 1299.7936,740.64077 L 1304.3955,719.07035 L 1295.111,709.49393 L 1278.0095,701.7968 L 1257.0074,714.56548 L 1231.0074,717.56548 L 1221.0074,715.56548 L 1219.0074,693.56548 L 1215.0074,688.56548 L 1215.0074,682.56548 L 1213.0074,677.56548 L 1211.0074,670.56548 L 1205.0074,670.56548 L 1201.0074,657.56548 L 1203.0074,645.56548 L 1210.0074,639.56548 L 1207.0074,632.56548 L 1199.0074,634.56548 L 1194.0074,624.56548 L 1187.0074,624.56548 L 1187.0074,618.56548 L 1164.0074,624.56548 L 1174.0074,617.56548 L 1185.0074,612.56548 L 1178.0074,603.56548 L 1182.0074,597.56548 L 1188.0074,601.56548 L 1187.0074,593.56548 L 1188.0074,585.56548 L 1203.0074,589.56548 L 1209.0074,587.56548 L 1210.0074,600.56548 L 1200.0074,605.56548 L 1199.0074,618.56548 L 1202.0074,619.56548 L 1207.0074,615.56548 L 1213.0074,615.56548 L 1219.0074,624.56548 L 1223.0074,633.56548 L 1228.0074,633.56548 L 1228.0074,623.56548 L 1231.0074,624.56548 L 1238.0074,613.56548 L 1231.0074,603.56548 L 1228.0074,603.56548 L 1226.0074,598.56548 L 1222.0074,594.56548 L 1217.0074,579.56548 L 1227.0074,563.56548 L 1224.0074,545.56548 L 1231.0074,536.56548 L 1238.815,538.22233 L 1245.1009,530.13088 L 1256.3003,532.30202 L 1261.9177,541.31354 L 1270.4233,544.59804 L 1275.421,537.92945 L 1281.0359,551.08322 L 1286.6426,552.24271 L 1289.1723,539.16936 L 1296.6459,555.71748 L 1308.0339,546.52437 L 1321.3518,557.97641 L 1327.8248,545.90713 C 1331.9184,543.0447 1338.6439,537.89715 1336.3249,540.2569 L 1343.7487,527.21294 L 1341.9613,546.88049 L 1338.9735,567.08588 L 1349.6651,566.37954 L 1352.3534,579.30803 L 1369.0027,591.11577 L 1381.6435,588.07698 L 1384.8155,599.87807 C 1385.2423,599.97041 1387.651,603.84602 1391.8873,605.74409 C 1395.7635,607.4808 1401.4,607.21656 1403.6835,608.03106 C 1410.5153,610.46783 1413.1212,613.68711 1415.3338,615.46332 C 1418.7865,618.2352 1404.7314,616.82707 1407.4619,617.83482 C 1410.6143,618.99829 1416.6608,623.63797 1422.0063,624.40097 C 1427.8976,625.2419 1430.9679,618.59737 1433.9541,618.23221 C 1443.1012,617.11366 1436.0531,601.07723 1443.935,609.58583 L 1455.0208,624.68628 L 1449.6887,630.25116 L 1449.6367,641.95094 L 1458.6938,651.17602 L 1468.4347,643.69831 L 1468.8593,628.54697 L 1464.5831,619.02315 L 1466.5373,613.15219 L 1474.8502,620.90801 L 1478.0832,619.74747 L 1478.3502,615.75416 L 1474.6733,610.12043 L 1483.1972,614.99387 L 1489.8017,612.80681 L 1486.0022,606.8391 L 1492.3216,602.8869 L 1485.7623,598.43666 L 1490.3485,589.42009 L 1497.6343,590.32399 L 1501.7789,588.01165 L 1499.6774,582.67925 L 1485.3815,575.11145 L 1495.7111,566.3193 L 1500.5519,570.30353 L 1502.2498,577.49182 L 1510.0621,580.7485 L 1513.8348,576.49885 L 1509.2416,567.20658 L 1501.5627,561.27756 L 1508.9215,559.86942 L 1510.1093,555.88676 L 1507.239,548.65473 L 1508.2609,540.23267 L 1501.2733,535.7899 L 1495.5252,537.06244 L 1494.5763,529.39012 L 1488.7957,528.19752 L 1491.3219,519.25661 L 1488.2009,512.41771 L 1471.7678,517.5056 L 1481.7756,509.79109 L 1473.5521,497.97697 L 1483.9893,500.40957 L 1486.6519,494.14924 L 1489.3015,490.57829 L 1486.3643,483.92038 L 1491.9623,476.08074 L 1497.353,480.69686 L 1498.7378,478.41162 L 1493.4766,471.10056 L 1500.4676,459.29313 L 1505.4821,460.61211 L 1509.7959,449.15968 L 1514.694,453.16289 L 1522.0674,456.29814 L 1525.9451,454.4694 L 1531.7062,453.47851 L 1533.3658,458.22033 L 1537.3601,458.05267 L 1539.3877,462.2977 L 1549.6798,465.67131 L 1553.093,469.44145 L 1559.8454,469.1097 L 1562.8648,464.14225 L 1561.7458,459.57519 L 1558.5019,458.95412 L 1559.1342,455.95111 L 1550.0598,449.9433 L 1551.2724,442.6299 L 1541.7472,435.25569 L 1538.9802,427.51727 L 1546.6001,423.88655 L 1546.855,414.00347 L 1551.8897,409.83135 L 1557.1209,402.32003 L 1546.4278,402.63441 L 1544.8313,395.39545 L 1539.6196,400.19324 L 1535.0539,393.27533 L 1525.7617,392.56449 L 1519.4524,395.17083 L 1509.9549,387.53036 L 1498.1119,389.80298 L 1495.0691,373.41481 L 1490.6119,361.84586 L 1490.4979,353.32116 L 1500.1979,355.42145 L 1513.7466,346.17563 L 1519.6181,338.99804 L 1521.6373,329.8872 L 1518.9812,314.57862 L 1512.1814,310.91281 L 1508.6408,303.90022 L 1498.7866,298.56559 L 1483.4152,293.33602 L 1477.5471,308.14891 L 1478.8469,318.84768 L 1482.1922,331.29763 L 1473.3508,330.71695 L 1469.1689,338.62116 L 1464.4429,336.40929 L 1462.4547,341.62503 L 1467.9614,346.65068 L 1464.1494,356.48232 L 1471.774,354.80994 L 1467.5923,366.07206 L 1469.8623,370.25604 L 1468.2791,374.72568 L 1473.2358,378.31055 L 1470.4891,382.14263 L 1471.6533,390.9766 L 1474.6474,394.23003 L 1472.936,398.5593 L 1473.774,404.31899 L 1474.5086,415.00937 L 1470.8759,423.03899 L 1473.577,428.10039 L 1471.782,434.20958 L 1467.7951,438.51177 L 1463.807,435.57991 L 1460.3744,436.94916 L 1454.5777,430.64028 L 1461.1927,422.57962 L 1458.1721,415.86221 L 1456.9735,407.54207 L 1452.2477,400.80416 L 1453.9761,398.48032 L 1450.9298,395.19587 L 1443.8181,399.60132 L 1443.6701,405.4783 L 1441.5796,408.26321 L 1437.3454,405.81139 L 1437.6225,410.01684 L 1440.2121,412.59535 L 1433.8488,414.47225 L 1429.2235,418.44121 L 1424.1665,413.93836 L 1428.3257,413.19124 L 1429.9441,406.12212 L 1426.9824,398.1911 L 1421.901,394.53813 L 1419.8801,388.46656 L 1425.3596,389.05403 L 1428.3242,384.53437 L 1432.0407,380.90379 L 1433.6403,374.98981 L 1432.2503,368.16393 L 1427.5113,364.07607 L 1422.8773,363.26454 L 1416.7806,363.00832 L 1420.6632,358.42651 L 1420.3687,353.67409 L 1419.5247,348.18145 L 1417.6686,342.17971 L 1415.3663,337.64129 L 1411.7861,334.60575 L 1408.2573,331.39992 L 1408.8644,322.9921 L 1412.6911,317.46034 L 1412.1904,310.10106 L 1403.8133,293.50263 L 1408.7663,290.29452 L 1413.629,290.89141 L 1418.1077,286.67359 L 1423.3756,290.07073 L 1429.4153,283.24088 L 1426.729,274.8656 L 1423.2995,269.04987 L 1420.6552,265.76662 L 1420.2679,262.44284 L 1420.0911,258.08161 L 1417.6091,253.75385 L 1416.0805,248.62029 L 1413.0144,246.01711 L 1410.8896,250.1581 L 1407.8367,252.39399 L 1409.7464,258.03829 L 1410.2653,263.40545 L 1407.0621,270.86932 L 1407.1405,279.579 L 1404.1106,280.58172 L 1402.0531,292.22896 L 1398.3908,294.16964 L 1396.1228,291.9531 L 1391.5978,293.47167 L 1389.5627,289.95143 L 1385.609,289.22077 L 1382.0749,292.00047 L 1382.3222,298.21831 L 1378.0656,299.70319 L 1375.9714,307.47432 L 1372.6189,291.81027 L 1373.1758,283.17427 L 1374.2743,277.31313 L 1375.9582,274.85989 L 1374.6039,267.96673 L 1377.0787,263.70751 L 1376.272,258.59008 L 1379.0963,257.9014 L 1378.059,254.6034 L 1375.2216,254.87889 L 1373.3518,257.47062 L 1370.4939,257.67104 L 1368.5464,254.74448 L 1368.7898,248.75144 L 1366.5075,243.1632 L 1364.7641,246.67472 L 1363.8198,253.01258 L 1359.3788,252.88065 L 1355.5963,253.02734 L 1351.9907,254.34239 L 1348.3396,256.58536 L 1345.0877,259.10312 L 1342.8273,261.70679 L 1340.5543,265.34267 L 1337.9856,269.17073 L 1336.2738,271.8493 L 1333.0724,273.07598 L 1330.1071,274.00746 L 1327.6403,277.37744 L 1324.167,282.71159 L 1320.8675,286.33754 L 1315.7858,289.02469 L 1310.6512,292.31496 L 1307.576,296.22371 L 1306.8854,299.70558 L 1307.2826,304.0224 L 1305.6854,305.6089 L 1306.7249,309.38032 L 1304.0348,311.15917 L 1302.0821,311.48518 L 1303.8638,314.44218 L 1303.0599,316.5211 L 1304.6634,318.74141 L 1305.8604,320.9872 L 1304.6054,322.92546 L 1304.223,325.35613 L 1302.1131,326.96514 L 1299.1834,329.73289 L 1296.3421,325.07631 L 1290.9051,327.08737 L 1286.9969,328.53296 L 1282.2652,323.78992 L 1281.2668,329.49107 L 1283.8083,333.38457 L 1281.5893,338.68202 L 1277.7517,333.2412 L 1274.4418,332.84863 L 1271.8896,330.51111 L 1269.2173,333.82552 L 1262.7077,335.48141 L 1257.6667,339.35502 L 1253.7544,342.55431 L 1251.0272,348.38453 L 1245.1926,350.25882 L 1238.1994,364.09229 L 1251.8215,368.18539 L 1247.5441,375.05345 L 1248.0675,383.25008 L 1253.7855,388.43152 L 1255.7733,399.24913 L 1263.1964,402.84958 L 1258.4932,408.90594 L 1251.4543,412.00366 L 1238.6635,427.18143 L 1230.0074,432.56548 L 1226.0074,443.56548 L 1215.0074,443.56548 L 1207.0074,432.56548 L 1216.0074,407.56548 L 1209.0074,386.56548 L 1186.0074,394.56548 L 1176.0074,398.56548 L 1179.0074,392.56548 L 1168.0074,388.56548 L 1172.0074,394.56548 L 1148.0074,396.56548 L 1144.0074,385.56548 L 1138.0074,381.56548 L 1126.0074,382.56548 L 1123.0074,386.56548 L 1127.0074,390.56548 L 1127.0074,395.56548 L 1113.0074,406.56548 L 1101.0074,408.56548 L 1093.0074,417.56548 L 1084.0074,436.56548 L 1080.0074,461.56548 L 1081.0074,466.56548 L 1074.0074,471.56548 L 1034.0074,518.56548 L 1051.0074,536.56548 L 1032.0074,521.56548 L 997.00745,557.56548 L 983.00745,561.56548 L 973.00745,565.56548 L 981.00745,560.56548 L 994.00745,554.56548 L 1027.0074,518.56548 L 1012.0074,503.56548 L 1030.0074,514.56548 L 1071.0074,466.56548 L 1061.0074,459.56548 L 1066.0074,424.56548 L 1065.0074,414.56548 L 1044.0074,398.56548 L 1033.0074,400.56548 L 1038.0074,394.56548 L 1013.0074,374.56548 L 991.00745,374.56548 L 966.00745,359.56548 L 965.00745,350.56548 L 954.00745,343.56548 L 935.00745,342.56548 L 922.00745,347.56548 L 933.00745,340.56548 L 952.00745,340.56548 L 962.00745,346.56548 L 973.00745,346.56548 L 975.00745,339.56548 L 989.00745,338.56548 L 1004.0074,341.56548 L 1019.0074,336.56548 L 1019.0074,324.56548 L 1029.0074,316.56548 L 1039.0074,323.56548 L 1047.0074,326.56548 L 1053.0074,325.56548 L 1061.0074,328.56548 L 1060.0074,334.56548 L 1049.0074,345.56548 L 1066.0074,348.56548 L 1064.0074,353.56548 L 1073.0074,350.56548 L 1071.0074,346.56548 L 1087.0074,346.56548 L 1094.0074,349.56548 L 1113.0074,337.56548 L 1120.0074,322.56548 L 1115.0074,319.56548 L 1105.0074,322.56548 L 1092.0074,338.56548 L 1082.0074,340.56548 L 1074.0074,335.56548 L 1074.0074,331.56548 L 1077.0074,328.56548 L 1077.0074,326.56548 L 1051.0074,317.56548 L 1048.0074,299.56548 L 1062.0074,277.56548 L 1072.0074,285.56548 L 1072.0074,292.56548 L 1086.0074,292.56548 L 1089.0074,298.56548 L 1093.0074,283.56548 L 1095.0074,286.56548 L 1109.0074,280.56548 L 1112.0074,285.56548 L 1108.0074,291.56548 L 1117.0074,292.56548 L 1152.0074,330.56548 L 1150.0074,349.56548 L 1158.0074,338.56548 L 1169.0074,336.56548 L 1182.0074,330.56548 L 1190.0074,313.56548 L 1198.0074,307.56548 L 1207.0074,296.56548 L 1225.0074,292.56548 L 1222.0074,285.56548 L 1231.0074,282.56548 L 1257.0074,273.56548 L 1257.0074,265.56548 L 1231.0074,275.56548 L 1222.0074,276.56548 L 1216.0074,274.56548 L 1216.0074,271.56548 L 1208.0074,272.56548 L 1208.0074,275.56548 L 1197.0074,278.56548 L 1183.0074,291.56548 L 1183.0074,302.56548 L 1195.0074,299.56548 L 1196.0074,304.56548 L 1190.0074,308.56548 L 1185.0074,313.56548 L 1181.0074,323.56548 L 1170.0074,320.56548 L 1177.0074,318.56548 L 1171.0074,315.56548 L 1162.0074,318.56548 L 1156.0074,328.56548 L 1119.0074,289.56548 L 1121.0074,279.56548 L 1143.0074,248.56548 L 1136.0074,207.56548 L 1143.0074,223.56548 L 1194.0074,241.56548 L 1190.0074,247.56548 L 1200.0074,247.56548 L 1206.0074,231.56548 L 1231.0074,227.56548 L 1244.8898,233.2398 L 1240.4916,242.06312 L 1242.5051,249.14117 L 1247.5506,240.1789 L 1252.2515,237.62376 L 1257.0074,241.56548 L 1263.0073,247.10691 L 1262.9684,254.56373 L 1255.8396,267.56322 L 1256.5789,273.47418 L 1269.2536,263.75761 L 1276.0443,256.78606 L 1282.374,248.81941 L 1290.8456,250.30987 L 1318.0078,238.06692 L 1325.2462,230.51802 L 1305.8506,226.68791 L 1316.1466,222.54847 L 1321.0235,216.09745 L 1327.9684,216.40534 L 1335.3176,212.61472 L 1331.7105,221.10904 L 1332.366,226.37903 L 1344.9993,217.19842 L 1356.2115,194.32854 L 1366.4441,183.47514 L 1378.0348,179.61798 L 1389.4129,171.48249 L 1404.1195,166.81658 L 1397.9187,157.71112 L 1384.19,154.67482 L 1361.5074,167.56548 L 1331.0049,174.49895 L 1306.0056,174.05953 L 1293.4122,182.13727 L 1268.39,177.87839 L 1253.0363,166.99503 L 1243.7577,154.3443 L 1257.0074,139.56548 L 1238.2876,133.0995 L 1231.0074,118.56548 L 1218.0074,123.56548 L 1194.0074,122.56548 L 1198.0074,103.56548 L 1206.0074,102.56548 L 1204.0074,89.565477 L 1192.0074,99.565477 L 1196.0074,79.565477 L 1178.0074,82.565477 L 1182.0074,72.565477 L 1192.0074,67.565477 L 1180.0074,58.565477 L 1168.0074,60.565477 L 1151.0074,54.565477 L 1138.0074,55.565477 L 1122.0074,102.56548 L 1109.0074,105.56548 L 1104.0074,100.56548 L 1082.0074,106.56548 L 1073.0074,123.56548 L 1069.0074,117.56548 L 1050.0074,119.56548 L 1048.0074,95.565477 L 1059.0074,100.56548 L 1062.0074,86.565477 L 1084.0074,70.565477 L 1073.0074,73.565477 L 1107.0074,66.565477 L 1107.0074,61.565477 L 1113.0074,56.565477 L 1106.1009,31.277623 L 1072.8921,36.865492 L 1038.0471,23.992491 L 1002.0691,34.531228 L 970.217,41.993514 L 930.92538,31.277623 L 886.00745,45.565477 L 882.00745,57.565477 L 874.00745,58.565477 L 865.00745,70.565477 L 856.00745,68.565477 L 844.00745,79.565477 L 835.00745,77.565477 L 802.00745,99.565477 L 799.00745,107.56548 L 787.00745,112.56548 L 778.00745,107.56548 L 767.00745,97.565477 L 746.00745,101.56548 L 736.00745,93.565477 L 722.00745,94.565477 L 717.00745,105.56548 L 699.00745,110.56548 L 686.00745,143.56548 L 663.00745,149.56548 L 648.00745,162.56548 L 641.00745,186.56548 L 619.00745,195.56548 L 607.00745,189.56548" style="fill:#eaebed" sodipodi:nodetypes="cccccccccccccccccccccccccccccccccccccccccccccccccccccccccccccccccccccccccccccccccccccccccccccccccccccccccccccccccccccccccccccccccccccccccccccccccccccccccccccccccccccccccccccccccccccccccccccccccccccccccccccccccccccccccccccccccccccccccccccccccccccccccccccccccccccccccccccccccccccccccccccccccccccccccccccccccccccccccccccccccccccccccccccccccccccccccsssssscccccccccccccccccccccccccccccccccccccccccccccccccccccccccccccccccccccccccccccccccccccccccccccccccccccccccccccccccccccccccccccccccccccccccccccccccccccccccccccccccccccccccccccccccccccccccccccccccccccccccccccccccccccccccccccccccccccccccccccccccccccccccccccccccccccccccccccccccccccccccccccccccccccccccccccccccccccccccccccccccccccccccccccccccccccccccccccccccccccccccccccccccccccccccccccccccccccccccccccccccccccccccccccccccccccccccccccccccccccccccccccccccccccccccccccccccccccccccccccccccccccccccccccccccccccc"/>
  <metadata id="metadata318">
    <rdf:RDF>
      <cc:Work rdf:about="">
        <dc:format>image/svg+xml</dc:format>
        <dc:type rdf:resource="http://purl.org/dc/dcmitype/StillImage"/>
      </cc:Work>
    </rdf:RDF>
  </metadata>
  <sodipodi:namedview inkscape:window-height="756" inkscape:window-width="1280" inkscape:pageshadow="2" inkscape:pageopacity="0.0" guidetolerance="10.0" gridtolerance="10.0" objecttolerance="10.0" borderopacity="1.0" bordercolor="#666666" pagecolor="#ffffff" id="base" inkscape:zoom="0.8398742" inkscape:cx="992.12806" inkscape:cy="867.34505" inkscape:window-x="-4" inkscape:window-y="0" inkscape:current-layer="svg2" showgrid="false" showguides="true" inkscape:guide-bbox="true" inkscape:window-maximized="0"/>
  <defs id="defs001">
    <!--Station node template-->
    <circle id="station" cx="0" cy="0" r="3" style="fill:#ffffff;stroke:#000000;stroke-width:1" sodipodi:cx="0" sodipodi:cy="0" sodipodi:rx="3" sodipodi:ry="3"/>
    <!--Interchange node template-->
    <rect id="interchange" x="-3" y="-5" width="6" height="10" rx="3.5" style="fill:#ffffff;stroke:#000000;stroke-width:1"/>
    <!--depot symbol-->
    <path id="depot" style="fill:#ffffff;stroke:#000000;stroke-width:2" d="M 8,0 L 0,4 L 0,22 L 11,27 L 11,48 L 19,48 L 19,27 L 30,22 L 30,4 L 22,0 L 22,16 L 15,20 L 8,16 L 8,0" transform="matrix(0.212132,0.212132,-0.212132,0.212132,-1.35,-1.8)"/>
  </defs>
  <!--Terrain-->
  <path id="shenzhen" d="M 1179.6995,9.9475983e-014 L 1109.161,59.604024 L 1107.114,34.587756 L 1071.1701,37.903744 L 1039.4105,28.404294 L 975.15328,50.556169 L 932.49319,28.528613 L 884.00745,45.565477 L 881.00745,55.565477 L 873.00745,56.565477 L 865.00745,67.565477 L 857.00745,66.565477 L 844.00745,77.565477 L 835.00745,75.565477 L 800.00745,98.565477 L 797.00745,106.56548 L 787.00745,110.56548 L 779.00745,105.56548 L 768.00745,95.565477 L 746.00745,99.565477 L 736.00745,91.565477 L 720.00745,93.565477 L 715.00745,103.56548 L 697.00745,108.56548 L 684.00745,141.56548 L 662.00745,147.56548 L 644.00745,158.56548 L 636.00745,183.56548 L 619.00745,190.56548 L 608.00745,184.56548 L 578.00745,175.56548 L 562.00745,170.56548 L 550.00745,143.56548 L 516.00745,120.56548 L 482.00745,116.56548 L 483.00745,126.56548 L 470.00745,133.56548 L 459.00745,128.56548 L 444.00745,134.56548 L 381.96447,134.56548 L 382.53643,171.65894 L 383.08503,206.4253 L 377.75045,223.92717 L 370.01119,231.92717 L 356.89063,236.9739 L 339.91399,244.28137 L 324.1981,246.92343 L 315.00745,250.56548 L 306.00745,242.56548 L 302.00745,244.56548 L 299.00745,258.56548 L 274.00745,251.56548 L 275.00745,244.56548 L 282.00745,244.56548 L 283.00745,241.56548 L 264.00745,232.56548 L 263.00745,243.56548 L 259.00745,247.56548 L 248.00745,245.56548 L 245.00745,251.56548 L 244.00745,261.56548 L 232.00745,268.56548 L 234.00745,272.56548 L 231.00745,278.56548 L 225.00745,272.56548 L 219.00745,277.56548 L 229.00745,287.56548 L 213.00745,294.56548 L 211.00745,291.56548 L 209.39201,316.88981 L 193.19447,333.80061 L 185.44444,312.2168 L 184.16909,288.85826 L 172.59423,286.87801 L 176.88998,267.1258 L 159.03929,258.52537 L 151.7408,270.01286 L 154.37128,279.9061 L 139.87009,283.83118 L 104.38749,234.81951 L 98.726906,184.25624 L 129.13852,165.1496 L 157.64616,191.04186 L 246.51579,111.40535 L 156.46895,45.987631 L 75.151236,0.329378" style="fill:#f4ecc8" sodipodi:nodetypes="cccccccccccccccccccccccccccccccccccccccccccccccccccccccccccccccccccccccccccccccccccccc"/>
  <path id="tsingyi" d="M 776.00745,597.56548 L 779.00745,606.56548 L 779.00745,620.56548 L 786.00745,635.56548 L 788.00745,644.56548 L 797.00745,689.56548 L 789.00745,698.56548 L 785.00745,699.56548 L 785.00745,698.56548 L 787.00745,698.56548 L 787.00745,696.56548 L 779.00745,697.56548 L 779.00745,702.56548 L 771.00745,703.56548 L 765.00745,700.56548 L 744.00745,702.56548 L 743.00745,706.56548 L 734.00745,706.56548 L 725.00745,690.56548 L 730.00745,674.56548 L 735.00745,670.56548 L 734.00745,668.56548 L 727.00745,668.56548 L 727.00745,662.56548 L 730.00745,661.56548 L 729.00745,657.56548 L 726.00745,654.56548 L 711.00745,652.56548 L 713.00745,642.56548 L 710.00745,640.56548 L 710.00745,632.56548 L 703.00745,631.56548 L 700.00745,625.56548 L 700.00745,617.56548 L 699.00745,614.56548 L 701.00745,608.56548 L 716.00745,601.56548 L 721.00745,598.56548 L 728.00745,598.56548 L 728.00745,601.56548 L 748.00745,602.56548 L 755.00745,597.56548" style="fill:#eaebed"/>
  <path id="hongkongisland" d="M 809.00745,830.56548 L 797.00745,844.56548 L 798.00745,854.56548 L 804.00745,857.56548 L 805.00745,861.56548 L 816.00745,866.56548 L 838.00745,907.56548 L 841.00745,915.56548 L 853.00745,930.56548 L 866.00745,932.56548 L 900.00745,932.56548 L 905.00745,935.56548 L 915.00745,936.56548 L 933.00745,953.56548 L 929.00745,961.56548 L 930.00745,968.56548 L 935.00745,968.56548 L 935.00745,973.56548 L 932.00745,976.56548 L 949.00745,988.56548 L 955.00745,981.56548 L 957.00745,963.56548 L 969.00745,943.56548 L 984.00745,940.56548 L 990.00745,946.56548 L 990.00745,960.56548 L 996.00745,968.56548 L 977.00745,967.56548 L 972.00745,971.56548 L 983.00745,979.56548 L 993.00745,975.56548 L 996.00745,968.56548 L 1001.0074,968.56548 L 1010.0074,964.56548 L 1018.0074,973.56548 L 1018.0074,981.56548 L 1014.0074,985.56548 L 1014.0074,990.56548 L 1016.0074,993.56548 L 1013.0074,999.56548 L 1006.0074,999.56548 L 1000.0074,1001.5655 L 1006.0074,1003.5655 L 1024.0074,1013.5655 L 1028.0074,1013.5655 L 1029.0074,1024.5655 L 1019.0074,1027.5655 L 1018.0074,1034.5655 L 1015.0074,1039.5655 L 1021.0074,1045.5655 L 1028.0074,1042.5655 L 1028.0074,1037.5655 L 1040.0074,1037.5655 L 1044.0074,1031.5655 L 1042.0074,1027.5655 L 1053.0074,1023.5655 L 1055.0074,1018.5655 L 1063.0074,1031.5655 L 1062.0074,1038.5655 L 1056.0074,1044.5655 L 1056.0074,1069.5655 L 1061.6033,1079.8823 L 1071.7762,1077.1388 L 1081.6985,1073.1011 L 1084.179,1066.03 L 1079.0074,1058.5655 L 1078.0074,1052.5655 L 1075.0074,1050.5655 L 1075.0074,1044.5655 L 1078.0074,1043.5655 L 1080.0074,1036.5655 L 1086.0074,1034.5655 L 1085.0074,1026.5655 L 1072.0074,1021.5655 L 1065.0074,1014.5655 L 1067.0074,1002.5655 L 1076.0074,992.56548 L 1076.0074,987.56548 L 1082.0074,987.56548 L 1088.0074,977.56548 L 1096.0074,986.56548 L 1103.0074,985.56548 L 1104.0074,976.56548 L 1102.0074,961.56548 L 1096.0074,960.56548 L 1094.0074,952.56548 L 1105.0074,950.56548 L 1116.0074,957.56548 L 1117.0074,969.56548 L 1122.0074,1013.5655 L 1126.0074,1019.5655 L 1132.0074,1017.5655 L 1137.0074,1022.5655 L 1138.0074,1039.5655 L 1135.0074,1040.5655 L 1139.0074,1049.5655 L 1151.0074,1053.5655 L 1165.0074,1049.5655 L 1169.0074,1054.5655 L 1174.0074,1053.5655 L 1174.0074,1050.5655 L 1177.0074,1050.5655 L 1179.0074,1052.5655 L 1182.0074,1052.5655 L 1180.0074,1057.5655 L 1184.0074,1058.5655 L 1186.0074,1061.5655 L 1189.0074,1061.5655 L 1188.0074,1053.5655 L 1191.0074,1048.5655 L 1183.0074,1043.5655 L 1182.0074,1039.5655 L 1180.0074,1039.5655 L 1174.0074,1042.5655 L 1171.0074,1040.5655 L 1172.0074,1038.5655 L 1175.0074,1037.5655 L 1173.0074,1034.5655 L 1173.0074,1015.5655 L 1163.0074,990.56548 L 1165.0074,988.56548 L 1172.0074,990.56548 L 1176.0074,991.56548 L 1178.0074,991.56548 L 1176.0074,988.56548 L 1181.0074,988.56548 L 1186.0074,986.56548 L 1185.0074,981.56548 L 1179.0074,984.56548 L 1172.0074,983.56548 L 1166.0074,979.56548 L 1170.0074,968.56548 L 1163.0074,958.56548 L 1163.0074,948.56548 L 1154.0074,948.56548 L 1153.0074,944.56548 L 1154.0074,938.56548 L 1158.0074,938.56548 L 1165.0074,929.56548 L 1169.0074,931.56548 L 1171.0074,927.56548 L 1171.0074,922.56548 L 1178.0074,906.56548 L 1173.0074,899.56548 L 1175.0074,894.56548 L 1180.0074,892.56548 L 1156.0074,871.56548 L 1154.0074,874.56548 L 1150.0074,870.56548 L 1148.0074,862.56548 L 1144.0074,855.56548 L 1144.0074,857.56548 L 1147.0074,863.56548 L 1145.0074,865.56548 L 1147.0074,871.56548 L 1142.0074,876.56548 L 1137.0074,867.56548 L 1142.0074,861.56548 L 1136.0074,843.56548 L 1131.0074,841.56548 L 1131.0074,837.56548 L 1117.0074,827.56548 L 1102.0074,819.56548 L 1101.0074,820.56548 L 1115.0074,828.56548 L 1094.0074,831.56548 L 1093.0074,823.56548 L 1079.0074,812.56548 L 1067.0074,810.56548 L 1040.0074,797.56548 L 1024.0074,798.56548 L 1004.0074,807.56548 L 1003.0074,814.56548 L 997.00745,816.56548 L 983.00745,815.56548 L 972.00745,826.56548 L 957.58649,829.03972 L 956.00745,821.56548 L 950.00745,823.56548 L 944.21793,831.46068 L 940.63889,831.61876 L 937.32273,830.98732 L 931.48081,829.51308 L 926.3794,824.99573 L 924.74281,820.0406 L 922.00745,818.56548 L 896.00745,811.56548 L 893.00745,812.56548 L 893.00745,814.56548 L 890.00745,814.56548 L 889.00745,812.56548 L 886.00745,812.56548 L 883.00745,810.56548 L 862.00745,809.56548 L 851.00745,813.56548 L 842.00745,813.56548 L 828.37601,825.98644" style="fill:#eaebed" sodipodi:nodetypes="ccccccccccccccccccccccccccccccccccccccccccccccccccccccccccccccccccccccccccccccccccccccccccccccccccccccccccccccccccccccccccccccccccccccccccccccccccccccccccccccccccccccccccccccccccccccccccccccccccccc"/>
  <path id="apleichau" d="M 885.00745,938.56548 L 882.00745,940.56548 L 877.00745,941.56548 L 872.00745,944.56548 L 872.00745,947.56548 L 876.00745,946.56548 L 882.00745,952.56548 L 874.00745,957.56548 L 892.00745,959.56548 L 902.00745,969.56548 L 914.00745,974.56548 L 914.00745,982.56548 L 921.00745,988.56548 L 924.00745,988.56548 L 921.00745,981.56548 L 922.00745,977.56548 L 916.00745,973.56548 L 916.00745,971.56548 L 920.00745,960.56548 L 919.00745,954.56548 L 914.00745,950.56548 L 916.00745,946.56548 L 916.00745,941.56548 L 910.00745,939.56548 L 899.00745,941.56548 L 892.00745,938.56548" style="fill:#eaebed"/>
  <path id="mawan" d="M 661.00745,619.56548 L 657.00745,626.56548 L 657.00745,629.56548 L 654.00745,632.56548 L 655.00745,639.56548 L 665.00745,646.56548 L 649.00745,657.56548 L 637.00745,648.56548 L 639.00745,643.56548 L 630.00745,638.56548 L 640.00745,634.56548 L 641.00745,628.56548 L 634.00745,624.56548 L 642.00745,618.56548 L 648.00745,617.56548 L 652.00745,621.56548" style="fill:#eaebed"/>
  <path id="lantau" d="M 608.00745,636.56548 L 605.00745,638.56548 L 604.00745,650.56548 L 598.00745,655.56548 L 597.00745,660.56548 L 570.78042,677.49962 L 566.28131,678.8722 L 562.38182,674.81674 L 551.00745,679.56548 L 545.00745,675.56548 L 549.00745,682.56548 L 549.00745,687.56548 L 541.00745,687.56548 L 540.00745,682.56548 L 526.00745,694.56548 L 523.00745,693.56548 L 514.00745,699.56548 L 515.00745,704.56548 L 478.00745,725.56548 L 463.00745,745.56548 L 451.00745,746.56548 L 428.00745,761.56548 L 422.00745,770.56548 L 362.00745,796.56548 L 325.00745,799.56548 L 313.00745,811.56548 L 313.00745,817.56548 L 298.00745,832.56548 L 285.00745,824.56548 L 282.00745,806.56548 L 270.00745,808.56548 L 260.00745,801.56548 L 246.00745,808.56548 L 235.00745,804.56548 L 221.00745,811.56548 L 213.00745,806.56548 L 207.00745,810.56548 L 200.64349,835.05224 L 177.81598,826.69914 L 158.84599,832.46045 L 153.21043,846.3288 L 156.66798,859.729 L 156.78246,870.39426 L 145.58673,858.7043 L 135.97797,853.63355 L 128.73124,856.46515 L 117.20985,863.607 L 105.72714,865.14427 L 102.74885,877.94826 L 97.666696,892.2241 L 88.106086,890.48898 L 87.085246,879.63557 L 75.932486,878.64362 L 65.778366,884.544 L 60.351506,900.94403 L 66.346646,907.97919 L 78.887466,905.26013 L 90.372716,903.51375 L 94.264046,913.48932 L 92.206926,924.09037 L 80.769486,930.47803 L 69.001896,931.33548 L 56.248546,938.24339 L 60.236386,953.96695 L 67.225326,962.25972 L 52.959456,964.43249 L 47.661806,949.67229 L 37.248906,948.04439 L 35.494526,959.29145 L 38.507336,976.66835 L 51.226046,987.4324 L 63.455766,994.16948 L 74.592586,1003.945 L 84.787006,1012.5199 L 78.825316,1027.6423 L 66.830116,1035.7979 L 70.365256,1050.0562 L 86.799296,1046.933 L 88.208076,1034.76 L 107.99497,1024.2377 L 123.1997,1027.3418 L 129.07603,1018.6959 L 151.4581,1006.6199 L 167.42283,1009.7544 L 181.22229,995.30577 L 187.75002,983.17659 L 215.59323,966.80812 L 229.00745,985.56548 L 213.00745,994.56548 L 207.00745,992.56548 L 207.00745,1008.5655 L 209.00745,1022.5655 L 236.00745,1048.5655 L 250.00745,1053.5655 L 257.00745,1040.5655 L 265.00745,1040.5655 L 271.00745,1051.5655 L 299.00745,1041.5655 L 298.00745,1023.5655 L 275.00745,1014.5655 L 284.00745,995.56548 L 291.00745,1001.5655 L 309.00745,998.56548 L 312.00745,991.56548 L 359.00745,973.56548 L 371.00745,981.56548 L 384.00745,977.56548 L 386.00745,967.56548 L 414.00745,952.56548 L 436.00745,969.56548 L 425.00745,989.56548 L 443.00745,1010.5655 L 434.00745,1023.5655 L 453.00745,1034.5655 L 479.00745,1017.5655 L 490.00745,1028.5655 L 500.00745,1028.5655 L 501.00745,1019.5655 L 520.00745,1001.5655 L 528.00745,1001.5655 L 541.00745,983.56548 L 511.00745,968.56548 L 500.00745,972.56548 L 469.00745,949.56548 L 517.00745,1017.5655 L 504.00745,895.56548 L 480.00745,876.56548 L 493.00745,862.56548 L 526.00745,883.56548 L 546.00745,879.56548 L 549.00745,842.56548 L 548.00745,829.56548 L 536.00745,817.56548 L 541.00745,807.56548 L 541.00745,800.56548 L 549.00745,805.56548 L 563.00745,805.56548 L 557.00745,796.56548 L 556.00745,785.56548 L 540.00745,792.56548 L 527.00745,788.56548 L 528.00745,780.56548 L 540.00745,779.56548 L 539.00745,772.56548 L 529.00745,768.56548 L 529.00745,764.56548 L 533.00745,760.56548 L 533.00745,752.56548 L 555.00745,752.56548 L 565.00745,743.56548 L 581.00745,757.56548 L 599.00745,763.56548 L 613.00745,758.56548 L 618.00745,760.56548 L 626.00745,756.56548 L 620.00745,756.56548 L 620.00745,740.56548 L 627.00745,736.56548 L 619.00745,728.56548 L 623.00745,727.56548 L 631.00745,719.56548 L 635.00745,724.56548 L 637.00745,719.56548 L 632.00745,712.56548 L 639.00745,694.56548 L 635.00745,691.56548 L 643.00745,678.56548 L 641.00745,670.56548 L 625.00745,649.56548" style="fill:#eaebed" sodipodi:nodetypes="ccccccccccccccccccccccccccccccccccccccccccccccccccccccccccccccccccccccccccccccccccccccccccccccccccccccccccccccccccccccccccccccccccccccccccccccccccccccccccccccccccccccccc"/>
  <path id="airport" d="M 337.00745,712.56548 L 313.00745,719.56548 L 308.00745,710.56548 L 207.00745,745.56548 L 207.00745,764.56548 L 212.00745,776.56548 L 207.00745,782.56548 L 207.00745,799.56548 L 213.00745,801.56548 L 227.00745,795.56548 L 263.00745,796.56548 L 304.00745,809.56548 L 321.00745,796.56548 L 318.00745,791.56548 L 317.00745,776.56548 L 325.00745,773.56548 L 321.00745,765.56548 L 325.00745,747.56548 L 340.00745,721.56548" style="fill:#eaebed"/>
  <path style="opacity:0.2;fill:#000000" d="M 264.94021,782.91246 L 264.08408,767.43774 L 257.71191,769.81163 L 252.99153,776.90586 L 248.66267,765.28601 L 256.83915,767.46892 L 263.30504,765.06011 L 253.76894,752.92575 L 271.77371,762.0119 L 280.39489,758.80016 L 281.26764,761.14288 L 272.74017,764.3197 L 264.94021,782.91246 z " id="airport_symbol"/>
  <path id="lammaisland" d="M 804.00745,954.56548 L 798.00745,960.56548 L 781.00745,965.56548 L 769.00745,975.56548 L 780.00745,983.56548 L 773.00745,987.56548 L 774.00745,995.56548 L 777.00745,997.56548 L 774.00745,1005.5655 L 766.00745,1013.5655 L 759.00745,1017.5655 L 758.00745,1026.5655 L 792.00745,1026.5655 L 792.00745,1014.5655 L 808.00745,1019.5655 L 811.00745,1046.5655 L 807.00745,1053.5655 L 811.00745,1057.5655 L 812.00745,1069.5655 L 797.88694,1104.7032 L 780.23089,1111.0239 L 772.96032,1125.5512 L 779.21241,1136.8584 L 789.85127,1142.5623 L 801.20493,1136.0429 L 809.78201,1149.217 L 823.35783,1140.4119 L 830.10986,1123.9886 L 838.97697,1118.3847 L 851.04072,1141.8852 L 868.33007,1157.8643 L 869.32919,1136.408 L 863.06924,1115.6492 L 855.58755,1111.0596 L 858.31757,1097.0589 L 867.12339,1097.5326 L 872.02155,1108.5212 L 885.77074,1122.4336 L 899.34098,1126.0893 L 894.19879,1113.8875 L 892.80374,1100.7037 L 887.04955,1099.0431 L 888.85853,1095.1483 L 883.08309,1088.2088 L 871.48687,1083.5827 L 871.50745,1076.0655 L 882.00745,1069.5655 L 886.00745,1063.5655 L 890.00745,1063.5655 L 890.00745,1057.5655 L 895.00745,1057.5655 L 903.00745,1063.5655 L 908.00745,1063.5655 L 919.00745,1053.5655 L 919.00745,1045.5655 L 914.00745,1037.5655 L 899.00745,1048.5655 L 896.00745,1034.5655 L 867.00745,1051.5655 L 858.00745,1045.5655 L 845.00745,1050.5655 L 835.00745,1061.5655 L 829.00745,1053.5655 L 831.00745,1044.5655 L 850.00745,1033.5655 L 855.00745,1026.5655 L 855.00745,1017.5655 L 849.00745,1011.5655 L 849.00745,1006.5655 L 854.00745,1002.5655 L 854.00745,997.56548 L 849.00745,994.56548 L 842.00745,998.56548 L 842.00745,1003.5655 L 845.00745,1006.5655 L 845.00745,1012.5655 L 837.00745,1018.5655 L 831.00745,1017.5655 L 826.00745,1006.5655 L 826.00745,994.56548 L 811.00745,986.56548 L 811.00745,976.56548 L 817.00745,971.56548 L 817.00745,961.56548" style="fill:#eaebed" sodipodi:nodetypes="cccccccccccccccccccccccccccccccccccccccccccccccccccccccccccccccccccccccccccccccccccc"/>
  <path id="cheungchau" d="M 579.00745,1003.5655 L 571.00745,1008.5655 L 568.00745,1007.5655 L 561.00745,1007.5655 L 553.00745,1012.5655 L 550.00745,1018.5655 L 554.00745,1019.5655 L 554.00745,1024.5655 L 549.00745,1031.5655 L 545.00745,1029.5655 L 543.00745,1033.5655 L 550.00745,1038.5655 L 557.00745,1038.5655 L 562.00745,1043.5655 L 563.00745,1050.5655 L 560.00745,1054.5655 L 546.00745,1057.5655 L 541.00745,1065.5655 L 538.00745,1066.5655 L 537.00745,1069.5655 L 537.40487,1079.1184 L 549.35165,1077.6511 L 550.62425,1082.6026 L 555.61109,1078.0508 L 565.00745,1069.5655 L 567.00745,1066.5655 L 573.00745,1066.5655 L 575.00745,1063.5655 L 581.00745,1069.5655 L 586.00745,1069.5655 L 586.00745,1065.5655 L 592.00745,1064.5655 L 594.00745,1058.5655 L 598.00745,1056.5655 L 598.00745,1054.5655 L 594.00745,1052.5655 L 591.00745,1047.5655 L 583.00745,1051.5655 L 573.00745,1047.5655 L 566.00745,1036.5655 L 568.00745,1028.5655 L 585.00745,1022.5655 L 582.00745,1020.5655 L 574.00745,1021.5655 L 574.00745,1018.5655 L 584.00745,1009.5655" style="fill:#eaebed" sodipodi:nodetypes="cccccccccccccccccccccccccccccccccccccccccccccc"/>
  <path id="heilingchau" d="M 599.00745,901.56548 L 565.00745,901.56548 L 556.00745,906.56548 L 563.00745,917.56548 L 573.00745,914.56548 L 580.00745,928.56548 L 587.00745,927.56548 L 592.00745,937.56548 L 592.00745,946.56548 L 606.00745,953.56548 L 613.00745,937.56548 L 605.00745,926.56548 L 607.00745,918.56548 L 608.00745,908.56548" style="fill:#eaebed"/>
  <path id="sunshineisland" d="M 634.00745,882.56548 L 622.00745,885.56548 L 620.00745,888.56548 L 612.00745,892.56548 L 611.00745,896.56548 L 609.00745,898.56548 L 611.00745,903.56548 L 614.00745,904.56548 L 616.00745,907.56548 L 622.00745,907.56548 L 626.00745,902.56548 L 630.00745,902.56548 L 635.00745,896.56548 L 635.00745,893.56548 L 639.00745,888.56548" style="fill:#eaebed"/>
  <path id="pengchau" d="M 595.00745,801.56548 L 581.00745,811.56548 L 584.00745,820.56548 L 587.00745,825.56548 L 589.00745,828.56548 L 586.00745,832.56548 L 594.00745,841.56548 L 610.00745,836.56548 L 614.00745,826.56548 L 611.00745,824.56548 L 611.00745,818.56548 L 605.00745,818.56548 L 596.00745,822.56548 L 594.00745,820.56548 L 597.00745,815.56548 L 607.00745,812.56548 L 610.00745,806.56548 L 603.00745,801.56548" style="fill:#eaebed"/>
  <text id="text2511" style="font-size:30px;font-weight:bold;opacity:0.2;fill:#000000;font-family:Bitstream Charter" x="207.00745" y="45.565475">
    <tspan id="tspan2513" y="702.56549" x="927.00745">Kowloon</tspan>
    <tspan x="282.00745" y="875.56549" id="tspan2521">Lantau Island</tspan>
    <tspan x="847.00745" y="905.56549" id="tspan2519">Hong Kong Island</tspan>
    <tspan x="759.00745" y="451.56549" id="tspan2517">New Territories</tspan>
    <tspan x="547.00745" y="125.56548" id="tspan2515">Shenzhen</tspan>
  </text>
  <!--Rail track-->
  <!--Station node positioning-->
  <!--Ngong Ping 360-->
  <!--East Rail-->
  <!--Ma On Shan Rail-->
  <!--West Rail-->
  <!--Airport Express-->
  <!--Tung Chung Line-->
  <!--Disneyland Resort Line-->
  <!--Tsuen Wan Line-->
  <!--Kwun Tong Line-->
  <!--Tseung Kwan O Line-->
  <!--Island Line-->
  <!--depots-->
  <!--station name positioning-->
  <text id="sign" style="font-size:10px;font-family:Bitstream Charter" x="-184.80121" y="208.08826">
    <tspan id="tspan4648" y="1154.0883" x="375.19879">Base map originally created and released into public domain by Sameboat (central portions) and Raphaelmak (Sai Kung peninsula, West Lantau, Plover Cove area and Shekou) of Wikipedia.org</tspan>
  </text>
  <path style="fill:#eaebed;fill-opacity:1;fill-rule:evenodd;stroke:none;stroke-width:1px;stroke-linecap:butt;stroke-linejoin:miter;stroke-opacity:1" d="M 1318.1462,907.45742 C 1317.402,911.4629 1316.9556,913.39771 1316.9556,913.39771 C 1326.054,914.97014 1326.6493,915.11897 1326.6493,915.11897 C 1318.085,921.74518 1318.085,921.74518 1318.085,921.74518 C 1324.5083,934.99762 1324.5083,934.99762 1324.5083,934.99762 C 1334.4997,939.96729 1334.4997,939.96729 1334.4997,939.96729 C 1336.6407,948.25005 1336.6407,948.25005 1336.6407,948.25005 C 1329.5039,949.90661 1329.5039,949.90661 1329.5039,949.90661 C 1332.3586,961.50249 1332.3586,961.50249 1332.3586,961.50249 C 1328.0765,967.30044 1328.0765,967.30044 1328.0765,967.30044 C 1313.8032,958.18938 1313.8032,958.18938 1313.8032,958.18938 C 1311.662,967.30044 1311.662,967.30044 1311.662,967.30044 C 1314.5168,971.44182 1314.5168,971.44182 1314.5168,971.44182 C 1308.0937,978.89632 1308.0937,978.89632 1308.0937,978.89632 C 1300.2432,968.95699 1300.2432,968.95699 1300.2432,968.95699 C 1307.3801,961.50249 1307.3801,961.50249 1307.3801,961.50249 C 1305.9527,957.36111 1305.9527,957.36111 1305.9527,957.36111 C 1287.3972,953.21971 1287.3972,953.21971 1287.3972,953.21971 C 1277.4056,939.96729 1277.4056,939.96729 1277.4056,939.96729 C 1278.8331,924.23003 1278.8331,924.23003 1278.8331,924.23003 C 1288.1108,911.80586 1288.1108,911.80586 1288.1108,911.80586 C 1295.9612,915.94726 1295.9612,915.94726 1295.9612,915.94726 C 1301.3451,912.26515 1307.4139,906.92618 1310.3632,905.00481 C 1318.3606,899.79479 1324.0995,902.6948 1324.0995,902.6948" id="path41483" sodipodi:nodetypes="ccccccccccccccccccccccsc"/>
  <path style="fill:#7fc9ee;fill-opacity:1;fill-rule:evenodd;stroke:none;stroke-width:1px;stroke-linecap:butt;stroke-linejoin:miter;stroke-opacity:1" d="M 1434.1056,589.12867 C 1450.944,597.96883 1450.944,597.96883 1450.944,597.96883 C 1475.7806,595.86403 1475.7806,595.86403 1475.7806,595.86403 C 1481.0426,585.76099 1481.0426,585.76099 1481.0426,585.76099 C 1473.6758,572.92171 1473.6758,572.92171 1473.6758,572.92171 C 1455.1536,574.18459 1456.206,574.39507 1456.206,574.39507 C 1450.3125,563.87108 1450.3125,563.87108 1450.3125,563.87108 C 1463.1518,549.76892 1463.1518,549.76892 1463.1518,549.76892 C 1437.4733,556.71476 1437.4733,556.71476 1437.4733,556.71476 C 1434.3161,536.92964 1434.3161,536.92964 1434.3161,536.92964 C 1417.0567,552.50516 1417.0567,552.50516 1417.0567,552.50516 C 1402.9546,541.77068 1402.9546,541.77068 1402.9546,541.77068 C 1409.6899,535.87724 1409.6899,535.87724 1409.6899,535.87724 C 1394.3249,535.03532 1394.3249,535.03532 1394.3249,535.03532 C 1395.3773,541.98116 1395.3773,541.98116 1395.3773,541.98116 C 1385.4847,531.66764 1385.4847,531.66764 1385.4847,531.66764 C 1381.4856,524.93228 1381.4856,524.93228 1381.4856,524.93228 C 1375.3817,519.67028 1375.3817,519.67028 1375.3817,519.67028 C 1378.1179,528.72092 1378.1179,528.72092 1378.1179,528.72092 C 1360.4376,522.617 1360.4376,522.617 1360.4376,522.617 C 1367.5939,535.87724 1367.5939,535.87724 1367.5939,535.87724 C 1373.2769,537.98204 1373.2769,537.98204 1373.2769,537.98204 C 1375.5922,546.61172 1375.5922,546.61172 1375.5922,546.61172 C 1374.1188,554.189 1374.1188,554.189 1374.1188,554.189 C 1378.1179,561.34532 1378.1179,561.34532 1378.1179,561.34532 C 1385.0638,566.18635 1385.0638,566.18635 1385.0638,566.18635 C 1385.2742,571.44835 1385.2742,571.44835 1385.2742,571.44835 C 1396.8506,579.86755 1396.8506,579.86755 1396.8506,579.86755 C 1406.5327,591.02299 1406.5327,591.02299 1406.5327,591.02299 C 1407.7956,587.23435 1407.7956,587.23435 1407.7956,587.23435 C 1424.4235,597.96883 1424.4235,597.96883 1424.4235,597.96883 C 1417.0567,581.55139 1417.0567,581.55139 1417.0567,581.55139 C 1428.0017,584.49811 1428.0017,584.49811 1428.0017,584.49811 C 1431.7903,593.54875 1431.7903,593.54875 1431.7903,593.54875 C 1435.158,589.54963 1435.158,589.54963 1435.158,589.54963" id="path40512"/>
  <path style="fill:#eaebed;fill-opacity:1;fill-rule:evenodd;stroke:none;stroke-width:1px;stroke-linecap:butt;stroke-linejoin:miter;stroke-opacity:1" d="M 696.16801,817.22244 C 702.06459,812.80002 702.06459,812.80002 702.06459,812.80002 C 704.64434,813.90562 704.64434,813.90562 704.64434,813.90562 C 703.53873,816.11684 703.53873,816.11684 703.53873,816.11684 C 706.48702,819.06513 706.48702,819.06513 706.48702,819.06513 C 695.43094,820.53927 695.43094,820.53927 695.43094,820.53927" id="path4451"/>
  <path id="tsingchau" d="M 792.78573,822.85011 L 788.92891,825.42133 L 788.28611,828.63535 L 790.21452,831.20656 L 797.28536,829.92095 L 797.92816,827.99254" style="fill:#eaebed"/>
</svg>